<svg xmlns="http://www.w3.org/2000/svg" version="1.1" xmlns:xlink="http://www.w3.org/1999/xlink" xmlns:svgjs="http://svgjs.com/svgjs" viewBox="0 0 140 140" width="140" height="140"><g transform="matrix(5.833333333333333,0,0,5.833333333333333,0,0)"><path d="M0.75 23.25L23.25 23.25" fill="none" stroke="#000000" stroke-linecap="round" stroke-linejoin="round" stroke-width="1.5"></path><path d="M6,17.25H3a.75.75,0,0,0-.75.75v5.25h4.5V18A.75.75,0,0,0,6,17.25Z" fill="none" stroke="#000000" stroke-linecap="round" stroke-linejoin="round" stroke-width="1.5"></path><path d="M13.5,9.75h-3a.75.75,0,0,0-.75.75V23.25h4.5V10.5A.75.75,0,0,0,13.5,9.75Z" fill="none" stroke="#000000" stroke-linecap="round" stroke-linejoin="round" stroke-width="1.5"></path><path d="M21,14.25H18a.75.75,0,0,0-.75.75v8.25h4.5V15A.75.75,0,0,0,21,14.25Z" fill="none" stroke="#000000" stroke-linecap="round" stroke-linejoin="round" stroke-width="1.5"></path><path d="M0.750 10.500 A1.500 1.500 0 1 0 3.750 10.500 A1.500 1.500 0 1 0 0.750 10.500 Z" fill="none" stroke="#000000" stroke-linecap="round" stroke-linejoin="round" stroke-width="1.5"></path><path d="M7.500 2.250 A1.500 1.500 0 1 0 10.500 2.250 A1.500 1.500 0 1 0 7.500 2.250 Z" fill="none" stroke="#000000" stroke-linecap="round" stroke-linejoin="round" stroke-width="1.5"></path><path d="M20.250 6.000 A1.500 1.500 0 1 0 23.250 6.000 A1.500 1.500 0 1 0 20.250 6.000 Z" fill="none" stroke="#000000" stroke-linecap="round" stroke-linejoin="round" stroke-width="1.5"></path><path d="M3.2 9.339L8.05 3.411" fill="none" stroke="#000000" stroke-linecap="round" stroke-linejoin="round" stroke-width="1.5"></path><path d="M20.311 5.576L10.439 2.673" fill="none" stroke="#000000" stroke-linecap="round" stroke-linejoin="round" stroke-width="1.5"></path></g></svg>