<svg xmlns="http://www.w3.org/2000/svg" version="1.1" xmlns:xlink="http://www.w3.org/1999/xlink" xmlns:svgjs="http://svgjs.com/svgjs" viewBox="0 0 140 140" width="140" height="140"><g transform="matrix(5.833333333333333,0,0,5.833333333333333,0,0)"><path d="M16.500 5.250 A3.000 3.000 0 1 0 22.500 5.250 A3.000 3.000 0 1 0 16.500 5.250 Z" fill="none" stroke="#000000" stroke-linecap="round" stroke-linejoin="round" stroke-width="1.5"></path><path d="M17.812,20.25,18,21.75h3l.75-6h1.5V13.5a3.75,3.75,0,0,0-6-3" fill="none" stroke="#000000" stroke-linecap="round" stroke-linejoin="round" stroke-width="1.5"></path><path d="M1.500 5.250 A3.000 3.000 0 1 0 7.500 5.250 A3.000 3.000 0 1 0 1.500 5.250 Z" fill="none" stroke="#000000" stroke-linecap="round" stroke-linejoin="round" stroke-width="1.5"></path><path d="M6.188,20.25,6,21.75H3l-.75-6H.75V13.5a3.75,3.75,0,0,1,6-3" fill="none" stroke="#000000" stroke-linecap="round" stroke-linejoin="round" stroke-width="1.5"></path><path d="M9.750 9.000 A2.250 2.250 0 1 0 14.250 9.000 A2.250 2.250 0 1 0 9.750 9.000 Z" fill="none" stroke="#000000" stroke-linecap="round" stroke-linejoin="round" stroke-width="1.5"></path><path d="M12,12.75A3.75,3.75,0,0,0,8.25,16.5v.75h1.5l.75,4.5H12" fill="none" stroke="#000000" stroke-linecap="round" stroke-linejoin="round" stroke-width="1.5"></path><path d="M12,12.75a3.75,3.75,0,0,1,3.75,3.75v.75h-1.5l-.75,4.5H12" fill="none" stroke="#000000" stroke-linecap="round" stroke-linejoin="round" stroke-width="1.5"></path></g></svg>