<svg xmlns="http://www.w3.org/2000/svg" version="1.1" xmlns:xlink="http://www.w3.org/1999/xlink" xmlns:svgjs="http://svgjs.com/svgjs" viewBox="0 0 140 140" width="140" height="140"><g transform="matrix(5.833333333333333,0,0,5.833333333333333,0,0)"><path d="M9.750 2.998 A2.250 2.250 0 1 0 14.250 2.998 A2.250 2.250 0 1 0 9.750 2.998 Z" fill="none" stroke="#000000" stroke-linecap="round" stroke-linejoin="round" stroke-width="1.5"></path><path d="M9.750 20.998 A2.250 2.250 0 1 0 14.250 20.998 A2.250 2.250 0 1 0 9.750 20.998 Z" fill="none" stroke="#000000" stroke-linecap="round" stroke-linejoin="round" stroke-width="1.5"></path><path d="M1.500 20.998 A2.250 2.250 0 1 0 6.000 20.998 A2.250 2.250 0 1 0 1.500 20.998 Z" fill="none" stroke="#000000" stroke-linecap="round" stroke-linejoin="round" stroke-width="1.5"></path><path d="M18.000 20.998 A2.250 2.250 0 1 0 22.500 20.998 A2.250 2.250 0 1 0 18.000 20.998 Z" fill="none" stroke="#000000" stroke-linecap="round" stroke-linejoin="round" stroke-width="1.5"></path><path d="M3.75,18.748h0a6,6,0,0,1,6-6h4.5a6,6,0,0,1,6,6h0" fill="none" stroke="#000000" stroke-linecap="round" stroke-linejoin="round" stroke-width="1.5"></path><path d="M12 5.248L12 18.748" fill="none" stroke="#000000" stroke-linecap="round" stroke-linejoin="round" stroke-width="1.5"></path></g></svg>