<svg width="64" height="44" viewBox="0 0 64 44" xmlns="http://www.w3.org/2000/svg"><title>Group</title><desc>Created with Sketch.</desc><path d="M63.725 20.865c-.575-.851-14.284-20.83-31.725-20.83-17.439 0-31.151 19.98-31.726 20.83-.366.541-.366 1.251 0 1.793.575.851 14.287 20.829 31.726 20.829 17.44 0 31.15-19.978 31.725-20.829.366-.542.366-1.251 0-1.793zm-31.725 14.911c-7.729 0-14.016-6.287-14.016-14.016s6.288-14.016 14.016-14.016c7.729 0 14.016 6.288 14.016 14.016.001 7.729-6.287 14.016-14.016 14.016zm0-20.832c-3.759 0-6.816 3.058-6.816 6.816 0 3.759 3.058 6.816 6.816 6.816 3.759 0 6.816-3.057 6.816-6.816.001-3.759-3.057-6.816-6.816-6.816z"/></svg>