<svg width="10" height="8" viewBox="0 0 10 8" xmlns="http://www.w3.org/2000/svg"><title>Group 4</title><desc>Created with Sketch.</desc><g fill="#94E4F8"><ellipse cx="5" cy="1.5" rx="5" ry="1.5"/><path d="M.669 3.186c.865.476 2.48.796 4.331.796 1.851 0 3.467-.32 4.331-.796.425.234.669.506.669.796 0 .88-2.239 1.593-5 1.593s-5-.713-5-1.593c0-.29.243-.562.669-.796z"/><path d="M.669 5.575c.865.476 2.48.796 4.331.796 1.851 0 3.467-.32 4.331-.796.425.234.669.506.669.796 0 .88-2.239 1.593-5 1.593s-5-.713-5-1.593c0-.29.243-.562.669-.796z"/></g></svg>