<svg xmlns="http://www.w3.org/2000/svg" version="1.1" xmlns:xlink="http://www.w3.org/1999/xlink" xmlns:svgjs="http://svgjs.com/svgjs" viewBox="0 0 140 140" width="140" height="140"><g transform="matrix(5.833333333333333,0,0,5.833333333333333,0,0)"><path d="M9.759 12.009 A2.250 2.250 0 1 0 14.259 12.009 A2.250 2.250 0 1 0 9.759 12.009 Z" fill="none" stroke="#000000" stroke-linecap="round" stroke-linejoin="round" stroke-width="1.5"></path><path d="M-2.991 12.009 A15 5.25 0 1 0 27.009 12.009 A15 5.25 0 1 0 -2.991 12.009 Z" fill="none" stroke="#000000" stroke-linecap="round" stroke-linejoin="round" stroke-width="1.5" transform="translate(-4.974 12.009) rotate(-45)"></path><path d="M6.759 12.009 A5.25 15 0 1 0 17.259 12.009 A5.25 15 0 1 0 6.759 12.009 Z" fill="none" stroke="#000000" stroke-linecap="round" stroke-linejoin="round" stroke-width="1.5" transform="translate(-4.974 12.009) rotate(-45)"></path></g></svg>