<svg width="10" height="12" viewBox="0 0 10 12" xmlns="http://www.w3.org/2000/svg"><title>person</title><desc>Created with Sketch.</desc><g transform="translate(0 .167)" fill="#F4838E" fill-rule="nonzero"><path d="M8.924 6.286c-.214-.095-.468-.143-.726-.138h-.808c-.179-.002-.354.034-.498.102-1.116.554-2.663.554-3.779 0-.146-.069-.322-.105-.502-.102h-.808c-.258-.005-.512.043-.726.138-.502.233-.642.679-.322 1.022l3.21 3.556c.184.212.506.358.875.396.471.043.936-.103 1.177-.371l3.237-3.579c.321-.345.177-.793-.33-1.025z"/><circle cx="5" cy="3.083" r="2.542"/></g></svg>