<svg width="132" height="131" viewBox="0 0 132 131" xmlns="http://www.w3.org/2000/svg"><title>Tile</title><desc>Created with Sketch.</desc><g opacity=".1" fill="none"><path id="Rectangle-7" fill="#fff" d="M110 110h3v3h-3z"/><path id="Rectangle-7-Copy" fill="#fff" d="M129 129h2v2h-2z"/><path id="Rectangle-7-Copy-2" fill="#fff" d="M129 110h2v2h-2z"/><path d="M111.5 110.5h19.026" id="Line" stroke="#fff" stroke-linecap="square"/><path d="M130.5 110.5v20" id="Line-2" stroke="#fff" stroke-linecap="square"/><path d="M111.5 111.5l18 18" id="Line-3" stroke="#fff" stroke-linecap="square"/><path id="Rectangle-7" fill="#fff" d="M88 110h3v3h-3z"/><path id="Rectangle-7-Copy" fill="#fff" d="M107 129h2v2h-2z"/><path id="Rectangle-7-Copy-2" fill="#fff" d="M107 110h2v2h-2z"/><path d="M89.5 110.5h19.026" id="Line" stroke="#fff" stroke-linecap="square"/><path d="M108.5 110.5v20" id="Line-2" stroke="#fff" stroke-linecap="square"/><path d="M89.5 111.5l18 18" id="Line-3" stroke="#fff" stroke-linecap="square"/><path id="Rectangle-7" fill="#fff" d="M66 110h3v3h-3z"/><path id="Rectangle-7-Copy" fill="#fff" d="M85 129h2v2h-2z"/><path id="Rectangle-7-Copy-2" fill="#fff" d="M85 110h2v2h-2z"/><path d="M67.5 110.5h19.026" id="Line" stroke="#fff" stroke-linecap="square"/><path d="M86.5 110.5v20" id="Line-2" stroke="#fff" stroke-linecap="square"/><path d="M67.5 111.5l18 18" id="Line-3" stroke="#fff" stroke-linecap="square"/><path id="Rectangle-7" fill="#fff" d="M22 110h3v3h-3z"/><path id="Rectangle-7-Copy" fill="#fff" d="M41 129h2v2h-2z"/><path id="Rectangle-7-Copy-2" fill="#fff" d="M41 110h2v2h-2z"/><path d="M23.5 110.5h19.026" id="Line" stroke="#fff" stroke-linecap="square"/><path d="M42.5 110.5v20" id="Line-2" stroke="#fff" stroke-linecap="square"/><path d="M23.5 111.5l18 18" id="Line-3" stroke="#fff" stroke-linecap="square"/><path id="Rectangle-7" fill="#fff" d="M0 110h3v3h-3z"/><path id="Rectangle-7-Copy" fill="#fff" d="M19 129h2v2h-2z"/><path id="Rectangle-7-Copy-2" fill="#fff" d="M19 110h2v2h-2z"/><path d="M1.5 110.5h19.026" id="Line" stroke="#fff" stroke-linecap="square"/><path d="M20.5 110.5v20" id="Line-2" stroke="#fff" stroke-linecap="square"/><path d="M1.5 111.5l18 18" id="Line-3" stroke="#fff" stroke-linecap="square"/><path id="Rectangle-7" fill="#fff" d="M110 88h3v3h-3z"/><path id="Rectangle-7-Copy" fill="#fff" d="M129 107h2v2h-2z"/><path id="Rectangle-7-Copy-2" fill="#fff" d="M129 88h2v2h-2z"/><path d="M111.5 88.5h19.026" id="Line" stroke="#fff" stroke-linecap="square"/><path d="M130.5 88.5v20" id="Line-2" stroke="#fff" stroke-linecap="square"/><path d="M111.5 89.5l18 18" id="Line-3" stroke="#fff" stroke-linecap="square"/><path id="Rectangle-7" fill="#fff" d="M66 88h3v3h-3z"/><path id="Rectangle-7-Copy" fill="#fff" d="M85 107h2v2h-2z"/><path id="Rectangle-7-Copy-2" fill="#fff" d="M85 88h2v2h-2z"/><path d="M67.5 88.5h19.026" id="Line" stroke="#fff" stroke-linecap="square"/><path d="M86.5 88.5v20" id="Line-2" stroke="#fff" stroke-linecap="square"/><path d="M67.5 89.5l18 18" id="Line-3" stroke="#fff" stroke-linecap="square"/><path id="Rectangle-7" fill="#fff" d="M44 88h3v3h-3z"/><path id="Rectangle-7-Copy" fill="#fff" d="M63 107h2v2h-2z"/><path id="Rectangle-7-Copy-2" fill="#fff" d="M63 88h2v2h-2z"/><path d="M45.5 88.5h19.026" id="Line" stroke="#fff" stroke-linecap="square"/><path d="M64.5 88.5v20" id="Line-2" stroke="#fff" stroke-linecap="square"/><path d="M45.5 89.5l18 18" id="Line-3" stroke="#fff" stroke-linecap="square"/><path id="Rectangle-7" fill="#fff" d="M0 88h3v3h-3z"/><path id="Rectangle-7-Copy" fill="#fff" d="M19 107h2v2h-2z"/><path id="Rectangle-7-Copy-2" fill="#fff" d="M19 88h2v2h-2z"/><path d="M1.5 88.5h19.026" id="Line" stroke="#fff" stroke-linecap="square"/><path d="M20.5 88.5v20" id="Line-2" stroke="#fff" stroke-linecap="square"/><path d="M1.5 89.5l18 18" id="Line-3" stroke="#fff" stroke-linecap="square"/><path id="Rectangle-7" fill="#fff" d="M88 66h3v3h-3z"/><path id="Rectangle-7-Copy" fill="#fff" d="M107 85h2v2h-2z"/><path id="Rectangle-7-Copy-2" fill="#fff" d="M107 66h2v2h-2z"/><path d="M89.5 66.5h19.026" id="Line" stroke="#fff" stroke-linecap="square"/><path d="M108.5 66.5v20" id="Line-2" stroke="#fff" stroke-linecap="square"/><path d="M89.5 67.5l18 18" id="Line-3" stroke="#fff" stroke-linecap="square"/><path id="Rectangle-7" fill="#fff" d="M66 66h3v3h-3z"/><path id="Rectangle-7-Copy" fill="#fff" d="M85 85h2v2h-2z"/><path id="Rectangle-7-Copy-2" fill="#fff" d="M85 66h2v2h-2z"/><path d="M67.5 66.5h19.026" id="Line" stroke="#fff" stroke-linecap="square"/><path d="M86.5 66.5v20" id="Line-2" stroke="#fff" stroke-linecap="square"/><path d="M67.5 67.5l18 18" id="Line-3" stroke="#fff" stroke-linecap="square"/><path id="Rectangle-7" fill="#fff" d="M22 66h3v3h-3z"/><path id="Rectangle-7-Copy" fill="#fff" d="M41 85h2v2h-2z"/><path id="Rectangle-7-Copy-2" fill="#fff" d="M41 66h2v2h-2z"/><path d="M23.5 66.5h19.026" id="Line" stroke="#fff" stroke-linecap="square"/><path d="M42.5 66.5v20" id="Line-2" stroke="#fff" stroke-linecap="square"/><path d="M23.5 67.5l18 18" id="Line-3" stroke="#fff" stroke-linecap="square"/><path id="Rectangle-7" fill="#fff" d="M0 66h3v3h-3z"/><path id="Rectangle-7-Copy" fill="#fff" d="M19 85h2v2h-2z"/><path id="Rectangle-7-Copy-2" fill="#fff" d="M19 66h2v2h-2z"/><path d="M1.5 66.5h19.026" id="Line" stroke="#fff" stroke-linecap="square"/><path d="M20.5 66.5v20" id="Line-2" stroke="#fff" stroke-linecap="square"/><path d="M1.5 67.5l18 18" id="Line-3" stroke="#fff" stroke-linecap="square"/><path id="Rectangle-7" fill="#fff" d="M110 44h3v3h-3z"/><path id="Rectangle-7-Copy" fill="#fff" d="M129 63h2v2h-2z"/><path id="Rectangle-7-Copy-2" fill="#fff" d="M129 44h2v2h-2z"/><path d="M111.5 44.5h19.026" id="Line" stroke="#fff" stroke-linecap="square"/><path d="M130.5 44.5v20" id="Line-2" stroke="#fff" stroke-linecap="square"/><path d="M111.5 45.5l18 18" id="Line-3" stroke="#fff" stroke-linecap="square"/><path id="Rectangle-7" fill="#fff" d="M66 44h3v3h-3z"/><path id="Rectangle-7-Copy" fill="#fff" d="M85 63h2v2h-2z"/><path id="Rectangle-7-Copy-2" fill="#fff" d="M85 44h2v2h-2z"/><path d="M67.5 44.5h19.026" id="Line" stroke="#fff" stroke-linecap="square"/><path d="M86.5 44.5v20" id="Line-2" stroke="#fff" stroke-linecap="square"/><path d="M67.5 45.5l18 18" id="Line-3" stroke="#fff" stroke-linecap="square"/><path id="Rectangle-7" fill="#fff" d="M44 44h3v3h-3z"/><path id="Rectangle-7-Copy" fill="#fff" d="M63 63h2v2h-2z"/><path id="Rectangle-7-Copy-2" fill="#fff" d="M63 44h2v2h-2z"/><path d="M45.5 44.5h19.026" id="Line" stroke="#fff" stroke-linecap="square"/><path d="M64.5 44.5v20" id="Line-2" stroke="#fff" stroke-linecap="square"/><path d="M45.5 45.5l18 18" id="Line-3" stroke="#fff" stroke-linecap="square"/><path id="Rectangle-7" fill="#fff" d="M22 44h3v3h-3z"/><path id="Rectangle-7-Copy" fill="#fff" d="M41 63h2v2h-2z"/><path id="Rectangle-7-Copy-2" fill="#fff" d="M41 44h2v2h-2z"/><path d="M23.5 44.5h19.026" id="Line" stroke="#fff" stroke-linecap="square"/><path d="M42.5 44.5v20" id="Line-2" stroke="#fff" stroke-linecap="square"/><path d="M23.5 45.5l18 18" id="Line-3" stroke="#fff" stroke-linecap="square"/><path id="Rectangle-7" fill="#fff" d="M0 44h3v3h-3z"/><path id="Rectangle-7-Copy" fill="#fff" d="M19 63h2v2h-2z"/><path id="Rectangle-7-Copy-2" fill="#fff" d="M19 44h2v2h-2z"/><path d="M1.5 44.5h19.026" id="Line" stroke="#fff" stroke-linecap="square"/><path d="M20.5 44.5v20" id="Line-2" stroke="#fff" stroke-linecap="square"/><path d="M1.5 45.5l18 18" id="Line-3" stroke="#fff" stroke-linecap="square"/><path id="Rectangle-7" fill="#fff" d="M88 22h3v3h-3z"/><path id="Rectangle-7-Copy" fill="#fff" d="M107 41h2v2h-2z"/><path id="Rectangle-7-Copy-2" fill="#fff" d="M107 22h2v2h-2z"/><path d="M89.5 22.5h19.026" id="Line" stroke="#fff" stroke-linecap="square"/><path d="M108.5 22.5v20" id="Line-2" stroke="#fff" stroke-linecap="square"/><path d="M89.5 23.5l18 18" id="Line-3" stroke="#fff" stroke-linecap="square"/><path id="Rectangle-7" fill="#fff" d="M66 22h3v3h-3z"/><path id="Rectangle-7-Copy" fill="#fff" d="M85 41h2v2h-2z"/><path id="Rectangle-7-Copy-2" fill="#fff" d="M85 22h2v2h-2z"/><path d="M67.5 22.5h19.026" id="Line" stroke="#fff" stroke-linecap="square"/><path d="M86.5 22.5v20" id="Line-2" stroke="#fff" stroke-linecap="square"/><path d="M67.5 23.5l18 18" id="Line-3" stroke="#fff" stroke-linecap="square"/><path id="Rectangle-7" fill="#fff" d="M44 22h3v3h-3z"/><path id="Rectangle-7-Copy" fill="#fff" d="M63 41h2v2h-2z"/><path id="Rectangle-7-Copy-2" fill="#fff" d="M63 22h2v2h-2z"/><path d="M45.5 22.5h19.026" id="Line" stroke="#fff" stroke-linecap="square"/><path d="M64.5 22.5v20" id="Line-2" stroke="#fff" stroke-linecap="square"/><path d="M45.5 23.5l18 18" id="Line-3" stroke="#fff" stroke-linecap="square"/><path fill="#fff" d="M0 22h3v3h-3z"/><path fill="#fff" d="M19 41h2v2h-2z"/><path fill="#fff" d="M19 22h2v2h-2z"/><path d="M1.5 22.5h19.026" stroke="#fff" stroke-linecap="square"/><path d="M20.5 22.5v20" stroke="#fff" stroke-linecap="square"/><path d="M1.5 23.5l18 18" stroke="#fff" stroke-linecap="square"/><path fill="#fff" d="M110 0h3v3h-3zM129 19h2v2h-2zM129 0h2v2h-2z"/><path d="M111.5.5h19.026M130.5.5v20M111.5 1.5l18 18" stroke="#fff" stroke-linecap="square"/><path fill="#fff" d="M66 0h3v3h-3zm19 19h2v2h-2zm0-19h2v2h-2z"/><path d="M67.5.5h19.026m-.026 0v20m-19-19l18 18" stroke="#fff" stroke-linecap="square"/><path fill="#fff" d="M22 0h3v3h-3zm19 19h2v2h-2zm0-19h2v2h-2z"/><path d="M23.5.5h19.026m-.026 0v20m-19-19l18 18" stroke="#fff" stroke-linecap="square"/><path fill="#fff" d="M0 0h3v3h-3zm19 19h2v2h-2zm0-19h2v2h-2z"/><path d="M1.5.5h19.026m-.026 0v20m-19-19l18 18" stroke="#fff" stroke-linecap="square"/></g></svg>