<svg width="64" height="65" viewBox="0 0 64 65" xmlns="http://www.w3.org/2000/svg"><title>weather-prediction</title><desc>Created with Sketch.</desc><g><path d="M53.281 38.248c5.973-.426 10.622-5.394 10.622-11.401 0-6.13-4.845-11.15-10.906-11.432.174-.845.262-1.698.262-2.55 0-7.034-5.722-12.757-12.757-12.757-5.003 0-9.542 2.963-11.598 7.47-1.596-.989-3.411-1.508-5.305-1.508-4.305 0-8.136 2.751-9.55 6.772-.424-.045-.814-.066-1.193-.066-7.034 0-12.757 5.722-12.757 12.757 0 7.034 5.722 12.757 12.757 12.757h40.178c.086.001.17-.014.249-.042zm-.454-1.557h-39.973c-6.152 0-11.157-5.005-11.157-11.157s5.005-11.157 11.157-11.157c.494 0 1.015.043 1.64.134.398.058.78-.189.887-.579 1.017-3.686 4.395-6.262 8.216-6.262 1.884 0 3.677.611 5.182 1.766.202.155.467.204.711.134.246-.072.442-.255.528-.496 1.594-4.406 5.807-7.366 10.482-7.366 6.152 0 11.157 5.005 11.157 11.157 0 1.05-.153 2.106-.455 3.137-.073.248-.021.516.138.718.159.202.413.333.664.306l.199-.012.254-.012c5.428 0 9.845 4.417 9.845 9.845 0 5.223-4.09 9.535-9.31 9.816l-.166.028z" id="Shape" fill-rule="nonzero"/><path d="M16.995 56.007c.252 0 .501-.118.656-.342l9.102-13c.253-.362.166-.86-.197-1.114-.361-.253-.86-.166-1.114.197l-9.102 13c-.253.362-.166.86.197 1.114.14.098.3.145.458.145zM35.057 41.552c-.361-.253-.86-.166-1.114.197l-4.584 6.547c-.253.362-.166.86.197 1.114.139.098.299.145.458.145.252 0 .501-.118.656-.342l4.584-6.547c.254-.362.166-.861-.196-1.114zM11.75 50.072c-.361-.253-.861-.166-1.114.197l-4.584 6.548c-.253.362-.166.86.197 1.114.139.098.299.145.458.145.252 0 .501-.118.656-.342l4.584-6.548c.254-.362.166-.86-.196-1.114zM45.466 51.765c.252 0 .501-.118.656-.342l6.131-8.757c.253-.362.166-.86-.197-1.114-.36-.253-.861-.166-1.114.197l-6.131 8.757c-.253.362-.166.86.197 1.114.14.098.3.145.458.145zM11.29 64.154c.252 0 .501-.118.656-.342l3.254-4.646c.253-.362.166-.86-.197-1.114-.36-.253-.861-.166-1.114.197l-3.254 4.646c-.253.362-.166.86.197 1.114.14.098.3.145.458.145zM24.247 58.058c.252 0 .501-.118.656-.342l2.871-4.1c.253-.362.166-.86-.197-1.114-.361-.254-.861-.166-1.114.197l-2.871 4.1c-.253.362-.166.86.197 1.114.139.098.299.145.458.145z"/><path d="M18.278 44.584c0-2.095-1.705-3.8-3.8-3.8-2.095 0-3.8 1.705-3.8 3.8 0 2.095 1.705 3.8 3.8 3.8 2.095 0 3.8-1.705 3.8-3.8zm-3.8 2.2c-1.214 0-2.2-.986-2.2-2.2 0-1.214.986-2.2 2.2-2.2 1.214 0 2.2.986 2.2 2.2 0 1.214-.987 2.2-2.2 2.2zM45.41 44.584c0-2.095-1.705-3.8-3.8-3.8-2.095 0-3.8 1.705-3.8 3.8 0 2.095 1.705 3.8 3.8 3.8 2.095 0 3.8-1.705 3.8-3.8zm-3.8 2.2c-1.214 0-2.2-.986-2.2-2.2 0-1.214.986-2.2 2.2-2.2 1.214 0 2.2.986 2.2 2.2 0 1.214-.987 2.2-2.2 2.2zM37.166 61.87c2.536 0 4.599-2.063 4.599-4.6 0-2.536-2.063-4.599-4.599-4.599-2.537 0-4.6 2.063-4.6 4.599 0 2.537 2.063 4.6 4.6 4.6zm0-7.599c1.654 0 2.999 1.346 2.999 2.999 0 1.654-1.346 3-2.999 3-1.654 0-3-1.346-3-3s1.346-2.999 3-2.999z" fill-rule="nonzero"/></g></svg>