<svg xmlns="http://www.w3.org/2000/svg" version="1.1" xmlns:xlink="http://www.w3.org/1999/xlink" xmlns:svgjs="http://svgjs.com/svgjs" viewBox="0 0 140 140" width="140" height="140"><g transform="matrix(5.833333333333333,0,0,5.833333333333333,0,0)"><path d="M9,15.292v-.285a3,3,0,0,1,6,0v.285" fill="none" stroke="#000000" stroke-linecap="round" stroke-linejoin="round" stroke-width="1.5"></path><path d="M14.252 5.257L12.002 12.007" fill="none" stroke="#000000" stroke-linecap="round" stroke-linejoin="round" stroke-width="1.5"></path><path d="M6.377,7.507a.375.375,0,1,0,.375.375.375.375,0,0,0-.375-.375h0" fill="none" stroke="#000000" stroke-linecap="round" stroke-linejoin="round" stroke-width="1.5"></path><path d="M19.127,11.257a.375.375,0,1,0,.375.375.375.375,0,0,0-.375-.375h0" fill="none" stroke="#000000" stroke-linecap="round" stroke-linejoin="round" stroke-width="1.5"></path><path d="M17.627,7.507A.375.375,0,1,0,18,7.882a.375.375,0,0,0-.375-.375h0" fill="none" stroke="#000000" stroke-linecap="round" stroke-linejoin="round" stroke-width="1.5"></path><path d="M9.377,4.507a.375.375,0,1,0,.375.375.375.375,0,0,0-.375-.375h0" fill="none" stroke="#000000" stroke-linecap="round" stroke-linejoin="round" stroke-width="1.5"></path><path d="M21.431,18.142a15.753,15.753,0,0,0-18.862,0" fill="none" stroke="#000000" stroke-linecap="round" stroke-linejoin="round" stroke-width="1.5"></path><path d="M0.750 12.007 A11.250 11.250 0 1 0 23.250 12.007 A11.250 11.250 0 1 0 0.750 12.007 Z" fill="none" stroke="#000000" stroke-linecap="round" stroke-linejoin="round" stroke-width="1.5"></path><path d="M4.877,11.257a.375.375,0,1,0,.375.375.375.375,0,0,0-.375-.375" fill="none" stroke="#000000" stroke-linecap="round" stroke-linejoin="round" stroke-width="1.5"></path></g></svg>