<svg xmlns="http://www.w3.org/2000/svg" version="1.1" xmlns:xlink="http://www.w3.org/1999/xlink" xmlns:svgjs="http://svgjs.com/svgjs" viewBox="0 0 140 140" width="140" height="140"><g transform="matrix(5.833333333333333,0,0,5.833333333333333,0,0)"><path d="M21.684,9.39a1.826,1.826,0,0,1-.539.876l-.972.878a1.828,1.828,0,0,0,0,2.714l.972.878a1.828,1.828,0,0,1-1.319,3.183l-1.308-.067A1.828,1.828,0,0,0,16.6,19.771l.067,1.308A1.828,1.828,0,0,1,13.483,22.4l-.878-.972a1.828,1.828,0,0,0-2.714,0l-.878.972A1.828,1.828,0,0,1,5.83,21.079L5.9,19.771a1.828,1.828,0,0,0-1.919-1.919l-1.308.067a1.828,1.828,0,0,1-1.319-3.183l.972-.878a1.828,1.828,0,0,0,0-2.714l-.972-.878A1.828,1.828,0,0,1,2.67,7.083l1.308.067A1.828,1.828,0,0,0,5.9,5.231L5.83,3.923A1.828,1.828,0,0,1,9.013,2.6l.878.972a1.826,1.826,0,0,0,2.714,0l.878-.972A1.829,1.829,0,0,1,15.54,2.14" fill="none" stroke="#000000" stroke-linecap="round" stroke-linejoin="round" stroke-width="1.5"></path><path d="M7.6,10.641l2.513,3.351a1.5,1.5,0,0,0,2.347.066L23.248,1.251" fill="none" stroke="#000000" stroke-linecap="round" stroke-linejoin="round" stroke-width="1.5"></path></g></svg>