<svg xmlns="http://www.w3.org/2000/svg" version="1.1" xmlns:xlink="http://www.w3.org/1999/xlink" xmlns:svgjs="http://svgjs.com/svgjs" viewBox="0 0 140 140" width="140" height="140"><g transform="matrix(5.833333333333333,0,0,5.833333333333333,0,0)"><path d="M22.354,7.593a11.25,11.25,0,1,1-20.708,0" fill="none" stroke="#000000" stroke-linecap="round" stroke-linejoin="round" stroke-width="1.5"></path><path d="M4.06,4.031a11.248,11.248,0,0,1,15.88,0" fill="none" stroke="#000000" stroke-linecap="round" stroke-linejoin="round" stroke-width="1.5"></path><path d="M18.048,15a6.752,6.752,0,0,1-12.1,0" fill="none" stroke="#000000" stroke-linecap="round" stroke-linejoin="round" stroke-width="1.5"></path><path d="M9.782,4.251a2.036,2.036,0,0,0-2.948,0L5.571,5.557,4.308,4.251a2.035,2.035,0,0,0-2.947,0,2.2,2.2,0,0,0,0,3.047l3.762,3.891a.62.62,0,0,0,.9,0L9.782,7.3A2.206,2.206,0,0,0,9.782,4.251Z" fill="none" stroke="#000000" stroke-linecap="round" stroke-linejoin="round" stroke-width="1.5"></path><path d="M22.639,4.251a2.035,2.035,0,0,0-2.947,0L18.429,5.557,17.166,4.251a2.036,2.036,0,0,0-2.948,0,2.206,2.206,0,0,0,0,3.047l3.762,3.891a.62.62,0,0,0,.9,0L22.639,7.3A2.2,2.2,0,0,0,22.639,4.251Z" fill="none" stroke="#000000" stroke-linecap="round" stroke-linejoin="round" stroke-width="1.5"></path></g></svg>