<svg xmlns="http://www.w3.org/2000/svg" version="1.1" xmlns:xlink="http://www.w3.org/1999/xlink" xmlns:svgjs="http://svgjs.com/svgjs" viewBox="0 0 140 140" width="140" height="140"><g transform="matrix(5.833333333333333,0,0,5.833333333333333,0,0)"><path d="M6.055,9.61c0-2.873,2.662-5.2,5.945-5.2s5.945,2.329,5.945,5.2V16.3c0,2.873-2.662,5.2-5.945,5.2s-5.945-2.329-5.945-5.2Z" fill="none" stroke="#000000" stroke-linecap="round" stroke-linejoin="round" stroke-width="1.5"></path><path d="M6.055 9.61L17.945 9.61" fill="none" stroke="#000000" stroke-linecap="round" stroke-linejoin="round" stroke-width="1.5"></path><path d="M6.055 13.325L17.945 13.325" fill="none" stroke="#000000" stroke-linecap="round" stroke-linejoin="round" stroke-width="1.5"></path><path d="M6.115 17.041L17.885 17.041" fill="none" stroke="#000000" stroke-linecap="round" stroke-linejoin="round" stroke-width="1.5"></path><path d="M15.014,5.125c-.391-3.442,2.073-5.291,3.674-3.69" fill="none" stroke="#000000" stroke-linecap="round" stroke-linejoin="round" stroke-width="1.5"></path><path d="M8.986,5.125c.391-3.442-2.073-5.291-3.674-3.69" fill="none" stroke="#000000" stroke-linecap="round" stroke-linejoin="round" stroke-width="1.5"></path><path d="M6.055,10.353A5.188,5.188,0,0,0,3.082,8.867c-2.972,0-2.972,4.458-.743,4.458" fill="none" stroke="#000000" stroke-linecap="round" stroke-linejoin="round" stroke-width="1.5"></path><path d="M6.055,16.3a5.188,5.188,0,0,1-2.973,1.486c-2.972,0-2.972-4.459-.743-4.459" fill="none" stroke="#000000" stroke-linecap="round" stroke-linejoin="round" stroke-width="1.5"></path><path d="M17.945,10.353a5.188,5.188,0,0,1,2.973-1.486c2.972,0,2.972,4.458.743,4.458" fill="none" stroke="#000000" stroke-linecap="round" stroke-linejoin="round" stroke-width="1.5"></path><path d="M17.945,16.3a5.188,5.188,0,0,0,2.973,1.486c2.972,0,2.972-4.459.743-4.459" fill="none" stroke="#000000" stroke-linecap="round" stroke-linejoin="round" stroke-width="1.5"></path><path d="M12 21.5L12 22.986" fill="none" stroke="#000000" stroke-linecap="round" stroke-linejoin="round" stroke-width="1.5"></path></g></svg>