<svg xmlns="http://www.w3.org/2000/svg" version="1.1" xmlns:xlink="http://www.w3.org/1999/xlink" xmlns:svgjs="http://svgjs.com/svgjs" viewBox="0 0 140 140" width="140" height="140"><g transform="matrix(5.833333333333333,0,0,5.833333333333333,0,0)"><path d="M22.8,12a2.808,2.808,0,0,1-2.614,2.8,3.493,3.493,0,0,1-3.095,5.622,1.874,1.874,0,1,1-3.677.592,2.819,2.819,0,0,1-2.82,0,1.874,1.874,0,1,1-3.677-.592A3.493,3.493,0,0,1,3.818,14.8a2.8,2.8,0,0,1,0-5.592,3.493,3.493,0,0,1,3.1-5.622A1.874,1.874,0,1,1,10.59,2.99a2.819,2.819,0,0,1,2.82,0,1.874,1.874,0,1,1,3.677.592A3.493,3.493,0,0,1,20.182,9.2,2.808,2.808,0,0,1,22.8,12Z" fill="none" stroke="#000000" stroke-linecap="round" stroke-linejoin="round" stroke-width="1.5"></path><path d="M12 13.597L12 14.536" fill="none" stroke="#000000" stroke-linecap="round" stroke-linejoin="round" stroke-width="1.5"></path><path d="M12 9.278L12 10.217" fill="none" stroke="#000000" stroke-linecap="round" stroke-linejoin="round" stroke-width="1.5"></path><path d="M12 4.959L12 5.898" fill="none" stroke="#000000" stroke-linecap="round" stroke-linejoin="round" stroke-width="1.5"></path><path d="M12 17.916L12 18.855" fill="none" stroke="#000000" stroke-linecap="round" stroke-linejoin="round" stroke-width="1.5"></path><path d="M6.602 8.339 A1.408 1.408 0 1 0 9.418 8.339 A1.408 1.408 0 1 0 6.602 8.339 Z" fill="none" stroke="#000000" stroke-linecap="round" stroke-linejoin="round" stroke-width="1.5"></path><path d="M14.816 8.245 A1.408 1.408 0 1 0 17.632 8.245 A1.408 1.408 0 1 0 14.816 8.245 Z" fill="none" stroke="#000000" stroke-linecap="round" stroke-linejoin="round" stroke-width="1.5"></path><path d="M5.898 16.694 A1.408 1.408 0 1 0 8.714 16.694 A1.408 1.408 0 1 0 5.898 16.694 Z" fill="none" stroke="#000000" stroke-linecap="round" stroke-linejoin="round" stroke-width="1.5"></path><path d="M14.934 14.816 A1.408 1.408 0 1 0 17.750 14.816 A1.408 1.408 0 1 0 14.934 14.816 Z" fill="none" stroke="#000000" stroke-linecap="round" stroke-linejoin="round" stroke-width="1.5"></path><path d="M6.133,11.625h.938a.938.938,0,0,0,.939-.939V9.747" fill="none" stroke="#000000" stroke-linecap="round" stroke-linejoin="round" stroke-width="1.5"></path></g></svg>