<svg xmlns="http://www.w3.org/2000/svg" version="1.1" xmlns:xlink="http://www.w3.org/1999/xlink" xmlns:svgjs="http://svgjs.com/svgjs" viewBox="0 0 140 140" width="140" height="140"><g transform="matrix(5.833333333333333,0,0,5.833333333333333,0,0)"><path d="M17.250 3.750 A3.000 3.000 0 1 0 23.250 3.750 A3.000 3.000 0 1 0 17.250 3.750 Z" fill="none" stroke="#000000" stroke-linecap="round" stroke-linejoin="round" stroke-width="1.5"></path><path d="M4.814,1.018a.489.489,0,0,1,.872,0L6.7,3.06a.485.485,0,0,0,.365.263l2.273.328a.484.484,0,0,1,.39.325.474.474,0,0,1-.121.489l-1.65,1.6a.476.476,0,0,0-.138.421l.389,2.255a.475.475,0,0,1-.194.468.49.49,0,0,1-.511.034L5.477,8.185a.486.486,0,0,0-.454,0L3,9.243a.49.49,0,0,1-.511-.034.475.475,0,0,1-.194-.468l.389-2.255a.476.476,0,0,0-.138-.421L.9,4.465a.474.474,0,0,1-.121-.489.483.483,0,0,1,.39-.325l2.272-.328A.485.485,0,0,0,3.8,3.06Z" fill="none" stroke="#000000" stroke-linecap="round" stroke-linejoin="round" stroke-width="1.5"></path><path d="M20.25 0.75L9.75 0.75" fill="none" stroke="#000000" stroke-linecap="round" stroke-linejoin="round" stroke-width="1.5"></path><path d="M17.25,3.75v15a4.5,4.5,0,0,1-4.5,4.5H.75a4.5,4.5,0,0,0,4.5-4.5v-6" fill="none" stroke="#000000" stroke-linecap="round" stroke-linejoin="round" stroke-width="1.5"></path><path d="M8.25 17.25L14.25 17.25" fill="none" stroke="#000000" stroke-linecap="round" stroke-linejoin="round" stroke-width="1.5"></path><path d="M8.25 14.25L14.25 14.25" fill="none" stroke="#000000" stroke-linecap="round" stroke-linejoin="round" stroke-width="1.5"></path><path d="M11.25 11.25L14.25 11.25" fill="none" stroke="#000000" stroke-linecap="round" stroke-linejoin="round" stroke-width="1.5"></path><path d="M11.25 8.25L14.25 8.25" fill="none" stroke="#000000" stroke-linecap="round" stroke-linejoin="round" stroke-width="1.5"></path></g></svg>