<svg xmlns="http://www.w3.org/2000/svg" version="1.1" xmlns:xlink="http://www.w3.org/1999/xlink" xmlns:svgjs="http://svgjs.com/svgjs" viewBox="0 0 140 140" width="140" height="140"><g transform="matrix(5.833333333333333,0,0,5.833333333333333,0,0)"><path d="M15.75,18h5.479a1.5,1.5,0,0,1,1.48,1.253l.521,1.5A1.5,1.5,0,0,1,21.75,22.5H16.5" fill="none" stroke="#000000" stroke-linecap="round" stroke-linejoin="round" stroke-width="1.5"></path><path d="M2.812,18V16.9A9.159,9.159,0,0,1,6.25,9.75H2.208A1.459,1.459,0,0,1,1.177,7.26l3.7-3.7V1.5l.364.081A7.429,7.429,0,0,1,11.055,8.84v.91c-3.437,3.438.69,8.27.69,8.27" fill="none" stroke="#000000" stroke-linecap="round" stroke-linejoin="round" stroke-width="1.5"></path><path d="M15.092 9.241L14.045 15" fill="none" stroke="#000000" stroke-linecap="round" stroke-linejoin="round" stroke-width="1.5"></path><path d="M20.25 18L18.658 9.243" fill="none" stroke="#000000" stroke-linecap="round" stroke-linejoin="round" stroke-width="1.5"></path><path d="M13.500 6.375 A3.375 3.375 0 1 0 20.250 6.375 A3.375 3.375 0 1 0 13.500 6.375 Z" fill="none" stroke="#000000" stroke-linecap="round" stroke-linejoin="round" stroke-width="1.5"></path><path d="M13.423,20.526l-.5-1.5A1.5,1.5,0,0,0,11.5,18H2.75a1.5,1.5,0,0,0-1.423,1.026l-.5,1.5A1.5,1.5,0,0,0,2.25,22.5H12a1.5,1.5,0,0,0,1.423-1.974Z" fill="none" stroke="#000000" stroke-linecap="round" stroke-linejoin="round" stroke-width="1.5"></path></g></svg>