<svg xmlns="http://www.w3.org/2000/svg" version="1.1" xmlns:xlink="http://www.w3.org/1999/xlink" xmlns:svgjs="http://svgjs.com/svgjs" viewBox="0 0 140 140" width="140" height="140"><g transform="matrix(5.833333333333333,0,0,5.833333333333333,0,0)"><path d="M20.996 14.983L20.996 8.951" fill="none" stroke="#000000" stroke-linecap="round" stroke-linejoin="round" stroke-width="1.5"></path><path d="M2.996 8.951L2.996 14.984" fill="none" stroke="#000000" stroke-linecap="round" stroke-linejoin="round" stroke-width="1.5"></path><path d="M10.198 3.161L4.618 6.194" fill="none" stroke="#000000" stroke-linecap="round" stroke-linejoin="round" stroke-width="1.5"></path><path d="M19.348 6.18L13.793 3.161" fill="none" stroke="#000000" stroke-linecap="round" stroke-linejoin="round" stroke-width="1.5"></path><path d="M10.121 2.625 A1.875 1.875 0 1 0 13.871 2.625 A1.875 1.875 0 1 0 10.121 2.625 Z" fill="none" stroke="#000000" stroke-linecap="round" stroke-linejoin="round" stroke-width="1.5"></path><path d="M10.216 20.783L4.618 17.74" fill="none" stroke="#000000" stroke-linecap="round" stroke-linejoin="round" stroke-width="1.5"></path><path d="M19.348 17.754L13.775 20.783" fill="none" stroke="#000000" stroke-linecap="round" stroke-linejoin="round" stroke-width="1.5"></path><path d="M10.121 21.375 A1.875 1.875 0 1 0 13.871 21.375 A1.875 1.875 0 1 0 10.121 21.375 Z" fill="none" stroke="#000000" stroke-linecap="round" stroke-linejoin="round" stroke-width="1.5"></path><path d="M1.088 7.076 A1.875 1.875 0 1 0 4.838 7.076 A1.875 1.875 0 1 0 1.088 7.076 Z" fill="none" stroke="#000000" stroke-linecap="round" stroke-linejoin="round" stroke-width="1.5"></path><path d="M1.088 16.858 A1.875 1.875 0 1 0 4.838 16.858 A1.875 1.875 0 1 0 1.088 16.858 Z" fill="none" stroke="#000000" stroke-linecap="round" stroke-linejoin="round" stroke-width="1.5"></path><path d="M19.121 7.076 A1.875 1.875 0 1 0 22.871 7.076 A1.875 1.875 0 1 0 19.121 7.076 Z" fill="none" stroke="#000000" stroke-linecap="round" stroke-linejoin="round" stroke-width="1.5"></path><path d="M19.121 16.858 A1.875 1.875 0 1 0 22.871 16.858 A1.875 1.875 0 1 0 19.121 16.858 Z" fill="none" stroke="#000000" stroke-linecap="round" stroke-linejoin="round" stroke-width="1.5"></path><path d="M10.137,14.186A2.225,2.225,0,0,0,12,15.061c1.138,0,2.062-.692,2.062-1.547S13.134,11.968,12,11.968s-2.063-.693-2.063-1.548S10.857,8.873,12,8.873a2.224,2.224,0,0,1,1.858.875" fill="none" stroke="#000000" stroke-linecap="round" stroke-linejoin="round" stroke-width="1.5"></path><path d="M11.996 15.061L11.996 16.092" fill="none" stroke="#000000" stroke-linecap="round" stroke-linejoin="round" stroke-width="1.5"></path><path d="M11.996 7.842L11.996 8.873" fill="none" stroke="#000000" stroke-linecap="round" stroke-linejoin="round" stroke-width="1.5"></path></g></svg>