<svg xmlns="http://www.w3.org/2000/svg" version="1.1" xmlns:xlink="http://www.w3.org/1999/xlink" xmlns:svgjs="http://svgjs.com/svgjs" viewBox="0 0 140 140" width="140" height="140"><g transform="matrix(5.833333333333333,0,0,5.833333333333333,0,0)"><path d="M15.75,23.238a3,3,0,0,0-3-3H9a3,3,0,0,0-3-3H.75v6Z" fill="none" stroke="#000000" stroke-linecap="round" stroke-linejoin="round" stroke-width="1.5"></path><path d="M6 20.238L9 20.238" fill="none" stroke="#000000" stroke-linecap="round" stroke-linejoin="round" stroke-width="1.5"></path><path d="M11.25,17.238H21a.75.75,0,0,0,.75-.75V9.738" fill="none" stroke="#000000" stroke-linecap="round" stroke-linejoin="round" stroke-width="1.5"></path><path d="M8.25 9.738L8.25 14.238" fill="none" stroke="#000000" stroke-linecap="round" stroke-linejoin="round" stroke-width="1.5"></path><path d="M6.750 5.988 L23.250 5.988 L23.250 9.738 L6.750 9.738 Z" fill="none" stroke="#000000" stroke-linecap="round" stroke-linejoin="round" stroke-width="1.5"></path><path d="M15 17.238L15 5.988" fill="none" stroke="#000000" stroke-linecap="round" stroke-linejoin="round" stroke-width="1.5"></path><path d="M19.265,3.867a11.855,11.855,0,0,1-4.242,2.121,11.855,11.855,0,0,1,2.121-4.242C18.463.428,19.21.63,19.8,1.216S20.584,2.549,19.265,3.867Z" fill="none" stroke="#000000" stroke-linecap="round" stroke-linejoin="round" stroke-width="1.5"></path><path d="M10.734,3.867a11.863,11.863,0,0,0,4.242,2.121,11.837,11.837,0,0,0-2.121-4.242C11.537.428,10.79.63,10.2,1.216S9.416,2.549,10.734,3.867Z" fill="none" stroke="#000000" stroke-linecap="round" stroke-linejoin="round" stroke-width="1.5"></path></g></svg>