<svg xmlns="http://www.w3.org/2000/svg" version="1.1" xmlns:xlink="http://www.w3.org/1999/xlink" xmlns:svgjs="http://svgjs.com/svgjs" viewBox="0 0 140 140" width="140" height="140"><g transform="matrix(5.833333333333333,0,0,5.833333333333333,0,0)"><path d="M23.25,12a3,3,0,0,0-2.183-2.886,2.249,2.249,0,0,0-1.383-3.856,2.29,2.29,0,0,0-.411-.363,3,3,0,0,0-5.461-2.478,2.249,2.249,0,0,0-3.624,0A3,3,0,0,0,4.727,4.895a2.29,2.29,0,0,0-.411.363A2.249,2.249,0,0,0,2.933,9.114a3,3,0,0,0,0,5.773,2.248,2.248,0,0,0,1.383,3.855,2.29,2.29,0,0,0,.411.363,3,3,0,0,0,5.461,2.478,2.249,2.249,0,0,0,3.624,0,3,3,0,0,0,5.461-2.478,2.29,2.29,0,0,0,.411-.363,2.248,2.248,0,0,0,1.383-3.855A3,3,0,0,0,23.25,12Z" fill="none" stroke="#000000" stroke-linecap="round" stroke-linejoin="round" stroke-width="1.5"></path><path d="M7.500 7.500 L16.500 7.500 L16.500 16.500 L7.500 16.500 Z" fill="none" stroke="#000000" stroke-linecap="round" stroke-linejoin="round" stroke-width="1.5"></path><path d="M9.75 7.5L9.75 6" fill="none" stroke="#000000" stroke-linecap="round" stroke-linejoin="round" stroke-width="1.5"></path><path d="M14.25 7.5L14.25 6" fill="none" stroke="#000000" stroke-linecap="round" stroke-linejoin="round" stroke-width="1.5"></path><path d="M9.75 18L9.75 16.5" fill="none" stroke="#000000" stroke-linecap="round" stroke-linejoin="round" stroke-width="1.5"></path><path d="M14.25 18L14.25 16.5" fill="none" stroke="#000000" stroke-linecap="round" stroke-linejoin="round" stroke-width="1.5"></path><path d="M16.5 9.75L18 9.75" fill="none" stroke="#000000" stroke-linecap="round" stroke-linejoin="round" stroke-width="1.5"></path><path d="M16.5 14.25L18 14.25" fill="none" stroke="#000000" stroke-linecap="round" stroke-linejoin="round" stroke-width="1.5"></path><path d="M6 9.75L7.5 9.75" fill="none" stroke="#000000" stroke-linecap="round" stroke-linejoin="round" stroke-width="1.5"></path><path d="M6 14.25L7.5 14.25" fill="none" stroke="#000000" stroke-linecap="round" stroke-linejoin="round" stroke-width="1.5"></path><path d="M10.5 10.5H13.5V13.5H10.5z" fill="none" stroke="#000000" stroke-linecap="round" stroke-linejoin="round" stroke-width="1.5"></path></g></svg>