<svg xmlns="http://www.w3.org/2000/svg" version="1.1" xmlns:xlink="http://www.w3.org/1999/xlink" xmlns:svgjs="http://svgjs.com/svgjs" viewBox="0 0 140 140" width="140" height="140"><g transform="matrix(5.833333333333333,0,0,5.833333333333333,0,0)"><path d="M21,18.55a20.2,20.2,0,0,0-9-1.8,20.2,20.2,0,0,0-9,1.8" fill="none" stroke="#000000" stroke-linecap="round" stroke-linejoin="round" stroke-width="1.5"></path><path d="M15.752 8.477L14.985 16.91" fill="none" stroke="#000000" stroke-linecap="round" stroke-linejoin="round" stroke-width="1.5"></path><path d="M8.906 16.922L13.852 7.855" fill="none" stroke="#000000" stroke-linecap="round" stroke-linejoin="round" stroke-width="1.5"></path><path d="M13.852,7.855l8.276,2.709A.75.75,0,0,0,23.1,9.7a4.73,4.73,0,0,0-3.6-4.016,6.814,6.814,0,0,0-2.4-.082" fill="none" stroke="#000000" stroke-linecap="round" stroke-linejoin="round" stroke-width="1.5"></path><path d="M13.852,7.855,6.317,9.9a.75.75,0,0,1-.934-.873A4.756,4.756,0,0,1,9,4.937a6.347,6.347,0,0,1,3.112.079" fill="none" stroke="#000000" stroke-linecap="round" stroke-linejoin="round" stroke-width="1.5"></path><path d="M18.7,5.567l3.1-3.116a.747.747,0,0,0-.21-1.211,4.871,4.871,0,0,0-5.089.51,3.7,3.7,0,0,0-1.282,2.01" fill="none" stroke="#000000" stroke-linecap="round" stroke-linejoin="round" stroke-width="1.5"></path><path d="M10.3,4.784,8.348,2.668A.747.747,0,0,1,8.74,1.426a13.166,13.166,0,0,1,2.51-.239A5.084,5.084,0,0,1,15.218,3.76" fill="none" stroke="#000000" stroke-linecap="round" stroke-linejoin="round" stroke-width="1.5"></path><path d="M.75,23.25a5.511,5.511,0,0,0,4.5-1.5,4.547,4.547,0,0,0,6.75,0,4.547,4.547,0,0,0,6.75,0,5.511,5.511,0,0,0,4.5,1.5" fill="none" stroke="#000000" stroke-linecap="round" stroke-linejoin="round" stroke-width="1.5"></path></g></svg>