<svg xmlns="http://www.w3.org/2000/svg" version="1.1" xmlns:xlink="http://www.w3.org/1999/xlink" xmlns:svgjs="http://svgjs.com/svgjs" viewBox="0 0 140 140" width="140" height="140"><g transform="matrix(5.833333333333333,0,0,5.833333333333333,0,0)"><path d="M9.767,9.662C4.624,9.248.75,7.43.75,5.251.75,2.765,5.787.751,12,.751s11.25,2.014,11.25,4.5c0,1.181-1.138,2.256-3,3.059" fill="none" stroke="#000000" stroke-linecap="round" stroke-linejoin="round" stroke-width="1.5"></path><path d="M23.25 11.251L23.25 5.251" fill="none" stroke="#000000" stroke-linecap="round" stroke-linejoin="round" stroke-width="1.5"></path><path d="M.75,5.251v6c0,1.85,2.792,3.439,6.782,4.131" fill="none" stroke="#000000" stroke-linecap="round" stroke-linejoin="round" stroke-width="1.5"></path><path d="M.75,11.251v6c0,2.179,3.874,4,9.017,4.411" fill="none" stroke="#000000" stroke-linecap="round" stroke-linejoin="round" stroke-width="1.5"></path><path d="M10.500 15.751 A5.250 5.250 0 1 0 21.000 15.751 A5.250 5.250 0 1 0 10.500 15.751 Z" fill="none" stroke="#000000" stroke-linecap="round" stroke-linejoin="round" stroke-width="1.5"></path><path d="M23.25 23.251L19.462 19.463" fill="none" stroke="#000000" stroke-linecap="round" stroke-linejoin="round" stroke-width="1.5"></path></g></svg>