<svg xmlns="http://www.w3.org/2000/svg" version="1.1" xmlns:xlink="http://www.w3.org/1999/xlink" xmlns:svgjs="http://svgjs.com/svgjs" viewBox="0 0 140 140" width="140" height="140"><g transform="matrix(5.833333333333333,0,0,5.833333333333333,0,0)"><path d="M21.75,8.25h-12l-4.5,4.5V8.25h-3a1.5,1.5,0,0,1-1.5-1.5V2.25A1.5,1.5,0,0,1,2.25.75h19.5a1.5,1.5,0,0,1,1.5,1.5v4.5A1.5,1.5,0,0,1,21.75,8.25Z" fill="none" stroke="#000000" stroke-linecap="round" stroke-linejoin="round" stroke-width="1.5"></path><path d="M2.25,11.25a1.5,1.5,0,0,0-1.5,1.5v4.5a1.5,1.5,0,0,0,1.5,1.5h12l4.5,4.5v-4.5h3a1.5,1.5,0,0,0,1.5-1.5v-4.5a1.5,1.5,0,0,0-1.5-1.5H11.25" fill="none" stroke="#000000" stroke-linecap="round" stroke-linejoin="round" stroke-width="1.5"></path></g></svg>