<svg xmlns="http://www.w3.org/2000/svg" version="1.1" xmlns:xlink="http://www.w3.org/1999/xlink" xmlns:svgjs="http://svgjs.com/svgjs" viewBox="0 0 140 140" width="140" height="140"><g transform="matrix(5.833333333333333,0,0,5.833333333333333,0,0)"><path d="M23.25,15a6,6,0,0,1-6,6H15.468a1.9,1.9,0,0,1-1.652-.974L12.7,16.237a.749.749,0,0,0-1.4,0l-1.115,3.789A1.9,1.9,0,0,1,8.532,21H6.75a6,6,0,0,1-6-6V13.5a3,3,0,0,1,3-3h16.5a3,3,0,0,1,3,3Z" fill="none" stroke="#000000" stroke-linecap="round" stroke-linejoin="round" stroke-width="1.5"></path><path d="M1.661,11.349l2.96-6.987A2.347,2.347,0,0,1,6.75,3,2.25,2.25,0,0,1,9,5.25" fill="none" stroke="#000000" stroke-linecap="round" stroke-linejoin="round" stroke-width="1.5"></path><path d="M22.339,11.349l-2.96-6.987A2.347,2.347,0,0,0,17.25,3,2.25,2.25,0,0,0,15,5.25" fill="none" stroke="#000000" stroke-linecap="round" stroke-linejoin="round" stroke-width="1.5"></path></g></svg>