<svg xmlns="http://www.w3.org/2000/svg" version="1.1" xmlns:xlink="http://www.w3.org/1999/xlink" xmlns:svgjs="http://svgjs.com/svgjs" viewBox="0 0 140 140" width="140" height="140"><g transform="matrix(5.833333333333333,0,0,5.833333333333333,0,0)"><path d="M18.817,3.961A8.84,8.84,0,0,0,3.161,9.589V12" fill="none" stroke="#000000" stroke-linecap="round" stroke-linejoin="round" stroke-width="1.5"></path><path d="M5.57,15.654A8.839,8.839,0,0,0,20.839,9.589V7.982" fill="none" stroke="#000000" stroke-linecap="round" stroke-linejoin="round" stroke-width="1.5"></path><path d="M0.75 9.589L3.161 12 5.571 9.589" fill="none" stroke="#000000" stroke-linecap="round" stroke-linejoin="round" stroke-width="1.5"></path><path d="M23.25 10.393L20.839 7.982 18.429 10.393" fill="none" stroke="#000000" stroke-linecap="round" stroke-linejoin="round" stroke-width="1.5"></path><path d="M11.564,5.219a.489.489,0,0,1,.872,0l1.012,2.042a.484.484,0,0,0,.366.262l2.271.329a.482.482,0,0,1,.391.324.476.476,0,0,1-.121.49l-1.65,1.6a.475.475,0,0,0-.138.421l.389,2.255a.473.473,0,0,1-.194.467.491.491,0,0,1-.511.035l-2.024-1.059a.492.492,0,0,0-.454,0L9.749,13.444a.491.491,0,0,1-.511-.035.473.473,0,0,1-.194-.467l.389-2.255a.475.475,0,0,0-.138-.421l-1.65-1.6a.476.476,0,0,1-.121-.49.482.482,0,0,1,.391-.324l2.271-.329a.484.484,0,0,0,.366-.262Z" fill="none" stroke="#000000" stroke-linecap="round" stroke-linejoin="round" stroke-width="1.5"></path><path d="M23.25 23.25L17.357 16.62" fill="none" stroke="#000000" stroke-linecap="round" stroke-linejoin="round" stroke-width="1.5"></path></g></svg>