<svg xmlns="http://www.w3.org/2000/svg" version="1.1" xmlns:xlink="http://www.w3.org/1999/xlink" xmlns:svgjs="http://svgjs.com/svgjs" viewBox="0 0 140 140" width="140" height="140"><g transform="matrix(5.833333333333333,0,0,5.833333333333333,0,0)"><path d="M4.5,18H3.75a3,3,0,0,1-3-3V12a3,3,0,0,1,3-3H4.5a.75.75,0,0,1,.75.75v7.5A.75.75,0,0,1,4.5,18Z" fill="none" stroke="#000000" stroke-linecap="round" stroke-linejoin="round" stroke-width="1.5"></path><path d="M20.25,18H19.5a.75.75,0,0,1-.75-.75V9.75A.75.75,0,0,1,19.5,9h.75a3,3,0,0,1,3,3v3A3,3,0,0,1,20.25,18Z" fill="none" stroke="#000000" stroke-linecap="round" stroke-linejoin="round" stroke-width="1.5"></path><path d="M3.75,9A8.25,8.25,0,0,1,12,.75h0A8.25,8.25,0,0,1,20.25,9" fill="none" stroke="#000000" stroke-linecap="round" stroke-linejoin="round" stroke-width="1.5"></path><path d="M15,21.75h2.25a3,3,0,0,0,3-3h0V18" fill="none" stroke="#000000" stroke-linecap="round" stroke-linejoin="round" stroke-width="1.5"></path><path d="M13.5,23.25H12a1.5,1.5,0,0,1-1.5-1.5h0a1.5,1.5,0,0,1,1.5-1.5h1.5a1.5,1.5,0,0,1,1.5,1.5h0A1.5,1.5,0,0,1,13.5,23.25Z" fill="none" stroke="#000000" stroke-linecap="round" stroke-linejoin="round" stroke-width="1.5"></path><path d="M9,15.442a4.454,4.454,0,0,0,6,0" fill="none" stroke="#000000" stroke-linecap="round" stroke-linejoin="round" stroke-width="1.5"></path><path d="M9 9.985L9 11.297" fill="none" stroke="#000000" stroke-linecap="round" stroke-linejoin="round" stroke-width="1.5"></path><path d="M15 9.985L15 11.297" fill="none" stroke="#000000" stroke-linecap="round" stroke-linejoin="round" stroke-width="1.5"></path></g></svg>