<svg xmlns="http://www.w3.org/2000/svg" version="1.1" xmlns:xlink="http://www.w3.org/1999/xlink" xmlns:svgjs="http://svgjs.com/svgjs" viewBox="0 0 140 140" width="140" height="140"><g transform="matrix(5.833333333333333,0,0,5.833333333333333,0,0)"><path d="M18.75,6A.75.75,0,0,0,18,5.25H14.25V1.5A.75.75,0,0,0,13.5.75h-3a.75.75,0,0,0-.75.75V5.25H6A.75.75,0,0,0,5.25,6V9A.75.75,0,0,0,6,9.75H9.75V13.5a.75.75,0,0,0,.75.75h3a.75.75,0,0,0,.75-.75V9.75H18A.75.75,0,0,0,18.75,9Z" fill="none" stroke="#000000" stroke-linecap="round" stroke-linejoin="round" stroke-width="1.5"></path><path d="M3.75,23.25,1.736,20.869A4.5,4.5,0,0,1,.75,18.058V12.887a1.5,1.5,0,0,1,1.5-1.5h0a1.5,1.5,0,0,1,1.5,1.5v3.75" fill="none" stroke="#000000" stroke-linecap="round" stroke-linejoin="round" stroke-width="1.5"></path><path d="M8.25,23.25v-3a4.5,4.5,0,0,0-.757-2.5L6.351,16.04A1.4,1.4,0,0,0,4.374,15.6h0A1.4,1.4,0,0,0,3.9,17.387l1.352,2.25" fill="none" stroke="#000000" stroke-linecap="round" stroke-linejoin="round" stroke-width="1.5"></path><path d="M20.25,23.25l2.014-2.381a4.5,4.5,0,0,0,.986-2.811V12.887a1.5,1.5,0,0,0-1.5-1.5h0a1.5,1.5,0,0,0-1.5,1.5v3.75" fill="none" stroke="#000000" stroke-linecap="round" stroke-linejoin="round" stroke-width="1.5"></path><path d="M15.75,23.25v-3a4.5,4.5,0,0,1,.757-2.5l1.142-1.712a1.4,1.4,0,0,1,1.977-.444h0a1.4,1.4,0,0,1,.476,1.791l-1.352,2.25" fill="none" stroke="#000000" stroke-linecap="round" stroke-linejoin="round" stroke-width="1.5"></path></g></svg>