<svg xmlns="http://www.w3.org/2000/svg" version="1.1" xmlns:xlink="http://www.w3.org/1999/xlink" xmlns:svgjs="http://svgjs.com/svgjs" viewBox="0 0 140 140" width="140" height="140"><g transform="matrix(5.833333333333333,0,0,5.833333333333333,0,0)"><path d="M0.75 10.5L0.75 23.25" fill="none" stroke="#000000" stroke-linecap="round" stroke-linejoin="round" stroke-width="1.5"></path><path d="M3.750 14.250 A2.250 2.250 0 1 0 8.250 14.250 A2.250 2.250 0 1 0 3.750 14.250 Z" fill="none" stroke="#000000" stroke-linecap="round" stroke-linejoin="round" stroke-width="1.5"></path><path d="M23.25 14.25L23.25 23.25" fill="none" stroke="#000000" stroke-linecap="round" stroke-linejoin="round" stroke-width="1.5"></path><path d="M23.25 19.5L0.75 19.5" fill="none" stroke="#000000" stroke-linecap="round" stroke-linejoin="round" stroke-width="1.5"></path><path d="M11.25,16.5V12.961a.749.749,0,0,1,.932-.728L18.067,13.7a2.883,2.883,0,0,1,2.183,2.8Z" fill="none" stroke="#000000" stroke-linecap="round" stroke-linejoin="round" stroke-width="1.5"></path><path d="M23.191,6.266a1.9,1.9,0,0,0-2.381-1.38l-1.631.464L18.77,3.705a1.9,1.9,0,0,0-2.381-1.38,2.061,2.061,0,0,0-1.426,2.462l1.218,4.9a.579.579,0,0,0,.725.419l4.859-1.381A2.061,2.061,0,0,0,23.191,6.266Z" fill="none" stroke="#000000" stroke-linecap="round" stroke-linejoin="round" stroke-width="1.5"></path><path d="M10.313,1.058a1.9,1.9,0,0,0-2.678.632L6.768,3.148,5.34,2.232a1.9,1.9,0,0,0-2.677.633,2.059,2.059,0,0,0,.654,2.768L7.569,8.36a.579.579,0,0,0,.815-.193l2.582-4.341A2.059,2.059,0,0,0,10.313,1.058Z" fill="none" stroke="#000000" stroke-linecap="round" stroke-linejoin="round" stroke-width="1.5"></path></g></svg>