<svg xmlns="http://www.w3.org/2000/svg" version="1.1" xmlns:xlink="http://www.w3.org/1999/xlink" xmlns:svgjs="http://svgjs.com/svgjs" viewBox="0 0 140 140" width="140" height="140"><g transform="matrix(5.833333333333333,0,0,5.833333333333333,0,0)"><path d="M21.75,5.25H18.762a4.363,4.363,0,0,1-3.34-1.421,4.5,4.5,0,0,0-6.844,0A4.362,4.362,0,0,1,5.238,5.25H2.25a1.5,1.5,0,0,0,0,3H5.238a4.362,4.362,0,0,1,3.34,1.421,4.5,4.5,0,0,0,6.844,0,4.363,4.363,0,0,1,3.34-1.421H21.75a1.5,1.5,0,0,0,0-3Z" fill="none" stroke="#000000" stroke-linecap="round" stroke-linejoin="round" stroke-width="1.5"></path><path d="M0.75 0.75L2.25 0.75" fill="none" stroke="#000000" stroke-linecap="round" stroke-linejoin="round" stroke-width="1.5"></path><path d="M5.25 0.75L6.75 0.75" fill="none" stroke="#000000" stroke-linecap="round" stroke-linejoin="round" stroke-width="1.5"></path><path d="M3.75 2.25L3.75 5.25" fill="none" stroke="#000000" stroke-linecap="round" stroke-linejoin="round" stroke-width="1.5"></path><path d="M17.25 0.75L18.75 0.75" fill="none" stroke="#000000" stroke-linecap="round" stroke-linejoin="round" stroke-width="1.5"></path><path d="M21.75 0.75L23.25 0.75" fill="none" stroke="#000000" stroke-linecap="round" stroke-linejoin="round" stroke-width="1.5"></path><path d="M20.25 2.25L20.25 5.25" fill="none" stroke="#000000" stroke-linecap="round" stroke-linejoin="round" stroke-width="1.5"></path><path d="M6.75,11.25a8.88,8.88,0,0,0-4.3,5.641A1.515,1.515,0,0,0,3.914,18.75H6.75" fill="none" stroke="#000000" stroke-linecap="round" stroke-linejoin="round" stroke-width="1.5"></path><path d="M17.25,11.25a8.88,8.88,0,0,1,4.3,5.641,1.515,1.515,0,0,1-1.464,1.859H17.25" fill="none" stroke="#000000" stroke-linecap="round" stroke-linejoin="round" stroke-width="1.5"></path><path d="M6.75 15.75H17.25V23.25H6.75z" fill="none" stroke="#000000" stroke-linecap="round" stroke-linejoin="round" stroke-width="1.5"></path><path d="M6.75 17.25L12 20.25 17.25 17.25" fill="none" stroke="#000000" stroke-linecap="round" stroke-linejoin="round" stroke-width="1.5"></path></g></svg>