<svg xmlns="http://www.w3.org/2000/svg" version="1.1" xmlns:xlink="http://www.w3.org/1999/xlink" xmlns:svgjs="http://svgjs.com/svgjs" viewBox="0 0 140 140" width="140" height="140"><g transform="matrix(5.833333333333333,0,0,5.833333333333333,0,0)"><path d="M0.750 0.750 L23.250 0.750 L23.250 23.250 L0.750 23.250 Z" fill="none" stroke="#000000" stroke-linecap="round" stroke-linejoin="round" stroke-width="1.5"></path><path d="M8.250 7.500 A3.750 3.750 0 1 0 15.750 7.500 A3.750 3.750 0 1 0 8.250 7.500 Z" fill="none" stroke="#000000" stroke-linecap="round" stroke-linejoin="round" stroke-width="1.5"></path><path d="M8.25 0.75L8.25 16.5" fill="none" stroke="#000000" stroke-linecap="round" stroke-linejoin="round" stroke-width="1.5"></path><path d="M15.75 0.75L15.75 16.5" fill="none" stroke="#000000" stroke-linecap="round" stroke-linejoin="round" stroke-width="1.5"></path><path d="M3.75 0.75L3.75 23.25" fill="none" stroke="#000000" stroke-linecap="round" stroke-linejoin="round" stroke-width="1.5"></path><path d="M20.25 0.75L20.25 23.25" fill="none" stroke="#000000" stroke-linecap="round" stroke-linejoin="round" stroke-width="1.5"></path><path d="M15.75,18.75a2.25,2.25,0,0,0,0,4.5h.75a3.75,3.75,0,0,0,3.75-3.75v-.75a4.5,4.5,0,0,0-4.5-4.5H8.25a4.5,4.5,0,0,0-4.5,4.5v.75A3.75,3.75,0,0,0,7.5,23.25h.75a2.25,2.25,0,0,0,0-4.5" fill="none" stroke="#000000" stroke-linecap="round" stroke-linejoin="round" stroke-width="1.5"></path></g></svg>