<svg xmlns="http://www.w3.org/2000/svg" version="1.1" xmlns:xlink="http://www.w3.org/1999/xlink" xmlns:svgjs="http://svgjs.com/svgjs" viewBox="0 0 140 140" width="140" height="140"><g transform="matrix(5.833333333333333,0,0,5.833333333333333,0,0)"><path d="M4.3,17.017A9.752,9.752,0,0,1,4.914,1.5" fill="none" stroke="#000000" stroke-linecap="round" stroke-linejoin="round" stroke-width="1.5"></path><path d="M7.555,14.573a6.751,6.751,0,0,1-.214-9.965" fill="none" stroke="#000000" stroke-linecap="round" stroke-linejoin="round" stroke-width="1.5"></path><path d="M23.149,7.066a6.75,6.75,0,1,0-10.564,6.66A3.83,3.83,0,0,1,14.3,17.36a4.494,4.494,0,0,0,3.643,5.069A4.5,4.5,0,0,0,23.25,18" fill="none" stroke="#000000" stroke-linecap="round" stroke-linejoin="round" stroke-width="1.5"></path><path d="M20.058,8.42A2.75,2.75,0,1,0,14.6,9.1" fill="none" stroke="#000000" stroke-linecap="round" stroke-linejoin="round" stroke-width="1.5"></path></g></svg>