<svg xmlns="http://www.w3.org/2000/svg" version="1.1" xmlns:xlink="http://www.w3.org/1999/xlink" xmlns:svgjs="http://svgjs.com/svgjs" viewBox="0 0 140 140" width="140" height="140"><g transform="matrix(5.833333333333333,0,0,5.833333333333333,0,0)"><path d="M11.249,2.25a7.5,7.5,0,1,1,0,12" fill="none" stroke="#000000" stroke-linecap="round" stroke-linejoin="round" stroke-width="1.5"></path><path d="M14.257,3.74l1.575,1.065A1.5,1.5,0,0,1,16.5,6.053V7.77a1.5,1.5,0,0,1-1.206,1.471L12.75,9.75l.544,2.176" fill="none" stroke="#000000" stroke-linecap="round" stroke-linejoin="round" stroke-width="1.5"></path><path d="M23.212,9.013l-3.206,1.068a1.5,1.5,0,0,0-1,1.717l.592,2.888" fill="none" stroke="#000000" stroke-linecap="round" stroke-linejoin="round" stroke-width="1.5"></path><path d="M8.25,15.418V3.75a3,3,0,0,0-6,0V15.418a4.493,4.493,0,1,0,7.5,3.332A4.47,4.47,0,0,0,8.25,15.418Z" fill="none" stroke="#000000" stroke-linecap="round" stroke-linejoin="round" stroke-width="1.5"></path><path d="M5.25 5.25L5.25 17.25" fill="none" stroke="#000000" stroke-linecap="round" stroke-linejoin="round" stroke-width="1.5"></path><path d="M3.750 18.750 A1.500 1.500 0 1 0 6.750 18.750 A1.500 1.500 0 1 0 3.750 18.750 Z" fill="none" stroke="#000000" stroke-linecap="round" stroke-linejoin="round" stroke-width="1.5"></path></g></svg>