<svg xmlns="http://www.w3.org/2000/svg" version="1.1" xmlns:xlink="http://www.w3.org/1999/xlink" xmlns:svgjs="http://svgjs.com/svgjs" viewBox="0 0 140 140" width="140" height="140"><g transform="matrix(5.833333333333333,0,0,5.833333333333333,0,0)"><path d="M21.75,18v3a1.5,1.5,0,0,1-1.5,1.5H3A2.25,2.25,0,0,1,.75,20.25V3.75A2.25,2.25,0,0,1,3,1.5H18.75A1.5,1.5,0,0,1,20.25,3V5.25" fill="none" stroke="#000000" stroke-linecap="round" stroke-linejoin="round" stroke-width="1.5"></path><path d="M21.75,18a1.5,1.5,0,0,0,1.5-1.5V12a1.5,1.5,0,0,0-1.5-1.5H18A3.75,3.75,0,0,0,18,18Z" fill="none" stroke="#000000" stroke-linecap="round" stroke-linejoin="round" stroke-width="1.5"></path><path d="M18,13.875a.375.375,0,1,1-.375.375A.375.375,0,0,1,18,13.875" fill="none" stroke="#000000" stroke-linecap="round" stroke-linejoin="round" stroke-width="1.5"></path><path d="M21.75,10.5V6.75a1.5,1.5,0,0,0-1.5-1.5H5.625a1.756,1.756,0,0,1-1.614-.895" fill="none" stroke="#000000" stroke-linecap="round" stroke-linejoin="round" stroke-width="1.5"></path></g></svg>