<svg xmlns="http://www.w3.org/2000/svg" version="1.1" xmlns:xlink="http://www.w3.org/1999/xlink" xmlns:svgjs="http://svgjs.com/svgjs" viewBox="0 0 140 140" width="140" height="140"><g transform="matrix(5.833333333333333,0,0,5.833333333333333,0,0)"><path d="M8.75,23.25v-3H7.25a3,3,0,0,1-3-3v-3H2.35a.75.75,0,0,1-.7-1.02C2.322,11.488,2.923,9.8,3.576,8.25" fill="none" stroke="#000000" stroke-linecap="round" stroke-linejoin="round" stroke-width="1.5"></path><path d="M22.062,8.25a9.362,9.362,0,0,1-2.812,8.735V23.25" fill="none" stroke="#000000" stroke-linecap="round" stroke-linejoin="round" stroke-width="1.5"></path><path d="M10.250 10.500 A2.250 2.250 0 1 0 14.750 10.500 A2.250 2.250 0 1 0 10.250 10.500 Z" fill="none" stroke="#000000" stroke-linecap="round" stroke-linejoin="round" stroke-width="1.5"></path><path d="M16.250 6.750 A1.500 1.500 0 1 0 19.250 6.750 A1.500 1.500 0 1 0 16.250 6.750 Z" fill="none" stroke="#000000" stroke-linecap="round" stroke-linejoin="round" stroke-width="1.5"></path><path d="M5.750 6.750 A1.500 1.500 0 1 0 8.750 6.750 A1.500 1.500 0 1 0 5.750 6.750 Z" fill="none" stroke="#000000" stroke-linecap="round" stroke-linejoin="round" stroke-width="1.5"></path><path d="M12.5 8.25L12.5 0.75" fill="none" stroke="#000000" stroke-linecap="round" stroke-linejoin="round" stroke-width="1.5"></path><path d="M7.25,5.25a3,3,0,0,1,3-3h4.5a3,3,0,0,1,3,3" fill="none" stroke="#000000" stroke-linecap="round" stroke-linejoin="round" stroke-width="1.5"></path></g></svg>