<svg xmlns="http://www.w3.org/2000/svg" version="1.1" xmlns:xlink="http://www.w3.org/1999/xlink" xmlns:svgjs="http://svgjs.com/svgjs" viewBox="0 0 140 140" width="140" height="140"><g transform="matrix(5.833333333333333,0,0,5.833333333333333,0,0)"><path d="M0.749 12.000 A11.250 11.250 0 1 0 23.249 12.000 A11.250 11.250 0 1 0 0.749 12.000 Z" fill="none" stroke="#000000" stroke-linecap="round" stroke-linejoin="round" stroke-width="1.5"></path><path d="M14.735,16.851a2.4,2.4,0,0,1-4.134,2.4l-4.541-6.8a1.5,1.5,0,0,1,.494-2.13L8.98,8.914a1.5,1.5,0,0,1,2.095.625Z" fill="none" stroke="#000000" stroke-linecap="round" stroke-linejoin="round" stroke-width="1.5"></path><path d="M7.677 14.875L10.028 13.509" fill="none" stroke="#000000" stroke-linecap="round" stroke-linejoin="round" stroke-width="1.5"></path><path d="M7.767 9.619L4.314 8.155" fill="none" stroke="#000000" stroke-linecap="round" stroke-linejoin="round" stroke-width="1.5"></path><path d="M7.767 9.619L8.205 5.894" fill="none" stroke="#000000" stroke-linecap="round" stroke-linejoin="round" stroke-width="1.5"></path><path d="M12.374,6.8a3,3,0,0,1,5.25,2.9Z" fill="none" stroke="#000000" stroke-linecap="round" stroke-linejoin="round" stroke-width="1.5"></path><path d="M16.418,9.036a3,3,0,0,0-2.169,1.512l5.25,2.9a3,3,0,0,0-1.643-4.287" fill="none" stroke="#000000" stroke-linecap="round" stroke-linejoin="round" stroke-width="1.5"></path></g></svg>