<svg xmlns="http://www.w3.org/2000/svg" version="1.1" xmlns:xlink="http://www.w3.org/1999/xlink" xmlns:svgjs="http://svgjs.com/svgjs" viewBox="0 0 140 140" width="140" height="140"><g transform="matrix(5.833333333333333,0,0,5.833333333333333,0,0)"><path d="M21,13.5l1.715,7.929a1.5,1.5,0,0,1-1.467,1.817H2.379A1.5,1.5,0,0,1,.9,21.5L2.649,11A1.5,1.5,0,0,1,4.129,9.75h8.479" fill="none" stroke="#000000" stroke-linecap="round" stroke-linejoin="round" stroke-width="1.5"></path><path d="M14.686 2.221 A3.922 1.471 0 1 0 22.530 2.221 A3.922 1.471 0 1 0 14.686 2.221 Z" fill="none" stroke="#000000" stroke-linecap="round" stroke-linejoin="round" stroke-width="1.5"></path><path d="M21.55,6c0,.812-1.317,1.471-2.942,1.471S15.667,6.812,15.667,6" fill="none" stroke="#000000" stroke-linecap="round" stroke-linejoin="round" stroke-width="1.5"></path><path d="M20.569,9.75c0,.677-.878,1.226-1.961,1.226s-1.961-.549-1.961-1.226" fill="none" stroke="#000000" stroke-linecap="round" stroke-linejoin="round" stroke-width="1.5"></path><path d="M5.858,20.265h9.375a1.877,1.877,0,0,0,1.875-1.879h0a1.877,1.877,0,0,0-1.875-1.879H13.358a1.877,1.877,0,0,1-1.875-1.878h0a1.877,1.877,0,0,1,1.875-1.879h1.875" fill="none" stroke="#000000" stroke-dasharray="1 2" stroke-linecap="round" stroke-linejoin="round" stroke-width="1.5"></path></g></svg>