<svg xmlns="http://www.w3.org/2000/svg" version="1.1" xmlns:xlink="http://www.w3.org/1999/xlink" xmlns:svgjs="http://svgjs.com/svgjs" viewBox="0 0 140 140" width="140" height="140"><g transform="matrix(5.833333333333333,0,0,5.833333333333333,0,0)"><path d="M8.25,17.185c.454-1.821,3.631-1.821,4.086,0,.014-1.835,3.417-1.821,3.4,0A7.575,7.575,0,0,0,8.25,9,7.575,7.575,0,0,0,.759,17.185c-.012-1.821,3.391-1.835,3.406,0C4.619,15.364,7.8,15.364,8.25,17.185Z" fill="none" stroke="#000000" stroke-linejoin="round" stroke-width="1.5"></path><path d="M8.25 9.016L8.25 7.5" fill="none" stroke="#000000" stroke-linecap="round" stroke-linejoin="round" stroke-width="1.5"></path><path d="M12.562,6.55A4.05,4.05,0,1,1,17.3,11.47" fill="none" stroke="#000000" stroke-linecap="round" stroke-linejoin="round" stroke-width="1.5"></path><path d="M16.5 3.45L16.5 0.75" fill="none" stroke="#000000" stroke-linecap="round" stroke-linejoin="round" stroke-width="1.5"></path><path d="M13.636 4.636L11.727 2.727" fill="none" stroke="#000000" stroke-linecap="round" stroke-linejoin="round" stroke-width="1.5"></path><path d="M20.55 7.5L23.25 7.5" fill="none" stroke="#000000" stroke-linecap="round" stroke-linejoin="round" stroke-width="1.5"></path><path d="M19.364 4.636L21.273 2.727" fill="none" stroke="#000000" stroke-linecap="round" stroke-linejoin="round" stroke-width="1.5"></path><path d="M19.364 10.364L21.273 12.273" fill="none" stroke="#000000" stroke-linecap="round" stroke-linejoin="round" stroke-width="1.5"></path><path d="M8.25,17.185V21.75a1.5,1.5,0,0,0,3,0" fill="none" stroke="#000000" stroke-linecap="round" stroke-linejoin="round" stroke-width="1.5"></path></g></svg>