<svg xmlns="http://www.w3.org/2000/svg" version="1.1" xmlns:xlink="http://www.w3.org/1999/xlink" xmlns:svgjs="http://svgjs.com/svgjs" viewBox="0 0 140 140" width="140" height="140"><g transform="matrix(5.833333333333333,0,0,5.833333333333333,0,0)"><path d="M9.632 3.391 A2.641 2.641 0 1 0 14.914 3.391 A2.641 2.641 0 1 0 9.632 3.391 Z" fill="none" stroke="#000000" stroke-linecap="round" stroke-linejoin="round" stroke-width="1.5"></path><path d="M12.4,12.342l2.09-1.393,1.742,2.906L14.421,16.1a1.321,1.321,0,0,0,0,1.868l2.641,2.641a1.321,1.321,0,1,0,1.868-1.867l-1.446-1.517,1.823-2.263,2.935,2.454a1.321,1.321,0,0,0,.732.221,1.281,1.281,0,0,0,.276-.029" fill="none" stroke="#000000" stroke-linecap="round" stroke-linejoin="round" stroke-width="1.5"></path><path d="M23.25,6.082,19.907,4.411a1.32,1.32,0,0,0-1.323.083L11.25,9.306" fill="none" stroke="#000000" stroke-linecap="round" stroke-linejoin="round" stroke-width="1.5"></path><path d="M23.25 14.25L18.115 8.499 19.61 7.424 23.25 9.169" fill="none" stroke="#000000" stroke-linecap="round" stroke-linejoin="round" stroke-width="1.5"></path><path d="M7.05,15.9H5.627a.939.939,0,0,0-.349,1.811l1.444.578A.939.939,0,0,1,6.373,20.1H4.95" fill="none" stroke="#000000" stroke-linecap="round" stroke-linejoin="round" stroke-width="1.5"></path><path d="M6 15.9L6 15.375" fill="none" stroke="#000000" stroke-linecap="round" stroke-linejoin="round" stroke-width="1.5"></path><path d="M6 20.625L6 20.1" fill="none" stroke="#000000" stroke-linecap="round" stroke-linejoin="round" stroke-width="1.5"></path><path d="M7.313,13.187,8.688,10.78a.437.437,0,0,0-.379-.655H3.691a.437.437,0,0,0-.379.655l1.376,2.407C4,13.639.75,14.861.75,18.437A4.976,4.976,0,0,0,5.927,23.25c2.779,0,5.323-2.034,5.323-4.813C11.25,15,8.067,13.772,7.313,13.187Z" fill="none" stroke="#000000" stroke-linecap="round" stroke-linejoin="round" stroke-width="1.5"></path></g></svg>