<svg xmlns="http://www.w3.org/2000/svg" version="1.1" xmlns:xlink="http://www.w3.org/1999/xlink" xmlns:svgjs="http://svgjs.com/svgjs" viewBox="0 0 140 140" width="140" height="140"><g transform="matrix(5.833333333333333,0,0,5.833333333333333,0,0)"><path d="M18.000 6.750 A1.500 1.500 0 1 0 21.000 6.750 A1.500 1.500 0 1 0 18.000 6.750 Z" fill="none" stroke="#000000" stroke-linecap="round" stroke-linejoin="round" stroke-width="1.5"></path><path d="M22.136.75A1.5,1.5,0,0,0,21,2.205V6.75" fill="none" stroke="#000000" stroke-linecap="round" stroke-linejoin="round" stroke-width="1.5"></path><path d="M20.250 15.750 A1.500 1.500 0 1 0 23.250 15.750 A1.500 1.500 0 1 0 20.250 15.750 Z" fill="none" stroke="#000000" stroke-linecap="round" stroke-linejoin="round" stroke-width="1.5"></path><path d="M23.25 12L23.25 15.75" fill="none" stroke="#000000" stroke-linecap="round" stroke-linejoin="round" stroke-width="1.5"></path><path d="M4.875 3.750 A2.625 2.625 0 1 0 10.125 3.750 A2.625 2.625 0 1 0 4.875 3.750 Z" fill="none" stroke="#000000" stroke-linecap="round" stroke-linejoin="round" stroke-width="1.5"></path><path d="M11.708,10.493c.91-.265,1.817-.512,2.741-.819A1.5,1.5,0,0,0,13.5,6.829c-4.369,1.456-7.745,1.8-12.311,6.36a1.5,1.5,0,0,0,2.122,2.122,18.714,18.714,0,0,1,3.241-2.634L4.519,18.9a.375.375,0,0,0,.425.485l1.293-.242L5.843,21.5a1.5,1.5,0,0,0,1.233,1.725,1.381,1.381,0,0,0,.247.021A1.5,1.5,0,0,0,8.8,22l.64-3.841,1.422-.437.807,1.076a.749.749,0,0,1,.129.63l-.491,1.961a1.5,1.5,0,0,0,1.09,1.82,1.534,1.534,0,0,0,.366.045,1.5,1.5,0,0,0,1.453-1.135l.491-1.963a3.73,3.73,0,0,0-.639-3.158l-.16-.213.981-.166a.374.374,0,0,0,.213-.623Z" fill="none" stroke="#000000" stroke-linecap="round" stroke-linejoin="round" stroke-width="1.5"></path></g></svg>