<svg xmlns="http://www.w3.org/2000/svg" version="1.1" xmlns:xlink="http://www.w3.org/1999/xlink" xmlns:svgjs="http://svgjs.com/svgjs" viewBox="0 0 140 140" width="140" height="140"><g transform="matrix(5.833333333333333,0,0,5.833333333333333,0,0)"><path d="M9.651,23A11.251,11.251,0,1,1,22.6,8.223" fill="none" stroke="#000000" stroke-linecap="round" stroke-linejoin="round" stroke-width="1.5"></path><path d="M7.079,15.75a1.5,1.5,0,0,0,1.455-1.864l-.75-3A1.5,1.5,0,0,0,6.329,9.75H.976A11.246,11.246,0,0,0,4.992,20.792L6,15.75Z" fill="none" stroke="#000000" stroke-linecap="round" stroke-linejoin="round" stroke-width="1.5"></path><path d="M20.985,5.25H16.921a1.5,1.5,0,0,0-1.455,1.136l-.75,3" fill="none" stroke="#000000" stroke-linecap="round" stroke-linejoin="round" stroke-width="1.5"></path><path d="M11.250 18.000 A2.250 2.250 0 1 0 15.750 18.000 A2.250 2.250 0 1 0 11.250 18.000 Z" fill="none" stroke="#000000" stroke-linecap="round" stroke-linejoin="round" stroke-width="1.5"></path><path d="M18.750 21.000 A2.250 2.250 0 1 0 23.250 21.000 A2.250 2.250 0 1 0 18.750 21.000 Z" fill="none" stroke="#000000" stroke-linecap="round" stroke-linejoin="round" stroke-width="1.5"></path><path d="M18.750 13.500 A2.250 2.250 0 1 0 23.250 13.500 A2.250 2.250 0 1 0 18.750 13.500 Z" fill="none" stroke="#000000" stroke-linecap="round" stroke-linejoin="round" stroke-width="1.5"></path><path d="M15.425 16.845L19.075 14.655" fill="none" stroke="#000000" stroke-linecap="round" stroke-linejoin="round" stroke-width="1.5"></path><path d="M15.588 18.835L18.912 20.165" fill="none" stroke="#000000" stroke-linecap="round" stroke-linejoin="round" stroke-width="1.5"></path></g></svg>