<svg xmlns="http://www.w3.org/2000/svg" version="1.1" xmlns:xlink="http://www.w3.org/1999/xlink" xmlns:svgjs="http://svgjs.com/svgjs" viewBox="0 0 140 140" width="140" height="140"><g transform="matrix(5.833333333333333,0,0,5.833333333333333,0,0)"><path d="M9.69,3.75A2.566,2.566,0,0,0,7.256,7.127L8.087,9.62h0a15.9,15.9,0,0,0,7.826,0h0l.831-2.493A2.566,2.566,0,0,0,14.31,3.75a1.512,1.512,0,0,0-1.259.674l-.427.64a.75.75,0,0,1-1.248,0l-.427-.64A1.512,1.512,0,0,0,9.69,3.75Z" fill="none" stroke="#000000" stroke-linecap="round" stroke-linejoin="round" stroke-width="1.5"></path><path d="M8.087,9.554,4.7,20.971a.977.977,0,0,0,.581,1.172,20.95,20.95,0,0,0,13.44,0,.979.979,0,0,0,.581-1.172L15.913,9.554" fill="none" stroke="#000000" stroke-linecap="round" stroke-linejoin="round" stroke-width="1.5"></path><path d="M5.683,17.657a17.348,17.348,0,0,0,12.634,0" fill="none" stroke="#000000" stroke-linecap="round" stroke-linejoin="round" stroke-width="1.5"></path><path d="M9 3.761L9 0.75" fill="none" stroke="#000000" stroke-linecap="round" stroke-linejoin="round" stroke-width="1.5"></path><path d="M15 3.761L15 0.75" fill="none" stroke="#000000" stroke-linecap="round" stroke-linejoin="round" stroke-width="1.5"></path></g></svg>