<svg xmlns="http://www.w3.org/2000/svg" version="1.1" xmlns:xlink="http://www.w3.org/1999/xlink" xmlns:svgjs="http://svgjs.com/svgjs" viewBox="0 0 140 140" width="140" height="140"><g transform="matrix(5.833333333333333,0,0,5.833333333333333,0,0)"><path d="M6.75,14.25v-1.5a1.5,1.5,0,0,0-1.5-1.5H3a2.25,2.25,0,0,1,0-4.5h8.25" fill="none" stroke="#000000" stroke-linecap="round" stroke-linejoin="round" stroke-width="1.5"></path><path d="M.75,20.25a3,3,0,0,0,3,3h6a3,3,0,0,0,3-3Z" fill="none" stroke="#000000" stroke-linecap="round" stroke-linejoin="round" stroke-width="1.5"></path><path d="M10.5,14.25H3a1.5,1.5,0,0,0-1.5,1.5v4.5H12v-4.5A1.5,1.5,0,0,0,10.5,14.25Z" fill="none" stroke="#000000" stroke-linecap="round" stroke-linejoin="round" stroke-width="1.5"></path><path d="M11.250 4.500 L23.250 4.500 L23.250 10.500 L11.250 10.500 Z" fill="none" stroke="#000000" stroke-linecap="round" stroke-linejoin="round" stroke-width="1.5"></path><path d="M15.75 7.5L18.75 7.5" fill="none" stroke="#000000" stroke-linecap="round" stroke-linejoin="round" stroke-width="1.5"></path><path d="M12.122,4.638C12.6,2.162,14.421.75,17.25.75s4.655,1.412,5.128,3.888" fill="none" stroke="#000000" stroke-linecap="round" stroke-linejoin="round" stroke-width="1.5"></path><path d="M21.643,10.5C20.773,12.9,19.266,15,17.25,15s-3.522-2.105-4.393-4.5" fill="none" stroke="#000000" stroke-linecap="round" stroke-linejoin="round" stroke-width="1.5"></path></g></svg>