<svg xmlns="http://www.w3.org/2000/svg" version="1.1" xmlns:xlink="http://www.w3.org/1999/xlink" xmlns:svgjs="http://svgjs.com/svgjs" viewBox="0 0 140 140" width="140" height="140"><g transform="matrix(5.833333333333333,0,0,5.833333333333333,0,0)"><path d="M15.419,23.25H8.761a1.5,1.5,0,0,1-1.455-1.136L3.974,8.788a1.5,1.5,0,0,1,.114-1.034L7.175,1.579A1.5,1.5,0,0,1,8.517.75h7.146A1.5,1.5,0,0,1,17,1.579l3.088,6.175A1.5,1.5,0,0,1,20.2,8.788L16.874,22.114A1.5,1.5,0,0,1,15.419,23.25Z" fill="none" stroke="#000000" stroke-linecap="round" stroke-linejoin="round" stroke-width="1.5"></path><path d="M12.09 5.25L12.09 16.5" fill="none" stroke="#000000" stroke-linecap="round" stroke-linejoin="round" stroke-width="1.5"></path><path d="M9.09 8.25L15.09 8.25" fill="none" stroke="#000000" stroke-linecap="round" stroke-linejoin="round" stroke-width="1.5"></path></g></svg>