<svg xmlns="http://www.w3.org/2000/svg" version="1.1" xmlns:xlink="http://www.w3.org/1999/xlink" xmlns:svgjs="http://svgjs.com/svgjs" viewBox="0 0 140 140" width="140" height="140"><g transform="matrix(5.833333333333333,0,0,5.833333333333333,0,0)"><path d="M8.655,5.771a1.5,1.5,0,0,0-1.9,1.445v7.161a7.031,7.031,0,0,0,1.811,4.778,15.281,15.281,0,0,0,5.922,4,1.5,1.5,0,0,0,1.033,0,15.267,15.267,0,0,0,5.923-4,7.031,7.031,0,0,0,1.811-4.778V7.216a1.5,1.5,0,0,0-1.905-1.445A23.131,23.131,0,0,1,8.655,5.771Z" fill="none" stroke="#000000" stroke-linecap="round" stroke-linejoin="round" stroke-width="1.5"></path><path d="M17.25,4.035V2.25a1.5,1.5,0,0,0-1.9-1.445,23.112,23.112,0,0,1-12.69,0A1.5,1.5,0,0,0,.75,2.25V9.412A7.031,7.031,0,0,0,2.561,14.19c.171.186.353.374.544.563" fill="none" stroke="#000000" stroke-linecap="round" stroke-linejoin="round" stroke-width="1.5"></path><path d="M18,15.75a3,3,0,0,1-6,0" fill="none" stroke="#000000" stroke-linecap="round" stroke-linejoin="round" stroke-width="1.5"></path><path d="M9.75,11.25a1.5,1.5,0,0,1,3,0" fill="none" stroke="#000000" stroke-linecap="round" stroke-linejoin="round" stroke-width="1.5"></path><path d="M17.25,11.25a1.5,1.5,0,0,1,3,0" fill="none" stroke="#000000" stroke-linecap="round" stroke-linejoin="round" stroke-width="1.5"></path></g></svg>