<svg xmlns="http://www.w3.org/2000/svg" version="1.1" xmlns:xlink="http://www.w3.org/1999/xlink" xmlns:svgjs="http://svgjs.com/svgjs" viewBox="0 0 140 140" width="140" height="140"><g transform="matrix(5.833333333333333,0,0,5.833333333333333,0,0)"><path d="M15.709,7.5l-3.75,2.25L8.209,7.5V3.85a1.5,1.5,0,0,1,.728-1.286l2.25-1.35a1.5,1.5,0,0,1,1.544,0l2.25,1.35a1.5,1.5,0,0,1,.728,1.286Z" fill="none" stroke="#000000" stroke-linecap="round" stroke-linejoin="round" stroke-width="1.5"></path><path d="M11.959 9.751L11.959 12.751" fill="none" stroke="#000000" stroke-linecap="round" stroke-linejoin="round" stroke-width="1.5"></path><path d="M8.209,7.5l-1,.668a1.5,1.5,0,0,0-.416,2.08l.668,1" fill="none" stroke="#000000" stroke-linecap="round" stroke-linejoin="round" stroke-width="1.5"></path><path d="M15.709,7.5l1,.668a1.5,1.5,0,0,1,.416,2.08l-.668,1" fill="none" stroke="#000000" stroke-linecap="round" stroke-linejoin="round" stroke-width="1.5"></path><path d="M11.209 5.251L12.709 5.251" fill="none" stroke="#000000" stroke-linecap="round" stroke-linejoin="round" stroke-width="1.5"></path><path d="M21.381,18.985l-3.047,1.828-3.047-1.828V15.754a.751.751,0,0,1,.364-.644l2.3-1.378a.753.753,0,0,1,.772,0l2.3,1.378a.751.751,0,0,1,.364.644Z" fill="none" stroke="#000000" stroke-linecap="round" stroke-linejoin="round" stroke-width="1.5"></path><path d="M18.334 20.813L18.334 23.251" fill="none" stroke="#000000" stroke-linecap="round" stroke-linejoin="round" stroke-width="1.5"></path><path d="M15.287,18.985l-1.2.8a.75.75,0,0,0-.208,1.04l.8,1.2" fill="none" stroke="#000000" stroke-linecap="round" stroke-linejoin="round" stroke-width="1.5"></path><path d="M21.381,18.985l1.2.8a.75.75,0,0,1,.208,1.04l-.8,1.2" fill="none" stroke="#000000" stroke-linecap="round" stroke-linejoin="round" stroke-width="1.5"></path><path d="M17.724 17.157L18.943 17.157" fill="none" stroke="#000000" stroke-linecap="round" stroke-linejoin="round" stroke-width="1.5"></path><path d="M8.631,18.985,5.584,20.813,2.537,18.985V15.754A.751.751,0,0,1,2.9,15.11l2.3-1.378a.753.753,0,0,1,.772,0l2.3,1.378a.752.752,0,0,1,.365.644Z" fill="none" stroke="#000000" stroke-linecap="round" stroke-linejoin="round" stroke-width="1.5"></path><path d="M5.584 20.813L5.584 23.251" fill="none" stroke="#000000" stroke-linecap="round" stroke-linejoin="round" stroke-width="1.5"></path><path d="M2.537,18.985l-1.2.8a.75.75,0,0,0-.208,1.04l.8,1.2" fill="none" stroke="#000000" stroke-linecap="round" stroke-linejoin="round" stroke-width="1.5"></path><path d="M8.631,18.985l1.2.8a.75.75,0,0,1,.208,1.04l-.8,1.2" fill="none" stroke="#000000" stroke-linecap="round" stroke-linejoin="round" stroke-width="1.5"></path><path d="M4.974 17.157L6.193 17.157" fill="none" stroke="#000000" stroke-linecap="round" stroke-linejoin="round" stroke-width="1.5"></path></g></svg>