<svg width="72" height="72" viewBox="0 0 72 72" xmlns="http://www.w3.org/2000/svg"><title>tell-jokes</title><desc>Created with Sketch.</desc><g><path d="M36 71.4c-19.5 0-35.4-15.9-35.4-35.4s15.9-35.4 35.4-35.4 35.4 15.9 35.4 35.4-15.9 35.4-35.4 35.4zm0-65.8c-16.7 0-30.4 13.6-30.4 30.4 0 16.8 13.7 30.4 30.4 30.4s30.4-13.7 30.4-30.4-13.7-30.4-30.4-30.4z" fill-rule="nonzero"/><path d="M36 56.5c-10.3 0-16.3-8.1-16.5-8.4-.8-1.1-.6-2.7.6-3.5 1.1-.8 2.7-.6 3.5.6.1.1 4.8 6.3 12.5 6.3s12.4-6.3 12.5-6.3c.8-1.1 2.4-1.4 3.5-.5 1.1.8 1.4 2.4.6 3.5-.4.3-6.4 8.3-16.7 8.3z" id="Path"/><circle cx="48.3" cy="28" r="4.2"/><path d="M19.5 30.5c-.8 0-1.7-.4-2.1-1.2-.7-1.2-.3-2.7.9-3.4.2-.1 2.2-1.3 5.6-1.3 3.4 0 5.4 1.2 5.6 1.3 1.2.7 1.6 2.3.8 3.4-.7 1.2-2.3 1.6-3.4.8 0 0-1.1-.6-3-.6-2 0-3 .6-3.1.6-.5.3-.9.4-1.3.4z"/></g></svg>