<svg xmlns="http://www.w3.org/2000/svg" version="1.1" xmlns:xlink="http://www.w3.org/1999/xlink" xmlns:svgjs="http://svgjs.com/svgjs" viewBox="0 0 140 140" width="140" height="140"><g transform="matrix(5.833333333333333,0,0,5.833333333333333,0,0)"><path d="M21,7.251,17.25,9.5,13.5,7.251V3.6a1.5,1.5,0,0,1,.728-1.287l2.25-1.35a1.5,1.5,0,0,1,1.544,0l2.25,1.35A1.5,1.5,0,0,1,21,3.6Z" fill="none" stroke="#000000" stroke-linecap="round" stroke-linejoin="round" stroke-width="1.5"></path><path d="M17.25 9.501L17.25 12.501" fill="none" stroke="#000000" stroke-linecap="round" stroke-linejoin="round" stroke-width="1.5"></path><path d="M13.5,7.251l-1,.668A1.5,1.5,0,0,0,12.082,10l.668,1" fill="none" stroke="#000000" stroke-linecap="round" stroke-linejoin="round" stroke-width="1.5"></path><path d="M21,7.251l1,.668A1.5,1.5,0,0,1,22.418,10l-.668,1" fill="none" stroke="#000000" stroke-linecap="round" stroke-linejoin="round" stroke-width="1.5"></path><path d="M16.5 5.001L18 5.001" fill="none" stroke="#000000" stroke-linecap="round" stroke-linejoin="round" stroke-width="1.5"></path><path d="M17.266,14.646a4.895,4.895,0,0,1-6.922,6.922l-8.16-8.161A4.895,4.895,0,0,1,9.106,6.485" fill="none" stroke="#000000" stroke-linecap="round" stroke-linejoin="round" stroke-width="1.5"></path><path d="M10.458 13.21L6.222 17.446" fill="none" stroke="#000000" stroke-linecap="round" stroke-linejoin="round" stroke-width="1.5"></path><path d="M10.344,17.612,11.828,19.1a2.1,2.1,0,0,0,2.966,0h0" fill="none" stroke="#000000" stroke-linecap="round" stroke-linejoin="round" stroke-width="1.5"></path></g></svg>