<svg xmlns="http://www.w3.org/2000/svg" version="1.1" xmlns:xlink="http://www.w3.org/1999/xlink" xmlns:svgjs="http://svgjs.com/svgjs" viewBox="0 0 140 140" width="140" height="140"><g transform="matrix(5.833333333333333,0,0,5.833333333333333,0,0)"><path d="M10.500 12.000 A1.500 1.500 0 1 0 13.500 12.000 A1.500 1.500 0 1 0 10.500 12.000 Z" fill="none" stroke="#000000" stroke-miterlimit="10" stroke-width="1.5"></path><path d="M12,4.5c-4.031-.075-8.2,3.057-10.821,6.26a2,2,0,0,0,0,2.473C3.742,16.372,7.9,19.575,12,19.5c4.1.077,8.257-3.126,10.823-6.264a2,2,0,0,0,0-2.473C20.2,7.558,16.031,4.426,12,4.5Z" fill="none" stroke="#000000" stroke-linecap="round" stroke-linejoin="round" stroke-width="1.5"></path><path d="M6.750 12.000 A5.250 5.250 0 1 0 17.250 12.000 A5.250 5.250 0 1 0 6.750 12.000 Z" fill="none" stroke="#000000" stroke-linecap="round" stroke-linejoin="round" stroke-width="1.5"></path><path d="M12 4.5L12 8.25" fill="none" stroke="#000000" stroke-linecap="round" stroke-linejoin="round" stroke-width="1.5"></path><path d="M12 15.75L12 19.5" fill="none" stroke="#000000" stroke-linecap="round" stroke-linejoin="round" stroke-width="1.5"></path><path d="M15.75 12L18.75 12" fill="none" stroke="#000000" stroke-linecap="round" stroke-linejoin="round" stroke-width="1.5"></path><path d="M5.25 12L8.25 12" fill="none" stroke="#000000" stroke-linecap="round" stroke-linejoin="round" stroke-width="1.5"></path></g></svg>