<svg xmlns="http://www.w3.org/2000/svg" version="1.1" xmlns:xlink="http://www.w3.org/1999/xlink" xmlns:svgjs="http://svgjs.com/svgjs" viewBox="0 0 140 140" width="140" height="140"><g transform="matrix(5.833333333333333,0,0,5.833333333333333,0,0)"><path d="M.75,18.75v3a1.5,1.5,0,0,0,1.5,1.5h3" fill="none" stroke="#000000" stroke-linecap="round" stroke-linejoin="round" stroke-width="1.5"></path><path d="M5.25.75h-3a1.5,1.5,0,0,0-1.5,1.5v3" fill="none" stroke="#000000" stroke-linecap="round" stroke-linejoin="round" stroke-width="1.5"></path><path d="M23.25,5.25v-3a1.5,1.5,0,0,0-1.5-1.5h-3" fill="none" stroke="#000000" stroke-linecap="round" stroke-linejoin="round" stroke-width="1.5"></path><path d="M18.75,23.25h3a1.5,1.5,0,0,0,1.5-1.5v-3" fill="none" stroke="#000000" stroke-linecap="round" stroke-linejoin="round" stroke-width="1.5"></path><path d="M9,20.25v-3H7.5A1.5,1.5,0,0,1,6,15.75v-1.5H4.817a.75.75,0,0,1-.709-.995C6.005,7.759,6.215,3.75,12,3.75a6.75,6.75,0,0,1,4.5,11.781V20.25" fill="none" stroke="#000000" stroke-linecap="round" stroke-linejoin="round" stroke-width="1.5"></path><path d="M14.649,11.692a.752.752,0,0,0,1.048-.556A3.752,3.752,0,0,0,9.072,8.155a.751.751,0,0,0,.279,1.153Z" fill="none" stroke="#000000" stroke-linecap="round" stroke-linejoin="round" stroke-width="1.5"></path></g></svg>