<svg xmlns="http://www.w3.org/2000/svg" version="1.1" xmlns:xlink="http://www.w3.org/1999/xlink" xmlns:svgjs="http://svgjs.com/svgjs" viewBox="0 0 140 140" width="140" height="140"><g transform="matrix(5.833333333333333,0,0,5.833333333333333,0,0)"><path d="M4.500 20.263 A2.250 2.250 0 1 0 9.000 20.263 A2.250 2.250 0 1 0 4.500 20.263 Z" fill="none" stroke="#000000" stroke-linecap="round" stroke-linejoin="round" stroke-width="1.5"></path><path d="M15.000 20.263 A2.250 2.250 0 1 0 19.500 20.263 A2.250 2.250 0 1 0 15.000 20.263 Z" fill="none" stroke="#000000" stroke-linecap="round" stroke-linejoin="round" stroke-width="1.5"></path><path d="M15 20.263L9 20.263" fill="none" stroke="#000000" stroke-linecap="round" stroke-linejoin="round" stroke-width="1.5"></path><path d="M8.639,10.313l-.895,3.565a1.5,1.5,0,0,1-1.455,1.135H2.8" fill="none" stroke="#000000" stroke-linecap="round" stroke-linejoin="round" stroke-width="1.5"></path><path d="M13.5,9.869v3.644a1.5,1.5,0,0,0,1.5,1.5h3a1.5,1.5,0,0,0,1.492-1.347v-.832" fill="none" stroke="#000000" stroke-linecap="round" stroke-linejoin="round" stroke-width="1.5"></path><path d="M5.441,7.513a5.253,5.253,0,0,1,0-6" fill="none" stroke="#000000" stroke-linecap="round" stroke-linejoin="round" stroke-width="1.5"></path><path d="M8.073,6.013a2.25,2.25,0,0,1,0-3" fill="none" stroke="#000000" stroke-linecap="round" stroke-linejoin="round" stroke-width="1.5"></path><path d="M18.559,7.513a5.253,5.253,0,0,0,0-6" fill="none" stroke="#000000" stroke-linecap="round" stroke-linejoin="round" stroke-width="1.5"></path><path d="M15.927,6.013a2.25,2.25,0,0,0,0-3" fill="none" stroke="#000000" stroke-linecap="round" stroke-linejoin="round" stroke-width="1.5"></path><path d="M12 9.763L12 7.513" fill="none" stroke="#000000" stroke-linecap="round" stroke-linejoin="round" stroke-width="1.5"></path><path d="M4.5,20.263H3a1.5,1.5,0,0,1-1.479-1.75A10.634,10.634,0,0,1,12,9.763h0a10.634,10.634,0,0,1,10.479,8.75,1.5,1.5,0,0,1-.334,1.217,1.771,1.771,0,0,1-1.269.533H19.5" fill="none" stroke="#000000" stroke-linecap="round" stroke-linejoin="round" stroke-width="1.5"></path></g></svg>