<svg width="64" height="46" viewBox="0 0 64 46" xmlns="http://www.w3.org/2000/svg"><title>human-movement-simulation</title><desc>Created with Sketch.</desc><g><path d="M22.09 39.019c0-.619-.413-1.032-1.032-1.032h-17.961c-.619 0-1.032.413-1.032 1.032s.413 1.032 1.032 1.032h17.961c.619 0 1.032-.516 1.032-1.032zM7.226 43.148h-2.065c-.619 0-1.032.413-1.032 1.032s.413 1.032 1.032 1.032h2.065c.619 0 1.032-.413 1.032-1.032s-.413-1.032-1.032-1.032zM12.077 33.858c0-.619-.413-1.032-1.032-1.032h-10.013c-.619 0-1.032.413-1.032 1.032s.413 1.032 1.032 1.032h10.013c.619 0 1.032-.516 1.032-1.032z"/><path d="M63.381 35.613c-.31-.619-.929-1.135-1.548-1.445l-7.845-2.994-3.2-1.135c-.929-.413-1.755-1.032-2.271-1.858l-2.684-4.439c.516-.103.826-.516.826-1.032 0-.619-.413-1.032-1.032-1.032h-1.032l-1.239-2.065c.516-.103.826-.516.826-1.032 0-.619-.413-1.032-1.032-1.032h-1.032l-1.032-1.652c.413-.103.723-.516.723-.929 0-.619-.413-1.032-1.032-1.032h-.929l-1.342-2.168s0-.103-.103-.103c-1.239-1.445-2.89-2.168-4.645-1.961-1.548.206-2.787 1.135-3.303 2.271-.103.31-.103.619.103.929l8.568 14.658c.103.206.31.413.516.413l10.529 4.026h.103l3.097 1.135 7.742 2.994c.206.103.413.206.516.516.413.826.413 1.652-.103 2.477h-16.826c-1.032 0-2.065-.31-2.89-.929l-28.8-21.368s.413-.206.929-.929c.516-.723.723-1.652.723-2.581l-.929-8.671 1.239-1.961c.31-.413.929-.516 1.342-.206.31.31 1.548 1.342 4.542 6.194 1.548 2.271 4.026 3.923 6.813 4.335.516.103 1.135-.31 1.239-.826.103-.516-.31-1.135-.826-1.239-2.168-.413-4.232-1.652-5.471-3.51-3.613-5.574-4.645-6.4-5.058-6.71-1.342-.929-3.2-.619-4.232.723l-6.297 10.013c-.413.619-.516 1.342-.413 2.065-.619.206-1.239.516-1.548 1.135l-1.652 2.581c-.929 1.342-.516 3.2.826 4.129.929.723 2.89 1.961 5.781 3.819.206.103.413.206.516.206.31 0 .619-.206.826-.516.31-.516.206-1.135-.31-1.445-2.787-1.858-4.748-3.097-5.677-3.819-.413-.31-.516-.826-.206-1.342l1.548-2.374c.31-.413.929-.516 1.342-.206l32.413 24.155c1.239.929 2.684 1.342 4.129 1.342h14.245c-2.168 1.032-5.161 1.961-7.742 1.961h-6.607c-1.755 0-3.51-.516-4.955-1.445-5.987-3.819-17.135-10.942-25.29-16.206-.516-.31-1.135-.206-1.445.31-.31.516-.206 1.135.31 1.445 7.948 5.161 18.787 12.077 24.877 16h-26.632c-.619 0-1.032.413-1.032 1.032s.413 1.032 1.032 1.032h39.638999999999996c4.232 0 10.323-2.271 11.871-4.439 1.342-1.858 1.445-3.613.516-5.265zm-22.813-9.29l-8.052-13.729c.31-.31.826-.619 1.445-.723.619-.103 1.755 0 2.787 1.135l.619 1.032h-.929c-.619 0-1.032.413-1.032 1.032s.413 1.032 1.032 1.032h2.168l1.032 1.652h-.826c-.619 0-1.032.413-1.032 1.032s.413 1.032 1.032 1.032h2.065l1.239 1.961h-.826c-.619 0-1.032.413-1.032 1.032s.413 1.032 1.032 1.032h2.065l2.89 4.542-5.677-2.065zm-31.794-13.729l3.2-5.058.619 5.987c0 .413-.103.826-.31 1.135-.206.31-.619 1.135-1.548.413 0 0-.516-.31-1.445-1.032-.619-.516-.723-1.032-.516-1.445z" fill-rule="nonzero"/></g></svg>