<svg xmlns="http://www.w3.org/2000/svg" version="1.1" xmlns:xlink="http://www.w3.org/1999/xlink" xmlns:svgjs="http://svgjs.com/svgjs" viewBox="0 0 140 140" width="140" height="140"><g transform="matrix(5.833333333333333,0,0,5.833333333333333,0,0)"><path d="M16.482,14.79a4.2,4.2,0,0,0-2.034-3.114,4.736,4.736,0,0,0-4.876,0A4.2,4.2,0,0,0,7.538,14.79a2.181,2.181,0,0,1-1.161,1.638,3.445,3.445,0,0,0-1.7,4.1,3.574,3.574,0,0,0,2.5,2.325,3.959,3.959,0,0,0,3.474-.667,2.244,2.244,0,0,1,2.718,0,3.959,3.959,0,0,0,3.474.667,3.574,3.574,0,0,0,2.5-2.325,3.445,3.445,0,0,0-1.7-4.1A2.181,2.181,0,0,1,16.482,14.79Z" fill="none" stroke="#000000" stroke-linecap="round" stroke-linejoin="round" stroke-width="1.5"></path><path d="M6.010 5.750 A2.25 3 0 1 0 10.510 5.750 A2.25 3 0 1 0 6.010 5.750 Z" fill="none" stroke="#000000" stroke-linecap="round" stroke-linejoin="round" stroke-width="1.5"></path><path d="M0.760 11.750 A2.25 3 0 1 0 5.260 11.750 A2.25 3 0 1 0 0.760 11.750 Z" fill="none" stroke="#000000" stroke-linecap="round" stroke-linejoin="round" stroke-width="1.5"></path><path d="M13.510 5.750 A2.25 3 0 1 0 18.010 5.750 A2.25 3 0 1 0 13.510 5.750 Z" fill="none" stroke="#000000" stroke-linecap="round" stroke-linejoin="round" stroke-width="1.5"></path><path d="M18.760 11.750 A2.25 3 0 1 0 23.260 11.750 A2.25 3 0 1 0 18.760 11.750 Z" fill="none" stroke="#000000" stroke-linecap="round" stroke-linejoin="round" stroke-width="1.5"></path><path d="M3.01 8.75L3.01 7.25" fill="none" stroke="#000000" stroke-linecap="round" stroke-linejoin="round" stroke-width="1.5"></path><path d="M8.26 2.75L8.26 1.25" fill="none" stroke="#000000" stroke-linecap="round" stroke-linejoin="round" stroke-width="1.5"></path><path d="M15.76 2.75L15.76 1.25" fill="none" stroke="#000000" stroke-linecap="round" stroke-linejoin="round" stroke-width="1.5"></path><path d="M21.01 8.75L21.01 7.25" fill="none" stroke="#000000" stroke-linecap="round" stroke-linejoin="round" stroke-width="1.5"></path></g></svg>