<svg xmlns="http://www.w3.org/2000/svg" version="1.1" xmlns:xlink="http://www.w3.org/1999/xlink" xmlns:svgjs="http://svgjs.com/svgjs" viewBox="0 0 140 140" width="140" height="140"><g transform="matrix(5.833333333333333,0,0,5.833333333333333,0,0)"><path d="M6.75,6.75a3,3,0,0,0,0-6H4.5v6Z" fill="none" stroke="#000000" stroke-linecap="round" stroke-linejoin="round" stroke-width="1.5"></path><path d="M4.5 2.25L1.5 2.25" fill="none" stroke="#000000" stroke-linecap="round" stroke-linejoin="round" stroke-width="1.5"></path><path d="M4.5 5.25L1.5 5.25" fill="none" stroke="#000000" stroke-linecap="round" stroke-linejoin="round" stroke-width="1.5"></path><path d="M9.75,3.75H18a4.5,4.5,0,0,1,0,9H6.75a3.75,3.75,0,0,0,0,7.5h10.5" fill="none" stroke="#000000" stroke-linecap="round" stroke-linejoin="round" stroke-width="1.5"></path><path d="M14.1,23.25a3,3,0,0,1-2.959-3.5,3.112,3.112,0,0,1,3.12-2.5h2.522a6,6,0,0,1,3.329,1.008l2.052,1.368a.75.75,0,0,1,0,1.248l-2.052,1.368a6,6,0,0,1-3.329,1.008Z" fill="none" stroke="#000000" stroke-linecap="round" stroke-linejoin="round" stroke-width="1.5"></path></g></svg>