<svg xmlns="http://www.w3.org/2000/svg" version="1.1" xmlns:xlink="http://www.w3.org/1999/xlink" xmlns:svgjs="http://svgjs.com/svgjs" viewBox="0 0 140 140" width="140" height="140"><g transform="matrix(5.833333333333333,0,0,5.833333333333333,0,0)"><path d="M2.250 7.500 A2.250 2.250 0 1 0 6.750 7.500 A2.250 2.250 0 1 0 2.250 7.500 Z" fill="none" stroke="#000000" stroke-linecap="round" stroke-linejoin="round" stroke-width="1.5"></path><path d="M9.751,23.25a1.5,1.5,0,0,1-1.343-.829l-.671-1.342A1.491,1.491,0,0,0,6.4,20.25H4.5A1.5,1.5,0,0,1,3,18.75v-6A1.5,1.5,0,0,1,5.332,11.5l1.116.744a3,3,0,0,0,1.664.5H9.75a1.5,1.5,0,0,1,0,3H8.112A5.985,5.985,0,0,1,6,15.366V17.25h.4a4.477,4.477,0,0,1,4.025,2.487l.671,1.342A1.5,1.5,0,0,1,9.751,23.25Z" fill="none" stroke="#000000" stroke-linecap="round" stroke-linejoin="round" stroke-width="1.5"></path><path d="M4.5 20.25L1.5 20.25" fill="none" stroke="#000000" stroke-linecap="round" stroke-linejoin="round" stroke-width="1.5"></path><path d="M9.75 15.75L20.25 15.75" fill="none" stroke="#000000" stroke-linecap="round" stroke-linejoin="round" stroke-width="1.5"></path><path d="M15 15.75L15 23.25" fill="none" stroke="#000000" stroke-linecap="round" stroke-linejoin="round" stroke-width="1.5"></path><path d="M14.25 12.75L20.25 12.75 22.5 7.5" fill="none" stroke="#000000" stroke-linecap="round" stroke-linejoin="round" stroke-width="1.5"></path><path d="M14.25,7.125a.375.375,0,1,1-.375.375.375.375,0,0,1,.375-.375" fill="none" stroke="#000000" stroke-linecap="round" stroke-linejoin="round" stroke-width="1.5"></path><path d="M11.6,4.848a3.752,3.752,0,0,1,5.3,0" fill="none" stroke="#000000" stroke-linecap="round" stroke-linejoin="round" stroke-width="1.5"></path><path d="M9.477,2.727a6.75,6.75,0,0,1,9.546,0" fill="none" stroke="#000000" stroke-linecap="round" stroke-linejoin="round" stroke-width="1.5"></path><path d="M3.75 23.25L3.75 20.25" fill="none" stroke="#000000" stroke-linecap="round" stroke-linejoin="round" stroke-width="1.5"></path></g></svg>