<svg xmlns="http://www.w3.org/2000/svg" version="1.1" xmlns:xlink="http://www.w3.org/1999/xlink" xmlns:svgjs="http://svgjs.com/svgjs" viewBox="0 0 140 140" width="140" height="140"><g transform="matrix(5.833333333333333,0,0,5.833333333333333,0,0)"><path d="M15.5,23.25V20.315h1.088a2.935,2.935,0,0,0,2.935-2.935V14.445h3.314C20.69,8,19.461.75,11.342.75A9.53,9.53,0,0,0,5.717,17.978V23.25" fill="none" stroke="#000000" stroke-linecap="round" stroke-linejoin="round" stroke-width="1.5"></path><path d="M8.621,14.113a2.242,2.242,0,0,1-2.778-1.445,2.241,2.241,0,0,1,.8-3.028,2.242,2.242,0,0,1,2.778,1.445" fill="none" stroke="#000000" stroke-linecap="round" stroke-linejoin="round" stroke-width="1.5"></path><path d="M17.212,9.75a.375.375,0,1,1-.375.375.375.375,0,0,1,.375-.375" fill="none" stroke="#000000" stroke-linecap="round" stroke-linejoin="round" stroke-width="1.5"></path><path d="M11 3.815L10.25 5.315 11 6.815" fill="none" stroke="#000000" stroke-linecap="round" stroke-linejoin="round" stroke-width="1.5"></path><path d="M8 3.815L7.25 5.315 8 6.815" fill="none" stroke="#000000" stroke-linecap="round" stroke-linejoin="round" stroke-width="1.5"></path><path d="M14 3.815L13.25 5.315 14 6.815" fill="none" stroke="#000000" stroke-linecap="round" stroke-linejoin="round" stroke-width="1.5"></path><path d="M1.25 5.315L15.5 5.315" fill="none" stroke="#000000" stroke-linecap="round" stroke-linejoin="round" stroke-width="1.5"></path></g></svg>