<svg xmlns="http://www.w3.org/2000/svg" version="1.1" xmlns:xlink="http://www.w3.org/1999/xlink" xmlns:svgjs="http://svgjs.com/svgjs" viewBox="0 0 140 140" width="140" height="140"><g transform="matrix(5.833333333333333,0,0,5.833333333333333,0,0)"><path d="M22.939,4.756,20.306,1.335A1.5,1.5,0,0,0,19.117.75H4.883a1.5,1.5,0,0,0-1.189.585L1.061,4.756a1.5,1.5,0,0,0-.3,1.1L2.771,21.936A1.5,1.5,0,0,0,4.26,23.25H19.74a1.5,1.5,0,0,0,1.489-1.314L23.238,5.857A1.5,1.5,0,0,0,22.939,4.756Z" fill="none" stroke="#000000" stroke-linecap="round" stroke-linejoin="round" stroke-width="1.5"></path><path d="M0.808 5.259L23.192 5.259" fill="none" stroke="#000000" stroke-linecap="round" stroke-linejoin="round" stroke-width="1.5"></path><path d="M9.705 15.759L5.955 15.759 5.955 19.509" fill="none" stroke="#000000" stroke-linecap="round" stroke-linejoin="round" stroke-width="1.5"></path><path d="M17.372,16.492a5.572,5.572,0,0,1-10.74-.733" fill="none" stroke="#000000" stroke-linecap="round" stroke-linejoin="round" stroke-width="1.5"></path><path d="M14.205 12.759L17.955 12.759 17.955 9.009" fill="none" stroke="#000000" stroke-linecap="round" stroke-linejoin="round" stroke-width="1.5"></path><path d="M6.538,12.025a5.573,5.573,0,0,1,10.74.734" fill="none" stroke="#000000" stroke-linecap="round" stroke-linejoin="round" stroke-width="1.5"></path></g></svg>