<svg xmlns="http://www.w3.org/2000/svg" version="1.1" xmlns:xlink="http://www.w3.org/1999/xlink" xmlns:svgjs="http://svgjs.com/svgjs" viewBox="0 0 140 140" width="140" height="140"><g transform="matrix(5.833333333333333,0,0,5.833333333333333,0,0)"><path d="M19.125,22.986a.861.861,0,0,0,1.217,0L23,20.33a.861.861,0,0,0,0-1.217L19.125,15.24a.863.863,0,0,0-.609-.252H15.861a.86.86,0,0,0-.861.861v2.656a.861.861,0,0,0,.252.608Z" fill="none" stroke="#000000" stroke-linecap="round" stroke-linejoin="round" stroke-width="1.5"></path><path d="M15.168 15.339L13.317 13.488" fill="none" stroke="#000000" stroke-linecap="round" stroke-linejoin="round" stroke-width="1.5"></path><path d="M12,17.238H3a.75.75,0,0,1-.75-.75V9.738" fill="none" stroke="#000000" stroke-linecap="round" stroke-linejoin="round" stroke-width="1.5"></path><path d="M15.75 9.738L15.75 11.988" fill="none" stroke="#000000" stroke-linecap="round" stroke-linejoin="round" stroke-width="1.5"></path><path d="M0.750 5.988 L17.250 5.988 L17.250 9.738 L0.750 9.738 Z" fill="none" stroke="#000000" stroke-linecap="round" stroke-linejoin="round" stroke-width="1.5"></path><path d="M9 17.238L9 5.988" fill="none" stroke="#000000" stroke-linecap="round" stroke-linejoin="round" stroke-width="1.5"></path><path d="M4.734,3.867A11.863,11.863,0,0,0,8.976,5.988,11.837,11.837,0,0,0,6.855,1.746C5.537.428,4.79.63,4.2,1.216S3.416,2.549,4.734,3.867Z" fill="none" stroke="#000000" stroke-linecap="round" stroke-linejoin="round" stroke-width="1.5"></path><path d="M13.266,3.867A11.864,11.864,0,0,1,9.023,5.988a11.855,11.855,0,0,1,2.121-4.242C12.463.428,13.21.63,13.8,1.216S14.584,2.549,13.266,3.867Z" fill="none" stroke="#000000" stroke-linecap="round" stroke-linejoin="round" stroke-width="1.5"></path></g></svg>