<svg width="64" height="80" viewBox="0 0 64 80" xmlns="http://www.w3.org/2000/svg"><title>grant-proposal-generator</title><desc>Created with Sketch.</desc><path d="M0 0v80h64v-80h-64zm37.2 13.333c-.533-2.267-2.667-4-5.2-4-2.533 0-4.533 1.733-5.2 4h-18l-5.333-10.667h57.067l-5.333 10.667h-18zm-5.2 4c-1.467 0-2.667-1.2-2.667-2.667 0-1.467 1.2-2.667 2.667-2.667 1.467 0 2.667 1.2 2.667 2.667 0 1.467-1.2 2.667-2.667 2.667zm-24.8-1.333h19.733c.533 1.867 2 3.333 3.867 3.867v44.133h-23.6l-4.533 9.067v-66.133l4.533 9.067zm1.6 50.667h46.4l5.333 10.667h-57.067l5.333-10.667zm48-2.667h-23.467v-44.133c1.867-.533 3.333-2 3.867-3.867h19.733l4.4-9.067v66l-4.533-8.933z" fill-rule="nonzero"/></svg>