<svg xmlns="http://www.w3.org/2000/svg" version="1.1" xmlns:xlink="http://www.w3.org/1999/xlink" xmlns:svgjs="http://svgjs.com/svgjs" viewBox="0 0 140 140" width="140" height="140"><g transform="matrix(5.833333333333333,0,0,5.833333333333333,0,0)"><path d="M.75,2.217l1.5,1.892V8.576c-.04,1.688,1.917,3.2,3.749,4.752" fill="none" stroke="#000000" stroke-linecap="round" stroke-linejoin="round" stroke-width="1.5"></path><path d="M5.231,7.358,7,9.17a1.218,1.218,0,1,0,1.745-1.7L5.994,4.663V3.2A6.286,6.286,0,0,0,5.016.75" fill="none" stroke="#000000" stroke-linecap="round" stroke-linejoin="round" stroke-width="1.5"></path><path d="M6,8.138V20.25a1.5,1.5,0,0,0,1.5,1.5H15" fill="none" stroke="#000000" stroke-linecap="round" stroke-linejoin="round" stroke-width="1.5"></path><path d="M23.25,21.782l-1.5-1.892V15.424c.035-1.459-1.421-2.786-3-4.12v5.318L17,14.83a1.218,1.218,0,1,0-1.745,1.7l2.755,2.808V20.8a6.293,6.293,0,0,0,.978,2.446" fill="none" stroke="#000000" stroke-linecap="round" stroke-linejoin="round" stroke-width="1.5"></path><path d="M12.978 18L9 18" fill="none" stroke="#000000" stroke-linecap="round" stroke-linejoin="round" stroke-width="1.5"></path><path d="M10.5 14.25L9 14.25" fill="none" stroke="#000000" stroke-linecap="round" stroke-linejoin="round" stroke-width="1.5"></path><path d="M20.25,5.25a4.5,4.5,0,1,1-4.5-4.5" fill="none" stroke="#000000" stroke-linecap="round" stroke-linejoin="round" stroke-width="1.5"></path><path d="M20.25,1.874l-4.1,4.1a.564.564,0,0,1-.8,0l-1.289-1.29" fill="none" stroke="#000000" stroke-linecap="round" stroke-linejoin="round" stroke-width="1.5"></path></g></svg>