<svg xmlns="http://www.w3.org/2000/svg" version="1.1" xmlns:xlink="http://www.w3.org/1999/xlink" xmlns:svgjs="http://svgjs.com/svgjs" viewBox="0 0 140 140" width="140" height="140"><g transform="matrix(5.833333333333333,0,0,5.833333333333333,0,0)"><path d="M21.75,9.375a1.5,1.5,0,0,0-1.5,1.5v1.5a.75.75,0,0,1-.75.75H4.5a.75.75,0,0,1-.75-.75v-1.5a1.5,1.5,0,0,0-3,0v3a3,3,0,0,0,3,3h16.5a3,3,0,0,0,3-3v-3A1.5,1.5,0,0,0,21.75,9.375Z" fill="none" stroke="#000000" stroke-linecap="round" stroke-linejoin="round" stroke-width="1.5"></path><path d="M3.75 16.875L3.75 19.125" fill="none" stroke="#000000" stroke-linecap="round" stroke-linejoin="round" stroke-width="1.5"></path><path d="M20.25 16.875L20.25 19.125" fill="none" stroke="#000000" stroke-linecap="round" stroke-linejoin="round" stroke-width="1.5"></path><path d="M2.25,9.375a4.5,4.5,0,0,1,4.5-4.5h10.5a4.5,4.5,0,0,1,4.5,4.5" fill="none" stroke="#000000" stroke-linecap="round" stroke-linejoin="round" stroke-width="1.5"></path><path d="M12 13.125L12 4.875" fill="none" stroke="#000000" stroke-linecap="round" stroke-linejoin="round" stroke-width="1.5"></path></g></svg>