<svg xmlns="http://www.w3.org/2000/svg" version="1.1" xmlns:xlink="http://www.w3.org/1999/xlink" xmlns:svgjs="http://svgjs.com/svgjs" viewBox="0 0 140 140" width="140" height="140"><g transform="matrix(5.833333333333333,0,0,5.833333333333333,0,0)"><path d="M12,23.251s2.043-2.533,7.768-2.669a.491.491,0,0,0,.482-.489V10.241a.492.492,0,0,0-.507-.489c-5.7.142-7.743,3-7.743,3s-2.038-2.857-7.743-3a.493.493,0,0,0-.507.489v9.852a.491.491,0,0,0,.482.489C9.957,20.718,12,23.251,12,23.251Z" fill="none" stroke="#000000" stroke-linecap="round" stroke-linejoin="round" stroke-width="1.5"></path><path d="M12 12.751L12 23.251" fill="none" stroke="#000000" stroke-linecap="round" stroke-linejoin="round" stroke-width="1.5"></path><path d="M0.75 7.599L12 0.751 23.25 7.501" fill="none" stroke="#000000" stroke-linecap="round" stroke-linejoin="round" stroke-width="1.5"></path><path d="M18.75 0.751L21 0.751 21 3.001" fill="none" stroke="#000000" stroke-linecap="round" stroke-linejoin="round" stroke-width="1.5"></path></g></svg>