<svg xmlns="http://www.w3.org/2000/svg" version="1.1" xmlns:xlink="http://www.w3.org/1999/xlink" xmlns:svgjs="http://svgjs.com/svgjs" viewBox="0 0 140 140" width="140" height="140"><g transform="matrix(5.833333333333333,0,0,5.833333333333333,0,0)"><path d="M19.27,6.877A1.5,1.5,0,0,1,19.3,9.026L17.5,10.82a1.5,1.5,0,0,1-2.343-.282c-1.815-2.982-5.793-8.95-8.577-8.95C6.584,1.588,9.544-2.359,19.27,6.877Z" fill="none" stroke="#000000" stroke-linecap="round" stroke-linejoin="round" stroke-width="1.5"></path><path d="M12.382 6.396L0.75 18.028" fill="none" stroke="#000000" stroke-linecap="round" stroke-linejoin="round" stroke-width="1.5"></path><path d="M15.75 21L12 23.25 8.25 21 8.25 16.5 12 14.25 15.75 16.5 15.75 21z" fill="none" stroke="#000000" stroke-linecap="round" stroke-linejoin="round" stroke-width="1.5"></path><path d="M23.25 18.75L21 20.25 18.75 18.75 18.75 15.75 21 14.25 23.25 15.75 23.25 18.75z" fill="none" stroke="#000000" stroke-linecap="round" stroke-linejoin="round" stroke-width="1.5"></path></g></svg>