<svg width="62" height="72" viewBox="0 0 62 72" xmlns="http://www.w3.org/2000/svg"><title>crypto-mining</title><desc>Created with Sketch.</desc><g><path id="Rectangle" d="M23.983 10.26h21.873v2.074h-21.873zM23.983 15.086h13.982v2.074h-13.982zM23.983 19.912h18.439v2.074h-18.439z"/><path d="M55.94.885l-47.986-.003c-4.311 0-7.818 3.507-7.818 7.818v63.068h2.074l3.424-4.422 3.127 3.997c.177.225.549.37.946.37.399 0 .77-.145.946-.37l3.133-3.997 3.128 3.997c.176.225.547.37.946.37.399 0 .77-.145.946-.37l3.132-3.998 3.132 3.998c.159.204.529.334.944.334h.002c.416 0 .787-.132.944-.334l3.127-3.997 3.13 3.997c.176.225.547.37.946.37.399 0 .77-.145.946-.37l3.133-3.998 3.137 3.998c.159.204.53.334.946.334.416 0 .787-.13.946-.334l3.137-4 3.563 4.425h2.074v-47.339l.007.001h7.777c1.149 0 2.083-.932 2.083-2.081v-15.493c0-3.292-2.679-5.97-5.971-5.97zm-8.586 64.73c-.159-.203-.53-.334-.946-.334-.416 0-.787.132-.946.334l-3.137 3.998-3.137-3.998c-.159-.203-.53-.334-.944-.334-.416 0-.787.132-.946.334l-3.135 3.997-3.132-3.995c-.159-.204-.53-.336-.946-.336h-.003c-.416.002-.784.133-.941.334l-3.125 3.998-3.132-3.997c-.176-.226-.547-.372-.946-.372-.397 0-.769.145-.948.372l-3.13 3.997-3.128-3.997c-.176-.226-.547-.372-.946-.372-.399 0-.77.145-.946.37l-3.133 3.998-3.127-3.997c-.176-.226-.547-.372-.946-.372-.399 0-.77.145-.946.372l-2.478 3.164v-60.082c0-3.167 2.576-5.743 5.743-5.743h43.502c-.913 1.049-1.486 2.402-1.486 3.899v62.094l-2.617-3.333zm12.483-43.266l-.008.005-7.784-.007v-15.493c0-2.147 1.748-3.895 3.895-3.895 2.149 0 3.897 1.748 3.897 3.895v15.495z" fill-rule="nonzero"/><path d="M37.776 27.321l.507 1.652 3.224-.988-6.715 11.986-5.699-10.071c-.176-.309-.525-.485-.865-.483-.356.015-.674.226-.824.549l-4.731 10.154-2.912-7.367c-.142-.36-.488-.598-.875-.601h-.01c-.382 0-.728.23-.877.583l-2.696 6.405-2.61-3.14c-.218-.262-.563-.38-.895-.329-.336.059-.615.294-.731.613l-4.51 12.463 1.791.649 3.944-10.902 2.551 3.068c.213.255.537.38.872.333.328-.049.608-.265.736-.573l2.399-5.699 2.867 7.255c.14.353.476.59.856.601.377.003.731-.203.892-.549l4.885-10.485 5.622 9.934c.169.299.485.483.828.483h.002c.345 0 .66-.186.828-.486l7.634-13.629 1.354 3.058 1.581-.699-2.481-5.606-5.938 1.823z" id="Path"/><path d="M42.344 45.99h2.25v12.813h-2.25zM38.008 49.802h2.25v9h-2.25zM33.672 47.72h2.25v11.083h-2.25zM29.337 52.532h2.25v6.27h-2.25zM25.001 49.802h2.25v9h-2.25zM20.665 52.909h2.25v5.894h-2.25zM16.329 51.309h2.25v7.493h-2.25zM11.993 53.66h2.25v5.142h-2.25zM7.657 55.921h2.25v2.882h-2.25z"/><path d="M19.348 20.945c.039-.289-.169-.496-.351-.73-.184-.229-.279-.397-.583-.439-.301-.041-.539.023-.747.191-.883.643-1.881.964-2.985.964-1.125 0-2.136-.429-3-1.274-.869-.851-1.309-1.871-1.309-3.034 0-1.163.444-2.188 1.322-3.046.878-.856 1.887-1.29 3-1.29 1.092 0 2.086.32 2.955.952.247.202.485.267.777.232.294-.041.478-.238.664-.47.179-.228.296-.425.255-.731-.042-.308-.173-.544-.401-.718-.834-.636-1.738-1.042-2.692-1.254v-1.867c0-.381-.308-.388-.689-.388-.381 0-.689.008-.689.388v1.697l-.058-.005c-.541.005-1.055.088-1.554.208v-1.9c0-.381-.308-.388-.689-.388-.381 0-.689.008-.689.388v2.414c-.609.307-1.188.689-1.712 1.198-1.304 1.272-1.94 2.761-1.94 4.551 0 1.767.654 3.304 1.941 4.567.523.513 1.102.895 1.711 1.202v2.335c0 .381.308.393.689.393.381 0 .689-.012.689-.393v-1.826c.499.117 1.012.196 1.554.196l.058-.005v1.635c0 .381.308.393.689.393.381 0 .689-.012.689-.393v-1.804c.941-.206 1.848-.597 2.702-1.207.209-.188.348-.44.392-.742z"/></g></svg>