<svg xmlns="http://www.w3.org/2000/svg" version="1.1" xmlns:xlink="http://www.w3.org/1999/xlink" xmlns:svgjs="http://svgjs.com/svgjs" viewBox="0 0 140 140" width="140" height="140"><g transform="matrix(5.833333333333333,0,0,5.833333333333333,0,0)"><path d="M19.5,9.814V9A7.522,7.522,0,0,0,12,1.5h0A7.522,7.522,0,0,0,4.5,9v.814" fill="none" stroke="#000000" stroke-linecap="round" stroke-linejoin="round" stroke-width="1.5"></path><path d="M5.25,15.375A1.125,1.125,0,0,1,4.125,16.5h0A3.375,3.375,0,0,1,.75,13.125h0A3.375,3.375,0,0,1,4.125,9.75h0A1.125,1.125,0,0,1,5.25,10.875Z" fill="none" stroke="#000000" stroke-linecap="round" stroke-linejoin="round" stroke-width="1.5"></path><path d="M18.75,15.375A1.125,1.125,0,0,0,19.875,16.5h0a3.375,3.375,0,0,0,3.375-3.375h0A3.375,3.375,0,0,0,19.875,9.75h0a1.125,1.125,0,0,0-1.125,1.125Z" fill="none" stroke="#000000" stroke-linecap="round" stroke-linejoin="round" stroke-width="1.5"></path><path d="M17.25,10.5H6.75A1.5,1.5,0,0,0,5.25,12v4.5A1.5,1.5,0,0,0,6.75,18h3L12,16.5,14.249,18h3a1.5,1.5,0,0,0,1.5-1.5V12A1.5,1.5,0,0,0,17.25,10.5Z" fill="none" stroke="#000000" stroke-linecap="round" stroke-linejoin="round" stroke-width="1.5"></path><path d="M8.25 13.5L15.75 13.5" fill="none" stroke="#000000" stroke-linecap="round" stroke-linejoin="round" stroke-width="1.5"></path><path d="M7.5,21a7.5,7.5,0,0,0,9.749-.646" fill="none" stroke="#000000" stroke-linecap="round" stroke-linejoin="round" stroke-width="1.5"></path></g></svg>