<svg xmlns="http://www.w3.org/2000/svg" version="1.1" xmlns:xlink="http://www.w3.org/1999/xlink" xmlns:svgjs="http://svgjs.com/svgjs" viewBox="0 0 140 140" width="140" height="140"><g transform="matrix(5.833333333333333,0,0,5.833333333333333,0,0)"><path d="M15.75,9.759v2.25L23.043,21a1.5,1.5,0,0,1-1.293,2.26H2.25A1.5,1.5,0,0,1,.957,21l7.293-8.99V9.759" fill="none" stroke="#000000" stroke-linecap="round" stroke-linejoin="round" stroke-width="1.5"></path><path d="M12 15.759L12 6.759" fill="none" stroke="#000000" stroke-linecap="round" stroke-linejoin="round" stroke-width="1.5"></path><path d="M16.286,5.045A6.971,6.971,0,0,1,12,6.759a6.967,6.967,0,0,1,1.714-4.285A6.975,6.975,0,0,1,18,.759,6.971,6.971,0,0,1,16.286,5.045Z" fill="none" stroke="#000000" stroke-linecap="round" stroke-linejoin="round" stroke-width="1.5"></path><path d="M7.714,5.045A6.971,6.971,0,0,0,12,6.759a6.967,6.967,0,0,0-1.714-4.285A6.975,6.975,0,0,0,6,.759,6.971,6.971,0,0,0,7.714,5.045Z" fill="none" stroke="#000000" stroke-linecap="round" stroke-linejoin="round" stroke-width="1.5"></path><path d="M16.125,18.009a.375.375,0,0,1,.375.375" fill="none" stroke="#000000" stroke-linecap="round" stroke-linejoin="round" stroke-width="1.5"></path><path d="M15.75,18.384a.375.375,0,0,1,.375-.375" fill="none" stroke="#000000" stroke-linecap="round" stroke-linejoin="round" stroke-width="1.5"></path><path d="M16.125,18.759a.375.375,0,0,1-.375-.375" fill="none" stroke="#000000" stroke-linecap="round" stroke-linejoin="round" stroke-width="1.5"></path><path d="M16.5,18.384a.375.375,0,0,1-.375.375" fill="none" stroke="#000000" stroke-linecap="round" stroke-linejoin="round" stroke-width="1.5"></path><path d="M8.625,16.509A.375.375,0,0,1,9,16.884" fill="none" stroke="#000000" stroke-linecap="round" stroke-linejoin="round" stroke-width="1.5"></path><path d="M8.25,16.884a.375.375,0,0,1,.375-.375" fill="none" stroke="#000000" stroke-linecap="round" stroke-linejoin="round" stroke-width="1.5"></path><path d="M8.625,17.259a.375.375,0,0,1-.375-.375" fill="none" stroke="#000000" stroke-linecap="round" stroke-linejoin="round" stroke-width="1.5"></path><path d="M9,16.884a.375.375,0,0,1-.375.375" fill="none" stroke="#000000" stroke-linecap="round" stroke-linejoin="round" stroke-width="1.5"></path><path d="M11.625,19.509a.375.375,0,0,1,.375.375" fill="none" stroke="#000000" stroke-linecap="round" stroke-linejoin="round" stroke-width="1.5"></path><path d="M11.25,19.884a.375.375,0,0,1,.375-.375" fill="none" stroke="#000000" stroke-linecap="round" stroke-linejoin="round" stroke-width="1.5"></path><path d="M11.625,20.259a.375.375,0,0,1-.375-.375" fill="none" stroke="#000000" stroke-linecap="round" stroke-linejoin="round" stroke-width="1.5"></path><path d="M12,19.884a.375.375,0,0,1-.375.375" fill="none" stroke="#000000" stroke-linecap="round" stroke-linejoin="round" stroke-width="1.5"></path></g></svg>