<svg xmlns="http://www.w3.org/2000/svg" version="1.1" xmlns:xlink="http://www.w3.org/1999/xlink" xmlns:svgjs="http://svgjs.com/svgjs" viewBox="0 0 140 140" width="140" height="140"><g transform="matrix(5.833333333333333,0,0,5.833333333333333,0,0)"><path d="M4.919 16.500 A6.750 6.750 0 1 0 18.419 16.500 A6.750 6.750 0 1 0 4.919 16.500 Z" fill="none" stroke="#000000" stroke-linecap="round" stroke-linejoin="round" stroke-width="1.5"></path><path d="M10.75 12.75L10.75 16.5 13.75 18.75" fill="none" stroke="#000000" stroke-linecap="round" stroke-linejoin="round" stroke-width="1.5"></path><path d="M18.379,15.764a5.48,5.48,0,0,0,3.79-5.264,7.558,7.558,0,0,0-2.25-5.25,2.6,2.6,0,0,1-3,2.25,5.69,5.69,0,0,1-1.5-6.75c-4.688,0-7.688,2.766-8.25,6.75a2.758,2.758,0,0,1-3-2.25c-3.764,3.2-2.853,9.043.789,10.517" fill="none" stroke="#000000" stroke-linecap="round" stroke-linejoin="round" stroke-width="1.5"></path></g></svg>