<svg xmlns="http://www.w3.org/2000/svg" xmlns:xlink="http://www.w3.org/1999/xlink" viewBox="0 0 64 64" version="1.1">
<g id="surface1">
<path style=" " d="M 32 0.121094 C 29.9375 0.121094 27.875 0.761719 26.117188 2.039063 L 23.425781 4 L 9 4 C 7.347656 4 6 5.347656 6 7 L 6 59 C 6 60.652344 7.347656 62 9 62 L 55 62 C 56.652344 62 58 60.652344 58 59 L 58 7 C 58 5.347656 56.652344 4 55 4 L 40.574219 4 L 37.878906 2.039063 C 36.121094 0.761719 34.058594 0.121094 32 0.121094 Z M 32 2.125 C 33.648438 2.125 35.296875 2.636719 36.703125 3.65625 L 40.765625 6.609375 C 41.539063 7.171875 42 8.082031 42 9.039063 L 42 11 C 42 11.550781 41.550781 12 41 12 L 23 12 C 22.449219 12 22 11.550781 22 11 L 22 9.039063 C 22 8.082031 22.460938 7.171875 23.234375 6.609375 L 27.296875 3.65625 C 28.703125 2.636719 30.351563 2.125 32 2.125 Z M 32 4 C 31.035156 4 30.226563 4.6875 30.042969 5.597656 C 30.015625 5.726563 30 5.863281 30 6 C 30 6.136719 30.015625 6.273438 30.042969 6.402344 C 30.226563 7.3125 31.035156 8 32 8 C 32.964844 8 33.773438 7.3125 33.957031 6.402344 C 33.984375 6.273438 34 6.136719 34 6 C 34 5.863281 33.984375 5.726563 33.957031 5.597656 C 33.773438 4.6875 32.964844 4 32 4 Z M 9 6 L 21.039063 6 C 20.378906 6.863281 20 7.929688 20 9.039063 L 20 10 L 14 10 C 12.898438 10 12 10.898438 12 12 L 12 54 C 12 55.101563 12.898438 56 14 56 L 42.171875 56 C 42.972656 56 43.726563 55.6875 44.292969 55.121094 L 51.121094 48.292969 C 51.6875 47.726563 52 46.972656 52 46.171875 L 52 12 C 52 10.898438 51.101563 10 50 10 L 44 10 L 44 9.039063 C 44 7.929688 43.621094 6.863281 42.960938 6 L 55 6 C 55.550781 6 56 6.449219 56 7 L 56 59 C 56 59.550781 55.550781 60 55 60 L 9 60 C 8.449219 60 8 59.550781 8 59 L 8 7 C 8 6.449219 8.449219 6 9 6 Z M 14 12 L 20.183594 12 C 20.597656 13.160156 21.699219 14 23 14 L 41 14 C 42.300781 14 43.402344 13.160156 43.816406 12 L 50 12 L 50 46 L 44 46 C 42.898438 46 42 46.898438 42 48 L 42 54 L 14 54 Z M 17 16 C 16.449219 16 16 16.449219 16 17 L 16 19 C 16 19.550781 16.449219 20 17 20 C 17.550781 20 18 19.550781 18 19 L 18 17 C 18 16.449219 17.550781 16 17 16 Z M 22 16 C 21.449219 16 21 16.449219 21 17 L 21 19 C 21 19.550781 21.449219 20 22 20 C 22.550781 20 23 19.550781 23 19 L 23 17 C 23 16.449219 22.550781 16 22 16 Z M 27 16 C 26.449219 16 26 16.449219 26 17 L 26 19 C 26 19.550781 26.449219 20 27 20 C 27.550781 20 28 19.550781 28 19 L 28 17 C 28 16.449219 27.550781 16 27 16 Z M 32 16 C 31.449219 16 31 16.449219 31 17 L 31 19 C 31 19.550781 31.449219 20 32 20 C 32.550781 20 33 19.550781 33 19 L 33 17 C 33 16.449219 32.550781 16 32 16 Z M 37 16 C 36.449219 16 36 16.449219 36 17 L 36 19 C 36 19.550781 36.449219 20 37 20 C 37.550781 20 38 19.550781 38 19 L 38 17 C 38 16.449219 37.550781 16 37 16 Z M 42 16 C 41.449219 16 41 16.449219 41 17 L 41 19 C 41 19.550781 41.449219 20 42 20 C 42.550781 20 43 19.550781 43 19 L 43 17 C 43 16.449219 42.550781 16 42 16 Z M 47 16 C 46.449219 16 46 16.449219 46 17 L 46 19 C 46 19.550781 46.449219 20 47 20 C 47.550781 20 48 19.550781 48 19 L 48 17 C 48 16.449219 47.550781 16 47 16 Z M 20 26 C 18.898438 26 18 26.898438 18 28 L 18 30 C 18 31.101563 18.898438 32 20 32 L 22 32 C 23.101563 32 24 31.101563 24 30 L 24 28 C 24 26.898438 23.101563 26 22 26 Z M 27 26 C 26.449219 26 26 26.449219 26 27 C 26 27.550781 26.449219 28 27 28 L 37 28 C 37.550781 28 38 27.550781 38 27 C 38 26.449219 37.550781 26 37 26 Z M 41 26 C 40.449219 26 40 26.449219 40 27 C 40 27.550781 40.449219 28 41 28 L 45 28 C 45.550781 28 46 27.550781 46 27 C 46 26.449219 45.550781 26 45 26 Z M 19.625 27.625 L 22.375 27.625 L 22.375 30.375 L 19.625 30.375 Z M 27 30 C 26.449219 30 26 30.449219 26 31 C 26 31.550781 26.449219 32 27 32 L 39 32 C 39.550781 32 40 31.550781 40 31 C 40 30.449219 39.550781 30 39 30 Z M 23 36 C 22.746094 36 22.488281 36.097656 22.292969 36.292969 L 20 38.585938 L 19.707031 38.292969 C 19.316406 37.902344 18.683594 37.902344 18.292969 38.292969 C 17.902344 38.683594 17.902344 39.316406 18.292969 39.707031 L 19.292969 40.707031 C 19.488281 40.902344 19.742188 41 20 41 C 20.257813 41 20.511719 40.902344 20.707031 40.707031 L 23.707031 37.707031 C 24.097656 37.316406 24.097656 36.683594 23.707031 36.292969 C 23.511719 36.097656 23.253906 36 23 36 Z M 27 36 C 26.449219 36 26 36.449219 26 37 C 26 37.550781 26.449219 38 27 38 L 43 38 C 43.550781 38 44 37.550781 44 37 C 44 36.449219 43.550781 36 43 36 Z M 27 40 C 26.449219 40 26 40.449219 26 41 C 26 41.550781 26.449219 42 27 42 L 39 42 C 39.550781 42 40 41.550781 40 41 C 40 40.449219 39.550781 40 39 40 Z M 44 48 L 48.585938 48 L 44 52.585938 Z "></path>
</g>
</svg>