<svg xmlns="http://www.w3.org/2000/svg" version="1.1" xmlns:xlink="http://www.w3.org/1999/xlink" xmlns:svgjs="http://svgjs.com/svgjs" viewBox="0 0 140 140" width="140" height="140"><g transform="matrix(5.833333333333333,0,0,5.833333333333333,0,0)"><path d="M7.875 7.875L7.875 7.875" fill="none" stroke="#000000" stroke-linecap="round" stroke-linejoin="round" stroke-width="1.5"></path><path d="M8.25,8.25a.375.375,0,0,0-.375-.375" fill="none" stroke="#000000" stroke-linecap="round" stroke-linejoin="round" stroke-width="1.5"></path><path d="M7.875,7.875a.375.375,0,1,0,.375.375" fill="none" stroke="#000000" stroke-linecap="round" stroke-linejoin="round" stroke-width="1.5"></path><path d="M12.375 7.875L12.375 7.875" fill="none" stroke="#000000" stroke-linecap="round" stroke-linejoin="round" stroke-width="1.5"></path><path d="M12.375,7.875a.375.375,0,1,0,.375.375.375.375,0,0,0-.375-.375" fill="none" stroke="#000000" stroke-linecap="round" stroke-linejoin="round" stroke-width="1.5"></path><path d="M4.500 20.625 A1.875 1.875 0 1 0 8.250 20.625 A1.875 1.875 0 1 0 4.500 20.625 Z" fill="none" stroke="#000000" stroke-linecap="round" stroke-linejoin="round" stroke-width="1.5"></path><path d="M1.125 22.5L1.125 22.5" fill="none" stroke="#000000" stroke-linecap="round" stroke-linejoin="round" stroke-width="1.5"></path><path d="M1.125,22.5a.375.375,0,1,0,.375.375.375.375,0,0,0-.375-.375" fill="none" stroke="#000000" stroke-linecap="round" stroke-linejoin="round" stroke-width="1.5"></path><path d="M16.875 7.875L16.875 7.875" fill="none" stroke="#000000" stroke-linecap="round" stroke-linejoin="round" stroke-width="1.5"></path><path d="M17.25,8.25a.375.375,0,0,0-.375-.375" fill="none" stroke="#000000" stroke-linecap="round" stroke-linejoin="round" stroke-width="1.5"></path><path d="M16.5,8.25a.375.375,0,0,0,.75,0" fill="none" stroke="#000000" stroke-linecap="round" stroke-linejoin="round" stroke-width="1.5"></path><path d="M16.875,7.875a.375.375,0,0,0-.375.375" fill="none" stroke="#000000" stroke-linecap="round" stroke-linejoin="round" stroke-width="1.5"></path><path d="M3.786,6.365A3.667,3.667,0,0,1,3.75,6a3.746,3.746,0,0,1,6.368-2.679A7.493,7.493,0,1,1,15.75,15.75H5.625A4.872,4.872,0,0,1,3.786,6.365Z" fill="none" stroke="#000000" stroke-linecap="round" stroke-linejoin="round" stroke-width="1.5"></path></g></svg>