<svg xmlns="http://www.w3.org/2000/svg" version="1.1" xmlns:xlink="http://www.w3.org/1999/xlink" xmlns:svgjs="http://svgjs.com/svgjs" viewBox="0 0 140 140" width="140" height="140"><g transform="matrix(5.833333333333333,0,0,5.833333333333333,0,0)"><path d="M12.75.75A10.485,10.485,0,0,0,3.833,16.775L.75,23.25l6.475-3.084A10.5,10.5,0,1,0,12.75.75Z" fill="none" stroke="#000000" stroke-linecap="round" stroke-linejoin="round" stroke-width="1.5"></path><path d="M6.750 11.250 A6.000 6.000 0 1 0 18.750 11.250 A6.000 6.000 0 1 0 6.750 11.250 Z" fill="none" stroke="#000000" stroke-linecap="round" stroke-linejoin="round" stroke-width="1.5"></path><path d="M7.552,8.251H9a1.5,1.5,0,0,1,1.5,1.5v.7a1.5,1.5,0,0,0,.668,1.248l.958.639a1.4,1.4,0,0,1,0,2.332L9.6,16.354" fill="none" stroke="#000000" stroke-linecap="round" stroke-linejoin="round" stroke-width="1.5"></path><path d="M17.948,8.251h-.7a1.5,1.5,0,0,0-1.342,2.171c.427.854.525.895.79,1.054l1.9,1.138" fill="none" stroke="#000000" stroke-linecap="round" stroke-linejoin="round" stroke-width="1.5"></path></g></svg>