<svg xmlns="http://www.w3.org/2000/svg" version="1.1" xmlns:xlink="http://www.w3.org/1999/xlink" xmlns:svgjs="http://svgjs.com/svgjs" viewBox="0 0 140 140" width="140" height="140"><g transform="matrix(5.833333333333333,0,0,5.833333333333333,0,0)"><path d="M19.526.75,16.572,7.994A.749.749,0,0,0,17.276,9h4.5a.749.749,0,0,0,.705-1.006Z" fill="none" stroke="#000000" stroke-linecap="round" stroke-linejoin="round" stroke-width="1.5"></path><path d="M19.526 9L19.526 12" fill="none" stroke="#000000" stroke-linecap="round" stroke-linejoin="round" stroke-width="1.5"></path><path d="M4.526,9,8.469,4.369a.751.751,0,0,1,1.115,0L13.526,9" fill="none" stroke="#000000" stroke-linecap="round" stroke-linejoin="round" stroke-width="1.5"></path><path d="M22.473,12a.751.751,0,0,1,.749.8,11.251,11.251,0,0,1-22.444,0,.751.751,0,0,1,.748-.8Z" fill="none" stroke="#000000" stroke-linecap="round" stroke-linejoin="round" stroke-width="1.5"></path><path d="M4.992,20.792,6,15.75H7.079a1.5,1.5,0,0,0,1.455-1.864L8.061,12" fill="none" stroke="#000000" stroke-linecap="round" stroke-linejoin="round" stroke-width="1.5"></path><path d="M17.875,12l.666,4a1.5,1.5,0,0,0,1.48,1.253h1.925" fill="none" stroke="#000000" stroke-linecap="round" stroke-linejoin="round" stroke-width="1.5"></path></g></svg>