<svg xmlns="http://www.w3.org/2000/svg" version="1.1" xmlns:xlink="http://www.w3.org/1999/xlink" xmlns:svgjs="http://svgjs.com/svgjs" viewBox="0 0 140 140" width="140" height="140"><g transform="matrix(5.833333333333333,0,0,5.833333333333333,0,0)"><path d="M21.75 6.013L19.5 8.263 17.25 6.013" fill="none" stroke="#000000" stroke-linecap="round" stroke-linejoin="round" stroke-width="1.5"></path><path d="M16.5,2.263a3,3,0,0,1,3,3v3" fill="none" stroke="#000000" stroke-linecap="round" stroke-linejoin="round" stroke-width="1.5"></path><path d="M1.5 18.013L3.75 15.763 6 18.013" fill="none" stroke="#000000" stroke-linecap="round" stroke-linejoin="round" stroke-width="1.5"></path><path d="M6.75,21.763a3,3,0,0,1-3-3v-3" fill="none" stroke="#000000" stroke-linecap="round" stroke-linejoin="round" stroke-width="1.5"></path><path d="M23.25,20.263V18.634a1.5,1.5,0,0,0-.439-1.06L21.75,15.763H11.25l-1.061,1.811a1.5,1.5,0,0,0-.439,1.06v1.629a1.5,1.5,0,0,0,1.5,1.5h10.5A1.5,1.5,0,0,0,23.25,20.263Z" fill="none" stroke="#000000" stroke-linecap="round" stroke-linejoin="round" stroke-width="1.5"></path><path d="M19.169,11.263a1.528,1.528,0,0,1,1.423.769l1.158,3.731H11.25l1.158-3.731a1.528,1.528,0,0,1,1.423-.769Z" fill="none" stroke="#000000" stroke-linecap="round" stroke-linejoin="round" stroke-width="1.5"></path><path d="M12.75 18.763L14.25 18.763" fill="none" stroke="#000000" stroke-linecap="round" stroke-linejoin="round" stroke-width="1.5"></path><path d="M18.75 18.763L20.25 18.763" fill="none" stroke="#000000" stroke-linecap="round" stroke-linejoin="round" stroke-width="1.5"></path><path d="M11.25 21.763L11.25 23.263" fill="none" stroke="#000000" stroke-linecap="round" stroke-linejoin="round" stroke-width="1.5"></path><path d="M21.75 21.763L21.75 23.263" fill="none" stroke="#000000" stroke-linecap="round" stroke-linejoin="round" stroke-width="1.5"></path><path d="M0.750 0.763 L10.500 0.763 L10.500 10.513 L0.750 10.513 Z" fill="none" stroke="#000000" stroke-linecap="round" stroke-linejoin="round" stroke-width="1.5"></path><path d="M2.25 10.513L2.25 12.013" fill="none" stroke="#000000" stroke-linecap="round" stroke-linejoin="round" stroke-width="1.5"></path><path d="M9 10.513L9 12.013" fill="none" stroke="#000000" stroke-linecap="round" stroke-linejoin="round" stroke-width="1.5"></path><path d="M0.75 5.263L10.5 5.263" fill="none" stroke="#000000" stroke-linecap="round" stroke-linejoin="round" stroke-width="1.5"></path><path d="M3.375,7.513a.375.375,0,0,1,.375.375" fill="none" stroke="#000000" stroke-linecap="round" stroke-linejoin="round" stroke-width="1.5"></path><path d="M3,7.888a.375.375,0,0,1,.375-.375" fill="none" stroke="#000000" stroke-linecap="round" stroke-linejoin="round" stroke-width="1.5"></path><path d="M3.375,8.263A.375.375,0,0,1,3,7.888" fill="none" stroke="#000000" stroke-linecap="round" stroke-linejoin="round" stroke-width="1.5"></path><path d="M3.75,7.888a.375.375,0,0,1-.375.375" fill="none" stroke="#000000" stroke-linecap="round" stroke-linejoin="round" stroke-width="1.5"></path><path d="M7.875,7.513a.375.375,0,0,1,.375.375" fill="none" stroke="#000000" stroke-linecap="round" stroke-linejoin="round" stroke-width="1.5"></path><path d="M7.5,7.888a.375.375,0,0,1,.375-.375" fill="none" stroke="#000000" stroke-linecap="round" stroke-linejoin="round" stroke-width="1.5"></path><path d="M7.875,8.263A.375.375,0,0,1,7.5,7.888" fill="none" stroke="#000000" stroke-linecap="round" stroke-linejoin="round" stroke-width="1.5"></path><path d="M8.25,7.888a.375.375,0,0,1-.375.375" fill="none" stroke="#000000" stroke-linecap="round" stroke-linejoin="round" stroke-width="1.5"></path></g></svg>