<svg xmlns="http://www.w3.org/2000/svg" xmlns:xlink="http://www.w3.org/1999/xlink" viewBox="0 0 50 50" version="1.1">
<g id="surface1">
<path style=" " d="M 42.96875 0.03125 C 42.164063 0.03125 42 0.4375 42 0.96875 L 42 8 C 42 9.117188 42 10 40 10 C 37.144531 10 36 11.21875 36 13 C 36 13.8125 36.625 16 40 16 C 43.753906 16 44 13.351563 44 12 L 44 5.03125 C 44 4.339844 44.0625 4 44.46875 4 C 46.320313 4 47.058594 5 49.03125 5 C 49.03125 5 50 4.980469 50 4.03125 L 50 1.96875 C 50 1.199219 49.640625 1.03125 49 1.03125 C 45.421875 1.03125 46.324219 0.03125 42.96875 0.03125 Z M 24.53125 17.0625 C 19.089844 17.0625 15 21.308594 15 26.5625 C 15 29.027344 15.269531 33.398438 13.71875 36.65625 C 12.941406 38.285156 11.753906 39.625 9.8125 40.46875 C 7.871094 41.3125 5.101563 41.632813 1.15625 40.96875 C 0.710938 40.894531 0.273438 41.125 0.0820313 41.535156 C -0.109375 41.941406 0 42.429688 0.34375 42.71875 C 3.78125 45.605469 9.914063 46.875 14.5625 46.96875 C 14.363281 47.144531 14.21875 47.3125 14.21875 47.3125 C 13.839844 47.742188 13.882813 48.402344 14.3125 48.78125 C 14.742188 49.160156 15.402344 49.117188 15.78125 48.6875 C 15.78125 48.6875 17.222656 47.03125 20 47.03125 C 22.777344 47.03125 24.21875 48.6875 24.21875 48.6875 C 24.597656 49.117188 25.257813 49.160156 25.6875 48.78125 C 26.117188 48.402344 26.160156 47.742188 25.78125 47.3125 C 25.78125 47.3125 24.730469 46.191406 22.875 45.5 C 24.851563 44.679688 26.675781 43.535156 28.21875 42.03125 C 31.507813 38.828125 33.605469 34.09375 33.9375 28.0625 C 35.683594 27.238281 37.003906 26.269531 37.875 24.40625 C 38.019531 24.109375 38.011719 23.761719 37.847656 23.472656 C 37.683594 23.1875 37.390625 22.996094 37.0625 22.96875 C 37.492188 22.289063 37.878906 21.425781 37.96875 20.40625 C 38.128906 20.066406 38.082031 19.664063 37.851563 19.367188 C 37.621094 19.070313 37.242188 18.929688 36.875 19 C 36.679688 19.019531 36.496094 19.09375 36.34375 19.21875 C 35.445313 19.972656 33.496094 20.480469 32.125 20.6875 C 30.433594 18.433594 27.710938 17.0625 24.53125 17.0625 Z M 24.53125 19.0625 C 27.171875 19.0625 29.257813 20.160156 30.5625 21.9375 C 30.636719 22.417969 31.046875 22.773438 31.53125 22.78125 C 31.550781 22.78125 31.574219 22.78125 31.59375 22.78125 C 31.625 22.78125 31.65625 22.78125 31.6875 22.78125 C 31.761719 22.777344 31.835938 22.769531 31.90625 22.75 C 32.816406 22.652344 34.054688 22.449219 35.28125 22.03125 C 34.882813 22.636719 34.46875 23.03125 34.46875 23.03125 L 32.84375 24.4375 L 34.9375 24.78125 C 34.9375 24.78125 35.125 24.789063 35.28125 24.8125 C 34.691406 25.511719 33.929688 25.929688 32.6875 26.46875 C 32.65625 26.476563 32.625 26.488281 32.59375 26.5 C 32.578125 26.507813 32.578125 26.523438 32.5625 26.53125 C 32.550781 26.53125 32.542969 26.53125 32.53125 26.53125 C 32.234375 26.613281 31.988281 26.832031 31.875 27.121094 C 31.757813 27.40625 31.78125 27.730469 31.9375 28 C 31.621094 33.605469 29.699219 37.78125 26.8125 40.59375 C 23.824219 43.507813 19.753906 45 15.125 45 C 12.300781 45 8.671875 44.3125 5.65625 43.21875 C 7.566406 43.148438 9.261719 42.90625 10.625 42.3125 C 13.023438 41.269531 14.5625 39.46875 15.5 37.5 C 17.375 33.5625 17 28.847656 17 26.5625 C 17 22.316406 20.109375 19.0625 24.53125 19.0625 Z M 27.5 22 C 26.671875 22 26 22.671875 26 23.5 C 26 24.328125 26.671875 25 27.5 25 C 28.328125 25 29 24.328125 29 23.5 C 29 22.671875 28.328125 22 27.5 22 Z "></path>
</g>
</svg>