<svg xmlns="http://www.w3.org/2000/svg" version="1.1" xmlns:xlink="http://www.w3.org/1999/xlink" xmlns:svgjs="http://svgjs.com/svgjs" viewBox="0 0 140 140" width="140" height="140"><g transform="matrix(5.833333333333333,0,0,5.833333333333333,0,0)"><path d="M10.125,11.25a.375.375,0,0,1,.375.375" fill="none" stroke="#000000" stroke-linecap="round" stroke-linejoin="round" stroke-width="1.5"></path><path d="M9.75,11.625a.375.375,0,0,1,.375-.375" fill="none" stroke="#000000" stroke-linecap="round" stroke-linejoin="round" stroke-width="1.5"></path><path d="M10.125,12a.375.375,0,0,1-.375-.375" fill="none" stroke="#000000" stroke-linecap="round" stroke-linejoin="round" stroke-width="1.5"></path><path d="M10.5,11.625a.375.375,0,0,1-.375.375" fill="none" stroke="#000000" stroke-linecap="round" stroke-linejoin="round" stroke-width="1.5"></path><path d="M18,9.938,13.526,5.27a2.648,2.648,0,0,1-.5-3.056h0a2.648,2.648,0,0,1,4.24-.688L18,2.257l.731-.731a2.648,2.648,0,0,1,4.24.688h0a2.65,2.65,0,0,1-.5,3.056Z" fill="none" stroke="#000000" stroke-linecap="round" stroke-linejoin="round" stroke-width="1.5"></path><path d="M7.026,17.968C3.675,18.169.75,17.485.75,14.25V13.5a.75.75,0,0,1,.75-.75H6V12a3.75,3.75,0,0,1,7.5,0v5.25a6,6,0,0,1-6,6H.75l2.625-2.625" fill="none" stroke="#000000" stroke-linecap="round" stroke-linejoin="round" stroke-width="1.5"></path><path d="M13.5 12.75L15.75 12.75" fill="none" stroke="#000000" stroke-linecap="round" stroke-linejoin="round" stroke-width="1.5"></path></g></svg>