<svg xmlns="http://www.w3.org/2000/svg" version="1.1" xmlns:xlink="http://www.w3.org/1999/xlink" xmlns:svgjs="http://svgjs.com/svgjs" viewBox="0 0 140 140" width="140" height="140"><g transform="matrix(5.833333333333333,0,0,5.833333333333333,0,0)"><path d="M19.5,12.879V2.25A1.5,1.5,0,0,0,18,.75H6a1.5,1.5,0,0,0-1.5,1.5V12.879" fill="none" stroke="#000000" stroke-linecap="round" stroke-linejoin="round" stroke-width="1.5"></path><path d="M21.284,11.464a.751.751,0,0,1,1.216.588v9.7a1.5,1.5,0,0,1-1.5,1.5H3a1.5,1.5,0,0,1-1.5-1.5v-9.7a.751.751,0,0,1,1.216-.588l7.431,5.9a3,3,0,0,0,3.706,0Z" fill="none" stroke="#000000" stroke-linecap="round" stroke-linejoin="round" stroke-width="1.5"></path><path d="M15.808 15.808L18.75 18.75" fill="none" stroke="#000000" stroke-linecap="round" stroke-linejoin="round" stroke-width="1.5"></path><path d="M8.192 15.808L5.25 18.75" fill="none" stroke="#000000" stroke-linecap="round" stroke-linejoin="round" stroke-width="1.5"></path><path d="M16.606 3.646L14.55 10.5 9 10.5 7.5 6 15.9 6" fill="none" stroke="#000000" stroke-linecap="round" stroke-linejoin="round" stroke-width="1.5"></path><path d="M9.375,12.75A.375.375,0,1,1,9,13.125a.375.375,0,0,1,.375-.375" fill="none" stroke="#000000" stroke-linecap="round" stroke-linejoin="round" stroke-width="1.5"></path><path d="M14.175,12.75a.375.375,0,1,1-.375.375.375.375,0,0,1,.375-.375" fill="none" stroke="#000000" stroke-linecap="round" stroke-linejoin="round" stroke-width="1.5"></path></g></svg>