<svg xmlns="http://www.w3.org/2000/svg" version="1.1" xmlns:xlink="http://www.w3.org/1999/xlink" xmlns:svgjs="http://svgjs.com/svgjs" viewBox="0 0 140 140" width="140" height="140"><g transform="matrix(5.833333333333333,0,0,5.833333333333333,0,0)"><path d="M4.087 5.242L19.913 5.242" fill="none" stroke="#000000" stroke-linecap="round" stroke-linejoin="round" stroke-width="1.5"></path><path d="M8.561.742h6.878a.755.755,0,0,1,.531.22l3.724,3.724a.751.751,0,0,1-.026,1.086l-7.163,6.512a.751.751,0,0,1-1.01,0L4.332,5.772a.751.751,0,0,1-.026-1.086L8.03.962A.755.755,0,0,1,8.561.742Z" fill="none" stroke="#000000" stroke-linecap="round" stroke-linejoin="round" stroke-width="1.5"></path><path d="M8.269 0.802L11.916 12.474" fill="none" stroke="#000000" stroke-linecap="round" stroke-linejoin="round" stroke-width="1.5"></path><path d="M15.731 0.802L12.084 12.474" fill="none" stroke="#000000" stroke-linecap="round" stroke-linejoin="round" stroke-width="1.5"></path><path d="M3.75,23.242,1.736,20.725A4.5,4.5,0,0,1,.75,17.914V12.742a1.5,1.5,0,0,1,1.5-1.5h0a1.5,1.5,0,0,1,1.5,1.5v3.75" fill="none" stroke="#000000" stroke-linecap="round" stroke-linejoin="round" stroke-width="1.5"></path><path d="M8.25,23.106v-3a4.5,4.5,0,0,0-.757-2.5L6.351,15.9a1.4,1.4,0,0,0-1.977-.444h0a1.4,1.4,0,0,0-.476,1.79l1.352,2.25" fill="none" stroke="#000000" stroke-linecap="round" stroke-linejoin="round" stroke-width="1.5"></path><path d="M20.25,23.242l2.014-2.517a4.5,4.5,0,0,0,.986-2.811V12.742a1.5,1.5,0,0,0-1.5-1.5h0a1.5,1.5,0,0,0-1.5,1.5v3.75" fill="none" stroke="#000000" stroke-linecap="round" stroke-linejoin="round" stroke-width="1.5"></path><path d="M15.75,23.106v-3a4.5,4.5,0,0,1,.757-2.5L17.649,15.9a1.4,1.4,0,0,1,1.977-.444h0a1.4,1.4,0,0,1,.476,1.79l-1.352,2.25" fill="none" stroke="#000000" stroke-linecap="round" stroke-linejoin="round" stroke-width="1.5"></path></g></svg>