<svg xmlns="http://www.w3.org/2000/svg" version="1.1" xmlns:xlink="http://www.w3.org/1999/xlink" xmlns:svgjs="http://svgjs.com/svgjs" viewBox="0 0 140 140" width="140" height="140"><g transform="matrix(5.833333333333333,0,0,5.833333333333333,0,0)"><path d="M7.961,6.75a.375.375,0,0,0,0-.75h0a.375.375,0,0,0,0,.75" fill="none" stroke="#000000" stroke-linecap="round" stroke-linejoin="round" stroke-width="1.5"></path><path d="M19.5,14.25,15.63,8.414A.749.749,0,0,0,14.392,8.4l-2,2.851-1.236-.989a.75.75,0,0,0-1.092.17L7.521,14.25" fill="none" stroke="#000000" stroke-linecap="round" stroke-linejoin="round" stroke-width="1.5"></path><path d="M6 14.25L19.5 14.25" fill="none" stroke="#000000" stroke-linecap="round" stroke-linejoin="round" stroke-width="1.5"></path><path d="M12.75.75A10.485,10.485,0,0,0,3.833,16.775L.75,23.25l6.474-3.083A10.5,10.5,0,1,0,12.75.75Z" fill="none" stroke="#000000" stroke-linecap="round" stroke-linejoin="round" stroke-width="1.5"></path></g></svg>