<svg xmlns="http://www.w3.org/2000/svg" version="1.1" xmlns:xlink="http://www.w3.org/1999/xlink" xmlns:svgjs="http://svgjs.com/svgjs" viewBox="0 0 140 140" width="140" height="140"><g transform="matrix(5.833333333333333,0,0,5.833333333333333,0,0)"><path d="M5.250 7.925 A6.75 7.175 0 1 0 18.750 7.925 A6.75 7.175 0 1 0 5.250 7.925 Z" fill="none" stroke="#000000" stroke-linecap="round" stroke-linejoin="round" stroke-width="1.5"></path><path d="M6.633,3.573A10.831,10.831,0,0,0,14.25,6.75a10.648,10.648,0,0,0,4.221-.874" fill="none" stroke="#000000" stroke-linecap="round" stroke-linejoin="round" stroke-width="1.5"></path><path d="M12.274,19.916l-5.2-2.422a1.14,1.14,0,0,0-1.652.952v3.738a1.147,1.147,0,0,0,1.775.885Z" fill="none" stroke="#000000" stroke-linecap="round" stroke-linejoin="round" stroke-width="1.5"></path><path d="M12.274,19.916l4.454-2.422a.984.984,0,0,1,1.416.951v3.739a.978.978,0,0,1-1.521.885Z" fill="none" stroke="#000000" stroke-linecap="round" stroke-linejoin="round" stroke-width="1.5"></path><path d="M14.121,11.121a3,3,0,0,1-4.242,0" fill="none" stroke="#000000" stroke-linecap="round" stroke-linejoin="round" stroke-width="1.5"></path></g></svg>