<svg xmlns="http://www.w3.org/2000/svg" version="1.1" xmlns:xlink="http://www.w3.org/1999/xlink" xmlns:svgjs="http://svgjs.com/svgjs" viewBox="0 0 140 140" width="140" height="140"><g transform="matrix(5.833333333333333,0,0,5.833333333333333,0,0)"><path d="M8.25,10.5a.375.375,0,1,1-.375.375A.375.375,0,0,1,8.25,10.5" fill="none" stroke="#000000" stroke-linecap="round" stroke-linejoin="round" stroke-width="1.5"></path><path d="M15.75,10.5a.375.375,0,1,1-.375.375.375.375,0,0,1,.375-.375" fill="none" stroke="#000000" stroke-linecap="round" stroke-linejoin="round" stroke-width="1.5"></path><path d="M18.316,21.311A11.25,11.25,0,1,1,22.6,8.234" fill="none" stroke="#000000" stroke-linecap="round" stroke-linejoin="round" stroke-width="1.5"></path><path d="M15.728,18.75a.764.764,0,0,0,.757-.9,4.595,4.595,0,0,0-8.97,0,.764.764,0,0,0,.757.9A9.64,9.64,0,0,1,15.728,18.75Z" fill="none" stroke="#000000" stroke-linecap="round" stroke-linejoin="round" stroke-width="1.5"></path><path d="M5.25,8.166a3.539,3.539,0,0,0,2.334-.291A3.542,3.542,0,0,0,9.268,6.232" fill="none" stroke="#000000" stroke-linecap="round" stroke-linejoin="round" stroke-width="1.5"></path><path d="M18.834,8.166a3.689,3.689,0,0,1-4.018-1.934" fill="none" stroke="#000000" stroke-linecap="round" stroke-linejoin="round" stroke-width="1.5"></path><path d="M23.25,16.25A2.384,2.384,0,0,1,21,18.75a2.384,2.384,0,0,1-2.25-2.5c0-1.381,2.25-5,2.25-5S23.25,14.869,23.25,16.25Z" fill="none" stroke="#000000" stroke-linecap="round" stroke-linejoin="round" stroke-width="1.5"></path></g></svg>