<svg xmlns="http://www.w3.org/2000/svg" version="1.1" xmlns:xlink="http://www.w3.org/1999/xlink" xmlns:svgjs="http://svgjs.com/svgjs" viewBox="0 0 140 140" width="140" height="140"><g transform="matrix(5.833333333333333,0,0,5.833333333333333,0,0)"><path d="M17.1,21.75H6.9a1.5,1.5,0,0,1-1.321-.789l-4.442-8.25a1.5,1.5,0,0,1,0-1.422l4.442-8.25A1.5,1.5,0,0,1,6.9,2.25H17.1a1.5,1.5,0,0,1,1.321.789l4.442,8.25a1.5,1.5,0,0,1,0,1.422l-4.442,8.25A1.5,1.5,0,0,1,17.1,21.75Z" fill="none" stroke="#000000" stroke-linecap="round" stroke-linejoin="round" stroke-width="1.5"></path><path d="M6.750 12.000 A5.250 5.250 0 1 0 17.250 12.000 A5.250 5.250 0 1 0 6.750 12.000 Z" fill="none" stroke="#000000" stroke-linecap="round" stroke-linejoin="round" stroke-width="1.5"></path></g></svg>