<svg width="64" height="51" viewBox="0 0 64 51" xmlns="http://www.w3.org/2000/svg"><title>Group 4</title><desc>Created with Sketch.</desc><ellipse cx="32" cy="9.6" rx="32" ry="9.6"/><path d="M4.281 20.39c5.533 3.047 15.874 5.098 27.719 5.098s22.186-2.05 27.719-5.098c2.723 1.5 4.281 3.241 4.281 5.098 0 5.631-14.327 10.195-32 10.195-17.673 0-32-4.564-32-10.195 0-1.857 1.558-3.598 4.281-5.098zM4.281 35.682c5.533 3.047 15.874 5.098 27.719 5.098s22.186-2.05 27.719-5.098c2.723 1.5 4.281 3.241 4.281 5.098 0 5.631-14.327 10.195-32 10.195-17.673 0-32-4.564-32-10.195 0-1.857 1.558-3.598 4.281-5.098z"/></svg>