<svg width="12" height="9" viewBox="0 0 12 9" xmlns="http://www.w3.org/2000/svg"><title>Group</title><desc>Created with Sketch.</desc><g fill="#77A5FF" fill-rule="nonzero"><path d="M11.949 3.912c-.108-.159-2.678-3.906-5.948-3.906-3.27 0-5.841 3.746-5.949 3.906-.069.102-.069.235 0 .336.108.159 2.679 3.905 5.949 3.905s5.841-3.746 5.948-3.905c.069-.102.069-.235 0-.336zm-5.949 2.796c-1.449 0-2.628-1.179-2.628-2.628s1.179-2.628 2.628-2.628 2.628 1.179 2.628 2.628-1.179 2.628-2.628 2.628zM6 2.802c-.705 0-1.278.573-1.278 1.278 0 .705.573 1.278 1.278 1.278.705 0 1.278-.573 1.278-1.278 0-.705-.573-1.278-1.278-1.278z"/></g></svg>