<svg width="64" height="64" viewBox="0 0 64 64" xmlns="http://www.w3.org/2000/svg"><title>Group</title><desc>Created with Sketch.</desc><path d="M20.779 20.779v22.442h22.442v-22.442h-22.442zm17.491 17.491h-12.541v-12.541h12.541v12.541zm-38.27-1.948v4.987h6.317v15.958h13.299v6.317h4.987v-6.317h14.379v6.317h4.987v-6.317h13.299v-15.958h6.317v-4.987h-6.317v-11.636h6.317v-4.987h-6.317v-13.299h-13.299v-6.4h-4.987v6.317h-14.296v-6.317h-4.987v6.317h-13.299v13.299h-6.4v4.987h6.317v11.636l-6.317.083zm11.304 4.987v-30.005h40.977v40.977h-40.977v-10.971z"/></svg>