<svg width="48" height="58" viewBox="0 0 48 58" xmlns="http://www.w3.org/2000/svg"><title>person</title><desc>Created with Sketch.</desc><g transform="translate(-3 -3) translate(3 2.167)" fill-rule="nonzero"><path d="M44.595 31.527c-1.139-.505-2.494-.763-3.872-.736h-4.311c-.953-.011-1.886.181-2.658.545-5.951 2.957-14.202 2.957-20.153 0-.777-.368-1.718-.559-2.679-.545h-4.311c-1.377-.026-2.732.232-3.872.736-2.676 1.245-3.424 3.623-1.716 5.453l17.119 18.963c.981 1.13 2.699 1.908 4.667 2.113 2.514.228 4.991-.552 6.278-1.977l17.265-19.086c1.713-1.84.944-4.23-1.758-5.467z"/><circle cx="23.667" cy="14.444" r="13.556"/></g></svg>