<svg width="64" height="52" viewBox="0 0 64 52" xmlns="http://www.w3.org/2000/svg"><title>video-game-level-solver</title><desc>Created with Sketch.</desc><g><path d="M27.559 34.142c-.924 2.948-4.785 14.217-10.381 16.141l-.05.012c-7.658 2.698-11.818-1.849-14.142-8.345-2.211-6.209-2.661-14.204-2.923-18.926l-.012-.262c-.162-2.948.175-5.772.999-8.295.937-2.886 2.474-5.372 4.56-7.183 2.111-1.836 4.76-2.973 7.87-3.148 1.974-.112 4.135.175 6.471.912 5.384 1.512 8.582 2.311 11.806 2.336 3.223.025 6.584-.737 12.293-2.336h.012c2.324-.75 4.485-1.024 6.459-.912 3.123.175 5.772 1.324 7.87 3.148 2.086 1.811 3.623 4.297 4.56 7.183.812 2.524 1.162 5.347.999 8.295l-.012.262c-.262 4.71-.712 12.718-2.923 18.926-2.324 6.509-6.496 11.056-14.179 8.32-5.597-1.924-9.457-13.192-10.381-16.141-1.449-.025-2.886-.037-4.422-.037-1.537 0-2.973.012-4.422.037l-.05.012zm-11.031 14.254c5.284-1.824 9.082-14.616 9.32-15.466.1-.437.487-.762.949-.762 1.949-.037 3.623-.062 5.184-.062 1.562 0 3.248.025 5.184.062.425.012.812.287.937.725.012.037 3.885 13.63 9.332 15.503h.012c6.246 2.224 9.694-1.624 11.643-7.108 2.124-5.947 2.561-13.767 2.811-18.364l.012-.262c.15-2.711-.162-5.284-.899-7.571-.825-2.536-2.161-4.722-3.973-6.284-1.786-1.549-4.023-2.524-6.671-2.673-1.736-.1-3.66.15-5.734.825l-.075.025c-5.884 1.649-9.382 2.436-12.842 2.411-3.473-.025-6.796-.85-12.33-2.411l-.037-.012c-2.099-.675-4.035-.937-5.784-.837-2.648.15-4.885 1.112-6.671 2.673-1.811 1.574-3.148 3.748-3.973 6.284-.737 2.286-1.049 4.872-.899 7.571l.012.262c.262 4.61.7 12.418 2.811 18.364 1.949 5.472 5.384 9.32 11.606 7.121l.05-.012h.025z" id="Shape" fill-rule="nonzero"/><circle id="Oval" transform="rotate(45 15.247 17.45)" cx="15.247" cy="17.45" r="2.709"/><circle id="Oval" transform="rotate(135 22.056 24.26)" cx="22.056" cy="24.26" r="2.709"/><circle id="Oval" transform="rotate(45 15.247 31.069)" cx="15.247" cy="31.069" r="2.709"/><circle transform="rotate(135 8.437 24.26)" cx="8.437" cy="24.26" r="2.709"/><path d="M58.403 24.261c0 .874-.35 1.662-.924 2.236-.575.575-1.362.924-2.236.924h-3.76v3.76c0 .874-.35 1.662-.924 2.236-.575.575-1.362.924-2.236.924-.874 0-1.662-.35-2.236-.924-.575-.575-.924-1.362-.924-2.236v-3.76h-3.76c-.874 0-1.662-.35-2.236-.924-.575-.575-.924-1.362-.924-2.236 0-.874.35-1.662.924-2.236.575-.575 1.362-.924 2.236-.924h3.76v-3.76c0-.874.35-1.662.924-2.236.575-.575 1.362-.924 2.236-.924.874 0 1.662.35 2.236.924.575.575.924 1.362.924 2.236v3.76h3.76c.874 0 1.662.35 2.236.924.575.575.924 1.362.924 2.236zm-1.999 0c0-.325-.137-.612-.337-.825-.212-.212-.5-.337-.825-.337h-4.76c-.55 0-.999-.45-.999-.999v-4.76c0-.325-.137-.612-.337-.825-.212-.212-.5-.337-.825-.337-.325 0-.612.137-.825.337-.212.212-.337.5-.337.825v4.76c0 .55-.45.999-.999.999h-4.76c-.325 0-.612.137-.825.337-.212.212-.337.5-.337.825 0 .325.137.612.337.825.212.212.5.337.825.337h4.76c.55 0 .999.45.999.999v4.76c0 .325.137.612.337.825.212.212.5.337.825.337.325 0 .612-.137.825-.337.212-.212.337-.5.337-.825v-4.76c0-.55.45-.999.999-.999h4.76c.325 0 .612-.137.825-.337.212-.212.337-.5.337-.825z" fill-rule="nonzero"/><path d="M9.757 6.371c0 .55-.45.999-.999.999-.55 0-.999-.45-.999-.999v-5.372c0-.55.45-.999.999-.999h11.581c.55 0 .999.45.999.999v5.209c0 .55-.45.999-.999.999-.55 0-.999-.45-.999-.999v-4.21h-9.582v4.372zM44.624 6.209c0 .55-.45.999-.999.999-.55 0-.999-.45-.999-.999v-5.209c0-.55.45-.999.999-.999h11.581c.55 0 .999.45.999.999v5.372c0 .55-.45.999-.999.999-.55 0-.999-.45-.999-.999v-4.372h-9.582v4.21z"/></g></svg>