<svg xmlns="http://www.w3.org/2000/svg" version="1.1" xmlns:xlink="http://www.w3.org/1999/xlink" xmlns:svgjs="http://svgjs.com/svgjs" viewBox="0 0 140 140" width="140" height="140"><g transform="matrix(5.833333333333333,0,0,5.833333333333333,0,0)"><path d="M3,5.25a11.252,11.252,0,0,1,18,0" fill="none" stroke="#000000" stroke-linecap="round" stroke-linejoin="round" stroke-width="1.5"></path><path d="M7.8,5.25C8.758,2.518,10.282.75,12,.75s3.243,1.768,4.2,4.5" fill="none" stroke="#000000" stroke-linecap="round" stroke-linejoin="round" stroke-width="1.5"></path><path d="M23.25 18.75L0.75 18.75" fill="none" stroke="#000000" stroke-linecap="round" stroke-linejoin="round" stroke-width="1.5"></path><path d="M0.75 5.25L23.25 5.25" fill="none" stroke="#000000" stroke-linecap="round" stroke-linejoin="round" stroke-width="1.5"></path><path d="M21,18.75a11.252,11.252,0,0,1-18,0" fill="none" stroke="#000000" stroke-linecap="round" stroke-linejoin="round" stroke-width="1.5"></path><path d="M16.2,18.75c-.957,2.733-2.482,4.5-4.2,4.5s-3.242-1.767-4.2-4.5" fill="none" stroke="#000000" stroke-linecap="round" stroke-linejoin="round" stroke-width="1.5"></path><path d="M2.25,8.25v2.859a9.014,9.014,0,0,0,.175,1.765L3,15.75l1.5-4.5L6,15.75l.575-2.876a8.938,8.938,0,0,0,.175-1.765V8.25" fill="none" stroke="#000000" stroke-linecap="round" stroke-linejoin="round" stroke-width="1.5"></path><path d="M9.75,8.25v2.859a9.014,9.014,0,0,0,.175,1.765L10.5,15.75l1.5-4.5,1.5,4.5.575-2.876a8.938,8.938,0,0,0,.175-1.765V8.25" fill="none" stroke="#000000" stroke-linecap="round" stroke-linejoin="round" stroke-width="1.5"></path><path d="M17.25,8.25v2.859a9.014,9.014,0,0,0,.175,1.765L18,15.75l1.5-4.5,1.5,4.5.575-2.876a8.938,8.938,0,0,0,.175-1.765V8.25" fill="none" stroke="#000000" stroke-linecap="round" stroke-linejoin="round" stroke-width="1.5"></path></g></svg>