<svg width="64" height="59" viewBox="0 0 64 59" xmlns="http://www.w3.org/2000/svg"><title>chat-buddy</title><desc>Created with Sketch.</desc><g><path d="M21.04 24.64c0-2.88-2.4-5.28-5.28-5.28-2.88 0-5.28 2.32-5.28 5.28 0 2.88 2.4 5.28 5.28 5.28 2.88 0 5.28-2.4 5.28-5.28zM31.76 29.92c2.88 0 5.28-2.32 5.28-5.28 0-2.88-2.4-5.28-5.28-5.28-2.88 0-5.28 2.32-5.28 5.28 0 2.88 2.32 5.28 5.28 5.28zM47.76 29.92c2.88 0 5.28-2.4 5.28-5.28 0-2.88-2.32-5.28-5.28-5.28-2.96 0-5.28 2.4-5.28 5.28 0 2.96 2.4 5.28 5.28 5.28z"/><path d="M51.6.72h-39.2c-6.64 0-12 5.36-12 12v24c0 6.64 5.36 12 12 12h12l6.24 8.96c.32.48.8.72 1.36.72s1.04-.24 1.36-.72l6.32-8.96h12c6.64 0 12-5.36 12-12v-24c-.08-6.56-5.44-12-12.08-12zm-49.6 36v-24c0-5.76 4.64-10.4 10.4-10.4h39.2c5.76 0 10.4 4.64 10.4 10.4v24c0 5.76-4.64 10.4-10.4 10.4h-12.4c-.24 0-.48.16-.64.32l-6.56 9.36-6.56-9.36c-.16-.24-.4-.32-.64-.32h-12.4c-5.76 0-10.4-4.64-10.4-10.4z" fill-rule="nonzero"/></g></svg>