<svg xmlns="http://www.w3.org/2000/svg" xmlns:xlink="http://www.w3.org/1999/xlink" viewBox="0 0 50 50" version="1.1">
<g id="surface1">
<path style=" " d="M 13 0 L 13 7 L 0 7 L 0 9 L 11.625 9 C 11.390625 9.4375 11.507813 9.984375 11.902344 10.285156 C 12.300781 10.589844 12.855469 10.558594 13.21875 10.21875 L 16.21875 7.21875 C 16.542969 6.917969 16.628906 6.441406 16.433594 6.046875 C 16.242188 5.648438 15.808594 5.429688 15.375 5.5 C 15.242188 5.515625 15.117188 5.558594 15 5.625 L 15 0 Z M 35 0 L 35 7 L 18 7 L 16 9 L 33.625 9 C 33.390625 9.4375 33.507813 9.984375 33.902344 10.285156 C 34.300781 10.589844 34.855469 10.558594 35.21875 10.21875 L 38.21875 7.21875 C 38.542969 6.917969 38.628906 6.441406 38.433594 6.046875 C 38.242188 5.648438 37.808594 5.429688 37.375 5.5 C 37.242188 5.515625 37.117188 5.558594 37 5.625 L 37 0 Z M 40 7 L 38 9 L 50 9 L 50 7 Z M 15 10 L 13 12 L 13 14 L 11 14 C 4.953125 14 0 18.953125 0 25 L 0 36 C 0 40.945313 4.054688 45 9 45 L 13 45 L 13 50 L 15 50 L 15 45 L 18.90625 45 C 20.78125 45 22.554688 43.742188 22.96875 41.8125 C 23.28125 40.320313 22.667969 38.9375 21.625 38.03125 C 22.503906 37.296875 23.09375 36.234375 23.09375 35 C 23.09375 33.789063 22.539063 32.734375 21.6875 32 C 22.539063 31.265625 23.09375 30.210938 23.09375 29 C 23.09375 27.757813 22.511719 26.671875 21.625 25.9375 C 22.660156 25.035156 23.285156 23.6875 22.96875 22.1875 C 22.566406 20.304688 20.851563 19 18.90625 19 L 15 19 L 15 15.1875 C 15.027344 15.054688 15.027344 14.914063 15 14.78125 Z M 37 10 L 35 12 L 35 14.8125 C 34.984375 14.917969 34.984375 15.019531 35 15.125 L 35 19 L 31.09375 19 C 29.148438 19 27.433594 20.304688 27.03125 22.1875 L 27 22.25 C 26.765625 23.722656 27.433594 25.039063 28.46875 25.9375 C 27.582031 26.671875 27 27.757813 27 29 C 27 30.210938 27.554688 31.265625 28.40625 32 C 27.554688 32.734375 27 33.789063 27 35 C 27 36.242188 27.582031 37.328125 28.46875 38.0625 C 27.4375 38.972656 26.8125 40.332031 27.125 41.8125 C 27.527344 43.695313 29.242188 45 31.1875 45 L 35 45 L 35 50 L 37 50 L 37 45 L 41.09375 45 C 46.039063 45 50.09375 40.945313 50.09375 36 L 50.09375 25 C 50.09375 18.953125 45.140625 14 39.09375 14 L 37 14 Z M 11 16 L 13 16 L 13 19 L 12 19 C 11.640625 18.996094 11.304688 19.183594 11.121094 19.496094 C 10.941406 19.808594 10.941406 20.191406 11.121094 20.503906 C 11.304688 20.816406 11.640625 21.003906 12 21 L 18.90625 21 C 19.953125 21 20.824219 21.691406 21.03125 22.59375 C 21.035156 22.601563 21.03125 22.617188 21.03125 22.625 C 21.277344 23.898438 20.253906 25 19.09375 25 L 19.09375 27 C 20.285156 27 21.09375 27.808594 21.09375 29 C 21.09375 30.191406 20.285156 31 19.09375 31 L 19.09375 33 C 20.285156 33 21.09375 33.808594 21.09375 35 C 21.09375 36.191406 20.285156 37 19.09375 37 L 19.09375 39 C 20.386719 39 21.285156 40.070313 21.03125 41.375 C 21.027344 41.386719 21.035156 41.394531 21.03125 41.40625 C 20.832031 42.269531 19.820313 43 18.90625 43 L 9 43 C 5.144531 43 2 39.855469 2 36 L 2 25 C 2 20.046875 6.046875 16 11 16 Z M 37 16 L 39.09375 16 C 44.046875 16 48.09375 20.046875 48.09375 25 L 48.09375 36 C 48.09375 39.855469 44.949219 43 41.09375 43 L 31.1875 43 C 30.148438 43 29.308594 42.300781 29.09375 41.40625 C 28.816406 40.085938 29.695313 39 31 39 L 31 37 C 29.808594 37 29 36.191406 29 35 C 29 33.808594 29.808594 33 31 33 L 31 31 C 29.808594 31 29 30.191406 29 29 C 29 27.808594 29.808594 27 31 27 L 31 25 C 29.695313 25 28.789063 23.898438 29 22.5625 C 29.222656 21.679688 30.066406 21 31.09375 21 L 38 21 C 38.359375 21.003906 38.695313 20.816406 38.878906 20.503906 C 39.058594 20.191406 39.058594 19.808594 38.878906 19.496094 C 38.695313 19.183594 38.359375 18.996094 38 19 L 37 19 Z "></path>
</g>
</svg>