<svg width="64" height="64" viewBox="0 0 64 64" xmlns="http://www.w3.org/2000/svg"><title>homework-ghostwriter</title><desc>Created with Sketch.</desc><g><path d="M14.431 23.938h22.669c.442 0 .8-.358.8-.8v-13.348c0-.442-.358-.8-.8-.8h-22.669c-.442 0-.8.358-.8.8v13.348c0 .442.358.8.8.8zm.8-13.348h21.069v11.748h-21.069v-11.748z" id="Shape" fill-rule="nonzero"/><path d="M31.343 13.6h-11.155c-.442 0-.8.358-.8.8 0 .442.358.8.8.8h11.154c.442 0 .8-.358.8-.8 0-.442-.358-.8-.799-.8zM31.343 17.728h-11.155c-.442 0-.8.358-.8.8 0 .442.358.8.8.8h11.154c.442 0 .8-.358.8-.8 0-.442-.358-.8-.799-.8z" id="Path"/><path d="M60.19 5.715l-14.176-2.043c-.306-2.072-2.078-3.672-4.234-3.672h-40.955c-.442 0-.8.358-.8.8v58.934c0 .442.358.8.8.8h27.276l.13.046 23.563 3.396c.202.03.402.043.602.043 2.05 0 3.85-1.51 4.152-3.599l7.198-49.951c.33-2.291-1.265-4.423-3.556-4.754zm-14.113 20.127l1.758.254.115.008c.391 0 .734-.287.791-.686.062-.438-.241-.843-.678-.906l-1.986-.286v-2.436l2.33.336.115.008c.391 0 .734-.287.791-.686.062-.437-.241-.843-.678-.906l-2.558-.369v-2.91l7.99 1.151-1.621 11.254-6.369-.918v-2.909zm-1.6-21.546v51.94c0 1.486-1.21 2.697-2.697 2.697h-34.268v-57.334h34.268c1.486 0 2.697 1.21 2.697 2.697zm-42.852-2.697h4.286v57.334h-4.286v-57.334zm60.537 8.64l-7.198 49.951c-.204 1.418-1.524 2.402-2.942 2.2l-12.895-1.858h2.654c2.37 0 4.297-1.927 4.297-4.297v-25.868l6.932.999.114.008c.172 0 .34-.055.479-.159.17-.127.283-.317.314-.526l1.85-12.837c.03-.21-.024-.423-.151-.594-.127-.17-.317-.282-.526-.313l-9.011-1.298v-10.35l13.885 2.001c1.418.205 2.405 1.524 2.2 2.942zM11.443 34.847l3.427 1.552.664 3.703c.054.3.274.543.566.628l.222.031c.222 0 .438-.092.591-.261l2.535-2.78 3.726.513c.305.04.601-.092.772-.344.17-.252.183-.579.033-.844l-1.86-3.27 1.64-3.386c.133-.274.098-.6-.089-.84-.186-.24-.494-.352-.793-.292l-3.684.759-2.715-2.606c-.219-.211-.54-.278-.826-.175-.286.104-.489.361-.522.664l-.417 3.739-3.317 1.776c-.269.144-.432.428-.422.732.009.303.19.575.469.701zm4.395-1.998c.233-.125.388-.355.418-.617l.283-2.546 1.849 1.774c.189.182.455.258.716.206l2.509-.517-1.117 2.306c-.115.237-.106.515.025.744l1.266 2.226-2.538-.35c-.266-.037-.523.059-.701.254l-1.726 1.893-.452-2.522c-.047-.259-.218-.479-.458-.588l-2.334-1.057 2.258-1.208zM34.995 34.939c-.735-1.418-2.134-1.996-3.35-1.912-1.564.104-3.352 1.3-3.585 3.678-.373 3.81 3.419 7.096 3.582 7.234.146.124.33.192.519.192l.044-.001c.213-.012 5.219-.324 7.235-3.579 1.257-2.032.559-4.066-.621-5.098-.927-.81-2.381-1.194-3.824-.513zm2.77 1.717c.711.621 1.083 1.806.313 3.051-1.321 2.134-4.595 2.674-5.638 2.793-.758-.726-3.033-3.132-2.788-5.64.143-1.458 1.157-2.174 2.099-2.236l.13-.004c.761 0 1.632.444 1.928 1.706.063.269.261.486.522.575.261.089.55.035.765-.14 1.058-.872 2.072-.627 2.669-.106zM22.528 42.469c-1.694-.455-3.459-.224-4.978.65-3.134 1.805-4.216 5.822-2.411 8.956.874 1.518 2.287 2.605 3.979 3.061.567.153 1.143.228 1.715.228 1.134 0 2.253-.297 3.262-.878 1.518-.874 2.605-2.287 3.06-3.978.455-1.692.225-3.459-.65-4.978-.873-1.518-2.286-2.605-3.978-3.061zm3.083 7.622c-.345 1.279-1.166 2.347-2.314 3.008-1.148.662-2.484.835-3.762.491-1.279-.345-2.347-1.166-3.009-2.314-1.364-2.369-.546-5.406 1.823-6.77.762-.439 1.609-.664 2.466-.664.433 0 .868.058 1.297.173 1.279.345 2.348 1.166 3.009 2.314.661 1.148.835 2.485.491 3.763z" fill-rule="nonzero"/><path d="M22.398 46.972c-.383.22-.515.71-.294 1.092.407.706.163 1.612-.543 2.018-.343.197-.741.249-1.122.146-.382-.102-.7-.348-.896-.69-.22-.383-.71-.515-1.093-.294-.382.221-.515.71-.294 1.092.41.713 1.074 1.223 1.867 1.437.266.071.537.107.806.107.532 0 1.058-.139 1.531-.412 1.47-.847 1.978-2.733 1.132-4.203-.222-.382-.71-.514-1.094-.294z"/></g></svg>