<svg width="67" height="51" viewBox="0 0 67 51" xmlns="http://www.w3.org/2000/svg"><title>tutor-students</title><desc>Created with Sketch.</desc><g fill-rule="nonzero"><path d="M51.268 37.877c-4.996 0-9.046-4.05-9.046-9.046 0-4.996 4.05-9.046 9.046-9.046 4.996 0 9.046 4.05 9.046 9.046 0 4.996-4.05 9.046-9.046 9.046zm0-2.462c3.637 0 6.585-2.948 6.585-6.585s-2.948-6.585-6.585-6.585-6.585 2.948-6.585 6.585 2.948 6.585 6.585 6.585z"/><path d="M55.16 36.677c-.649-.202-1.011-.892-.809-1.541.202-.649.892-1.011 1.541-.809 6.506 2.025 10.936 8.048 10.933 14.862 0 .679-.551 1.23-1.231 1.23h-28.652c-.68 0-1.232-.552-1.231-1.232.001-.683.047-1.364.138-2.04l-1.264.484c-.425.161-.875.242-1.321.24-1.252.002-2.419-.63-3.102-1.68l-6.978-10.744c-.721-1.11-.795-2.52-.195-3.699.6-1.179 1.784-1.949 3.106-2.018 1.321-.07 2.58.571 3.3 1.68l5.352 8.224 6.864-2.638c1.5-1.197 3.21-2.106 5.043-2.68.649-.203 1.339.158 1.542.807.203.649-.158 1.339-.807 1.542-1.596.5-3.082 1.301-4.375 2.362-.102.083-.216.15-.339.197l-7.975 3.065c-.542.208-1.156.009-1.473-.478l-5.896-9.059c-.242-.372-.664-.587-1.107-.564-.443.023-.84.281-1.042.677-.201.396-.176.869.066 1.241l6.978 10.744c.227.35.617.561 1.042.56.151.001.302-.026.439-.079l3.372-1.292c.951-.365 1.909.519 1.621 1.496-.233.792-.389 1.603-.468 2.422h26.074c-.487-5.219-4.065-9.698-9.146-11.28zM6.64 37.422h20.098c.68 0 1.231.551 1.231 1.231s-.551 1.231-1.231 1.231h-21.329c-.68 0-1.231-.551-1.231-1.231v-36.652c0-.68.551-1.231 1.231-1.231h47.015c.68 0 1.231.551 1.231 1.231v19.102c0 .68-.551 1.231-1.231 1.231s-1.231-.551-1.231-1.231v-17.871h-44.554v34.191zM14.612 19.321c-.376-.566-.222-1.33.344-1.706.566-.376 1.33-.222 1.706.344l8.185 12.32c.376.566.222 1.33-.344 1.706-.566.376-1.33.222-1.706-.344l-8.185-12.32zM24.745 10.222c-.68 0-1.231-.551-1.231-1.231s.551-1.231 1.231-1.231h18.708c.68 0 1.231.551 1.231 1.231s-.551 1.231-1.231 1.231h-18.708zM24.745 16.769c-.68 0-1.231-.551-1.231-1.231s.551-1.231 1.231-1.231h18.708c.68 0 1.231.551 1.231 1.231s-.551 1.231-1.231 1.231h-18.708zM24.745 23.403c-.68 0-1.231-.551-1.231-1.231s.551-1.231 1.231-1.231h14.769c.68 0 1.231.551 1.231 1.231s-.551 1.231-1.231 1.231h-14.769zM30.025 44.08c.68 0 1.231.551 1.231 1.231s-.551 1.231-1.231 1.231h-28.025c-.68 0-1.231-.551-1.231-1.231s.551-1.231 1.231-1.231h28.025z"/></g></svg>