<svg xmlns="http://www.w3.org/2000/svg" version="1.1" xmlns:xlink="http://www.w3.org/1999/xlink" xmlns:svgjs="http://svgjs.com/svgjs" viewBox="0 0 140 140" width="140" height="140"><g transform="matrix(5.833333333333333,0,0,5.833333333333333,0,0)"><path d="M9.750 12.000 A2.250 2.250 0 1 0 14.250 12.000 A2.250 2.250 0 1 0 9.750 12.000 Z" fill="none" stroke="#000000" stroke-linecap="round" stroke-linejoin="round" stroke-width="1.5"></path><path d="M18.706,12.772A6.75,6.75,0,1,1,12,5.25" fill="none" stroke="#000000" stroke-linecap="round" stroke-linejoin="round" stroke-width="1.5"></path><path d="M1.148,14.977A11.237,11.237,0,1,1,9,22.846" fill="none" stroke="#000000" stroke-linecap="round" stroke-linejoin="round" stroke-width="1.5"></path><path d="M15.000 7.500 A2.250 2.250 0 1 0 19.500 7.500 A2.250 2.250 0 1 0 15.000 7.500 Z" fill="none" stroke="#000000" stroke-linecap="round" stroke-linejoin="round" stroke-width="1.5"></path><path d="M1.500 20.250 A2.250 2.250 0 1 0 6.000 20.250 A2.250 2.250 0 1 0 1.500 20.250 Z" fill="none" stroke="#000000" stroke-linecap="round" stroke-linejoin="round" stroke-width="1.5"></path></g></svg>